<?xml version="1.0" standalone="no"?>
<!DOCTYPE svg PUBLIC "-//W3C//DTD SVG 1.1//EN" "http://www.w3.org/Graphics/SVG/1.1/DTD/svg11.dtd" >
<svg xmlns="http://www.w3.org/2000/svg" xmlns:xlink="http://www.w3.org/1999/xlink" version="1.1">
<metadata>
Created by FontForge 20170731 at Fri May  5 14:09:47 2017
 By Aleksey,,,
Copyright Type Network; all rights reserved. Any use or distribution beyond original license prohibited.
</metadata>
<defs>
<font id="FormaDJRText-Regular" horiz-adv-x="0" >
  <font-face 
    font-family="TN web use only 2"
    font-weight="400"
    font-stretch="normal"
    units-per-em="2048"
    panose-1="0 0 0 0 0 0 0 9 0 0"
    ascent="1536"
    descent="-512"
    x-height="1055"
    cap-height="1434"
    bbox="-332.8 -512 2281 1981"
    underline-thickness="0"
    underline-position="0"
    unicode-range="U+000D-FEFF"
  />
<missing-glyph horiz-adv-x="1024" 
d="M102 -512v2048h820v-2048h-820zM204 -410h616v1844h-616v-1844z" />
    <glyph glyph-name=".notdef" horiz-adv-x="1024" 
d="M102 -512v2048h820v-2048h-820zM204 -410h616v1844h-616v-1844z" />
    <glyph glyph-name=".null" 
 />
    <glyph glyph-name=".null" 
 />
    <glyph glyph-name="nonmarkingreturn" unicode="&#xd;" horiz-adv-x="512" 
 />
    <glyph glyph-name="space" unicode=" " horiz-adv-x="381" 
 />
    <glyph glyph-name="space" unicode="&#xa0;" horiz-adv-x="381" 
 />
    <glyph glyph-name="exclam" unicode="!" horiz-adv-x="414" 
d="M135 397q-8 0 -14 7q-6 6 -6 14v995q0 8 6 15q6 6 14 6h146q8 0 14 -6q6 -7 6 -15v-995q0 -8 -6 -14q-6 -7 -14 -7h-146zM127 0q-8 0 -14 6q-7 6 -7 14v175q0 8 7 14q6 6 14 6h160q8 0 14 -6t6 -14v-175q0 -8 -6 -14t-14 -6h-160z" />
    <glyph glyph-name="quotedbl" unicode="&#x22;" horiz-adv-x="655" 
d="M146 1018q-7 0 -14 7q-7 6 -8 13l-23 375q-1 7 6 14q6 7 13 7h143q7 0 14 -7q6 -7 5 -14l-21 -375q-1 -7 -8 -13q-7 -7 -14 -7h-93zM421 1018q-7 0 -14 7q-8 6 -9 13l-22 375q-1 7 5 14t13 7h144q7 0 13 -7t5 -14l-20 -375q-2 -7 -9 -13q-7 -7 -14 -7h-92z" />
    <glyph glyph-name="numbersign" unicode="#" horiz-adv-x="1380" 
d="M800 475l69 492h-286l-70 -492h287zM753 0q-8 0 -13 7q-6 6 -5 13l44 308h-286l-45 -308q-1 -8 -8 -14t-15 -6h-133q-8 0 -13 7q-6 6 -5 13l44 308h-284q-8 0 -13 7q-6 6 -5 13l17 107q1 8 8 14t15 6h283l70 492h-281q-8 0 -13 7q-6 6 -5 13l13 107q1 8 8 14t15 6h285
l42 299q1 9 8 15t16 6h133q7 0 13 -6q5 -7 4 -15l-42 -299h287l42 299q1 9 8 15t15 6h134q7 0 13 -6q5 -7 4 -15l-42 -299h283q7 0 13 -6q6 -7 5 -14l-14 -107q-1 -8 -7 -14q-7 -6 -16 -6h-287l-69 -492h287q7 0 13 -6q5 -7 4 -14l-18 -107q-1 -8 -8 -14q-8 -6 -16 -6h-283
l-44 -308q-1 -8 -8 -14t-15 -6h-133z" />
    <glyph glyph-name="dollar" unicode="$" horiz-adv-x="1176" 
d="M677 -184q0 -8 -6 -15q-7 -6 -15 -6h-145q-8 0 -14 6q-7 7 -7 15v168q-190 28 -297 153q-107 124 -117 336q-1 8 5 15q6 6 14 6h158q8 0 15 -6q6 -6 7 -15q7 -79 28 -143q20 -65 59 -109t101 -68q61 -24 148 -24q66 0 122 15t96 48q40 32 63 83q22 50 22 120
q0 151 -127 193t-277 74q-151 31 -278 103t-127 282q0 88 27 160q27 71 77 123q49 51 120 83q71 31 157 41v123q0 8 7 14q6 6 14 6h145q8 0 15 -6q6 -6 6 -14v-125q175 -22 276 -127q100 -105 119 -297q1 -7 -5 -13q-6 -7 -13 -7h-156q-8 0 -14 6q-7 6 -8 14q-9 135 -85 205
q-77 70 -225 70q-60 0 -110 -14t-86 -43t-56 -74t-20 -107q0 -140 128 -177q127 -38 279 -69q151 -32 279 -108q127 -76 127 -291q0 -101 -31 -179q-32 -79 -87 -134q-56 -55 -135 -87t-173 -40v-164z" />
    <glyph glyph-name="percent" unicode="%" horiz-adv-x="1630" 
d="M715 1100q0 -83 -23 -148t-65 -108q-42 -44 -101 -67q-60 -23 -133 -23q-72 0 -131 23q-60 22 -101 66q-42 43 -65 109q-24 65 -24 150q0 83 23 149t65 111q42 44 102 68t133 24t133 -24q59 -24 101 -69q41 -45 64 -111q22 -66 22 -150zM272 0q-7 0 -10 6t1 11l934 1400
q5 7 14 12t18 5h123q7 0 10 -6t-1 -11l-934 -1400q-5 -7 -13 -12q-9 -5 -19 -5h-123zM233 1100q0 -110 43 -166q42 -57 117 -57t118 56q42 55 42 167q0 114 -43 173q-43 58 -117 58q-75 0 -117 -58q-43 -59 -43 -173zM1559 334q0 -84 -23 -150q-24 -66 -66 -111t-102 -69
t-133 -24q-72 0 -131 24q-60 24 -101 69q-42 45 -65 111t-23 150t23 149t65 109q42 43 102 66q59 22 132 22t133 -22q59 -23 101 -66q42 -44 65 -109t23 -149zM1077 334q0 -116 44 -174q43 -58 116 -58t116 58q42 58 42 174q0 108 -42 166q-43 57 -118 57t-116 -56
q-42 -57 -42 -167z" />
    <glyph glyph-name="ampersand" unicode="&#x26;" horiz-adv-x="1362" 
d="M614 1343q-88 0 -140 -45q-52 -46 -52 -141q0 -58 31 -114q30 -56 102 -142q53 28 100 57q46 28 81 60q34 31 55 68q20 37 20 81q0 81 -53 129q-54 47 -144 47zM250 389q0 -66 23 -117t65 -85q41 -34 100 -52q58 -18 129 -18q96 0 179 38q82 38 145 107l-297 340
q-26 29 -52 57t-50 54q-50 -29 -94 -62q-45 -33 -77 -72q-33 -39 -52 -86t-19 -104zM1141 0q-10 0 -19 4t-15 11l-118 137q-86 -83 -196 -130t-240 -47q-95 0 -184 26t-156 77q-68 50 -109 127q-41 76 -41 176q0 83 28 149t75 118q46 52 107 94q61 41 126 77
q-69 84 -112 168t-43 174q0 62 24 118q24 55 71 97q46 41 115 66q69 24 158 24q75 0 141 -20q65 -21 113 -59q48 -39 76 -95t29 -127q0 -68 -27 -121q-28 -54 -73 -97t-104 -79q-59 -37 -122 -71q35 -40 78 -89t92 -106l170 -192q32 66 52 146q19 80 25 169q0 8 7 14
q6 6 14 6h132q7 0 13 -6t6 -14q-10 -125 -45 -237q-36 -112 -93 -203l238 -270q4 -4 2 -9q-3 -6 -9 -6h-186z" />
    <glyph glyph-name="quotesingle" unicode="'" horiz-adv-x="381" 
d="M146 1018q-7 0 -14 7q-7 6 -8 13l-23 375q-1 7 6 14q6 7 13 7h143q7 0 14 -7q6 -7 5 -14l-21 -375q-1 -7 -8 -13q-7 -7 -14 -7h-93z" />
    <glyph glyph-name="parenleft" unicode="(" horiz-adv-x="496" 
d="M299 -287q-9 0 -17 5q-9 6 -13 14q-98 199 -155 415q-57 215 -57 467t58 467t152 396q4 8 13 13q8 5 17 5h109q7 0 11 -6t1 -13q-88 -195 -138 -411q-51 -217 -51 -451t50 -456t141 -426q3 -7 -1 -13t-11 -6h-109z" />
    <glyph glyph-name="parenright" unicode=")" horiz-adv-x="496" 
d="M87 -287q-7 0 -11 6t-1 13q91 204 141 426q49 222 49 456t-50 451q-50 216 -138 411q-3 7 1 13t11 6h109q9 0 18 -5q8 -5 12 -13q93 -181 151 -396t58 -467t-56 -467q-57 -216 -156 -415q-4 -8 -12 -14q-8 -5 -17 -5h-109z" />
    <glyph glyph-name="asterisk" unicode="*" horiz-adv-x="700" 
d="M613 1012q-3 -7 -11 -9q-8 -3 -15 1l-187 108l8 -209q0 -8 -6 -14t-14 -6h-80q-8 0 -14 6t-6 14l6 211l-181 -114q-7 -4 -15 -2q-9 2 -13 9l-41 71q-4 7 -1 15q2 8 9 12l182 97l-184 93q-7 4 -10 13q-3 8 1 15l37 78q4 7 12 10q8 2 15 -2l189 -109l-8 216q0 7 6 14
q6 6 14 6h78q8 0 14 -6q6 -7 6 -14l-8 -216l190 119q7 4 15 2t12 -9l40 -71q4 -7 2 -15q-3 -9 -10 -13l-189 -103l182 -91q7 -4 11 -12q3 -9 -1 -16z" />
    <glyph glyph-name="plus" unicode="+" horiz-adv-x="1040" 
d="M981 649q0 -8 -6 -14t-14 -6h-365v-406q0 -8 -6 -14q-7 -6 -15 -6h-108q-8 0 -14 6q-7 6 -7 14v406h-366q-8 0 -14 6q-7 6 -7 14v113q0 8 7 14q6 6 14 6h366v408q0 8 7 14q6 6 14 6h108q8 0 15 -6q6 -6 6 -14v-408h365q8 0 14 -6t6 -14v-113z" />
    <glyph glyph-name="comma" unicode="," horiz-adv-x="340" 
d="M55 -201q-7 0 -12 6q-5 7 -3 14l50 185v191q0 8 7 14q6 6 14 6h143q8 0 14 -6t6 -14v-168q0 -10 -3 -20q-3 -11 -8 -18l-113 -173q-4 -7 -13 -12t-18 -5h-64z" />
    <glyph glyph-name="hyphen" unicode="-" horiz-adv-x="543" 
d="M61 532q-8 0 -14 7q-6 6 -6 14v104q0 8 6 15q6 6 14 6h420q8 0 15 -6q6 -7 6 -15v-104q0 -8 -6 -14q-7 -7 -15 -7h-420z" />
    <glyph glyph-name="hyphen" unicode="&#x2011;" horiz-adv-x="543" 
d="M61 532q-8 0 -14 7q-6 6 -6 14v104q0 8 6 15q6 6 14 6h420q8 0 15 -6q6 -7 6 -15v-104q0 -8 -6 -14q-7 -7 -15 -7h-420z" />
    <glyph glyph-name="hyphen" unicode="&#x2010;" horiz-adv-x="543" 
d="M61 532q-8 0 -14 7q-6 6 -6 14v104q0 8 6 15q6 6 14 6h420q8 0 15 -6q6 -7 6 -15v-104q0 -8 -6 -14q-7 -7 -15 -7h-420z" />
    <glyph glyph-name="hyphen" unicode="&#xad;" horiz-adv-x="543" 
d="M61 532q-8 0 -14 7q-6 6 -6 14v104q0 8 6 15q6 6 14 6h420q8 0 15 -6q6 -7 6 -15v-104q0 -8 -6 -14q-7 -7 -15 -7h-420z" />
    <glyph glyph-name="period" unicode="." horiz-adv-x="340" 
d="M88 0q-8 0 -14 6t-6 14v175q0 8 6 14t14 6h166q8 0 14 -6t6 -14v-175q0 -8 -6 -14t-14 -6h-166z" />
    <glyph glyph-name="slash" unicode="/" horiz-adv-x="666" 
d="M63 -293q-7 0 -12 6q-5 7 -3 14l424 1742q2 8 10 14q7 6 16 6h102q7 0 12 -6q5 -7 4 -14l-425 -1742q-2 -8 -9 -14t-16 -6h-103z" />
    <glyph glyph-name="zero" unicode="0" horiz-adv-x="1171" 
d="M1102 715q0 -176 -37 -314q-37 -139 -104 -233q-68 -95 -163 -145q-96 -50 -212 -50t-212 50t-163 145t-104 234q-37 138 -37 313q0 179 37 319t104 234t163 143t212 49t212 -48q95 -49 163 -143q67 -94 104 -234t37 -320zM266 715q0 -287 87 -434q86 -148 233 -148
q148 0 234 147q85 146 85 435t-85 437q-86 148 -234 148q-151 0 -235 -147q-85 -148 -85 -438z" />
    <glyph glyph-name="one" unicode="1" horiz-adv-x="713" 
d="M375 0q-8 0 -14 7q-7 6 -7 13l6 664l-2 524q-59 -54 -134 -94t-155 -67q-7 -2 -13 2q-7 4 -7 12v118q0 9 6 17q5 8 13 11q90 34 164 89q73 55 123 121q5 7 14 12t19 5h144q8 0 15 -6q6 -7 6 -15l-8 -729l8 -664q0 -7 -6 -13q-7 -7 -15 -7h-157z" />
    <glyph glyph-name="two" unicode="2" horiz-adv-x="1047" 
d="M92 0q-8 0 -14 6t-6 14v168q0 207 116 316q115 108 253 181q137 72 253 144q115 72 115 207q1 59 -16 109t-51 87q-34 36 -86 56q-53 20 -124 19q-131 0 -207 -87t-83 -253q0 -9 -6 -15q-7 -6 -15 -6h-133q-8 0 -14 7q-6 6 -6 14q4 234 124 362t343 129q108 0 192 -29
t141 -83t88 -132q30 -78 31 -174q0 -191 -115 -292q-116 -101 -253 -172q-138 -71 -253 -145q-116 -75 -116 -214v-61h706q8 0 15 -6q6 -7 6 -15v-115q0 -8 -6 -14q-7 -6 -15 -6h-864z" />
    <glyph glyph-name="three" unicode="3" horiz-adv-x="1108" 
d="M1041 428q0 -102 -37 -185q-37 -84 -103 -142t-158 -89q-93 -32 -203 -32q-220 0 -341 115q-122 114 -137 335q-1 8 5 15q6 6 14 6h145q8 0 15 -6q6 -7 6 -15q7 -146 80 -227q72 -81 217 -80q74 0 131 22q56 22 94 61t58 95q19 56 20 123q1 134 -85 203t-257 69h-64
q-8 0 -14 7q-6 6 -6 14v96q0 8 6 15q6 6 14 6h64q157 0 235 64t78 171q0 57 -19 102q-20 45 -54 76q-35 31 -83 48q-48 16 -104 16q-136 0 -209 -72t-83 -215q0 -9 -6 -14q-7 -6 -16 -6h-141q-7 0 -13 6q-7 6 -6 14q6 105 43 186t99 135t149 82q87 27 191 27q94 0 175 -25
q81 -26 140 -73q59 -48 93 -116q33 -69 33 -155q0 -64 -18 -114q-19 -51 -52 -89t-79 -65t-99 -44q133 -28 208 -119q74 -92 74 -226z" />
    <glyph glyph-name="four" unicode="4" horiz-adv-x="1106" 
d="M1059 403q0 -8 -6 -14q-7 -6 -15 -6h-133v-363q0 -8 -6 -14t-14 -6h-150q-8 0 -14 6t-6 14v363h-645q-8 0 -14 6q-7 6 -7 14v129q0 10 4 21q3 10 8 17l569 847q4 7 13 12t19 5h223q8 0 14 -6q6 -7 6 -15v-874h133q8 0 15 -6q6 -7 6 -15v-115zM715 1042l4 248l-500 -751
h496v503z" />
    <glyph glyph-name="five" unicode="5" horiz-adv-x="1104" 
d="M1043 520q0 -125 -36 -227q-37 -102 -103 -172q-66 -71 -158 -109q-93 -39 -204 -39q-109 0 -192 29q-84 29 -142 81t-91 127q-34 74 -44 165q-1 7 5 14q5 6 13 6h151q9 0 15 -6t7 -14q8 -116 78 -187t198 -71q137 0 219 104q82 103 82 287q0 179 -75 274t-214 95
q-109 0 -178 -54q-70 -54 -96 -150q-2 -9 -9 -14q-7 -6 -17 -6h-126q-8 0 -14 7q-6 6 -5 14l48 739q1 8 8 15q6 6 14 6h752q8 0 14 -6q6 -7 6 -15v-115q0 -8 -6 -14t-14 -6h-609l-32 -391q54 69 134 103t179 34q95 0 176 -35t140 -100t93 -159q33 -94 33 -210z" />
    <glyph glyph-name="six" unicode="6" horiz-adv-x="1135" 
d="M1067 496q0 -110 -36 -206q-37 -96 -100 -166q-64 -70 -153 -110q-90 -41 -194 -41q-119 0 -213 46q-95 46 -160 137t-100 230t-35 323q0 179 37 320q37 140 105 236q68 95 166 145q97 50 218 50q183 0 287 -89q104 -90 126 -259q1 -7 -4 -13q-6 -7 -13 -7h-147
q-9 0 -16 6q-7 5 -8 14q-12 88 -70 146q-59 57 -167 57q-75 0 -134 -37q-60 -37 -100 -105q-41 -69 -62 -168q-22 -99 -22 -221q49 84 140 129q90 45 209 45q99 0 182 -32q82 -32 141 -91q58 -60 91 -146q32 -86 32 -193zM285 483q0 -76 20 -142q19 -66 56 -113
q37 -48 91 -75q54 -28 123 -28q140 0 217 93q76 93 76 255q-1 76 -19 139q-19 63 -54 107t-88 68q-54 24 -123 24q-140 0 -219 -87q-80 -88 -80 -241z" />
    <glyph glyph-name="seven" unicode="7" horiz-adv-x="940" 
d="M892 1260q-139 -278 -247 -589q-109 -311 -161 -651q-1 -8 -8 -14t-15 -6h-162q-7 0 -12 7q-6 6 -5 13q28 169 69 337q40 167 92 326q51 159 115 310q64 150 138 285h-637q-8 0 -14 6t-6 14v115q0 8 6 15q6 6 14 6h822q8 0 14 -6q6 -7 6 -15v-114q0 -10 -2 -20
q-3 -11 -7 -19z" />
    <glyph glyph-name="eight" unicode="8" horiz-adv-x="1143" 
d="M1077 397q0 -96 -38 -174q-39 -78 -106 -132q-67 -55 -159 -84q-93 -30 -201 -30q-107 0 -199 30q-92 29 -159 84q-67 54 -105 132t-38 174q0 130 75 228q75 97 209 137q-114 44 -174 126t-59 189q1 88 33 159t91 120q58 49 142 76q83 26 184 26q103 0 187 -26
q83 -27 142 -76q58 -49 91 -120q32 -71 33 -159q0 -99 -62 -184t-178 -131q138 -40 215 -137q76 -98 76 -228zM309 1063q-1 -51 17 -95q18 -45 52 -77q34 -33 84 -51q49 -19 111 -19t112 20q49 20 84 53q34 33 53 77q18 44 18 92q0 60 -19 108q-20 47 -55 80t-84 51
q-50 17 -109 17q-58 0 -106 -17q-49 -18 -83 -51q-35 -33 -54 -80q-20 -48 -21 -108zM262 403q-1 -62 21 -114q22 -53 63 -91q40 -38 98 -59q58 -22 129 -22t130 22q58 21 99 59t64 91q22 52 21 114q-1 63 -22 116q-22 53 -62 91q-40 37 -98 58t-132 22q-72 -1 -130 -22
t-97 -58q-40 -38 -61 -91q-22 -53 -23 -116z" />
    <glyph glyph-name="nine" unicode="9" horiz-adv-x="1135" 
d="M268 961q1 -76 20 -138q18 -63 54 -106q35 -44 89 -68q53 -24 122 -24q139 0 219 87q80 86 80 240q0 76 -19 142q-20 65 -57 113q-38 47 -92 75q-54 27 -123 27q-139 0 -216 -93t-77 -255zM1061 725q0 -179 -37 -319q-37 -141 -105 -236q-68 -96 -165 -146
q-98 -51 -219 -51q-183 0 -287 90q-105 90 -127 261q-1 7 5 14q6 6 13 6h147q9 0 16 -5q6 -6 7 -15q13 -94 74 -148q60 -55 164 -55q76 0 136 36q59 35 99 103q40 67 61 165t21 222q-49 -82 -139 -127t-209 -45q-99 0 -181 32q-83 32 -141 92q-59 59 -91 146q-33 86 -33 193
q0 112 36 208q35 96 99 166q63 69 153 109q89 39 195 39q118 0 213 -45q94 -46 160 -136q65 -91 100 -230t35 -324z" />
    <glyph glyph-name="colon" unicode=":" horiz-adv-x="344" 
d="M88 840q-8 0 -14 6t-6 14v175q0 8 6 14t14 6h166q8 0 14 -6t6 -14v-175q0 -8 -6 -14t-14 -6h-166zM88 0q-8 0 -14 6t-6 14v175q0 8 6 14t14 6h166q8 0 14 -6t6 -14v-175q0 -8 -6 -14t-14 -6h-166z" />
    <glyph glyph-name="semicolon" unicode=";" horiz-adv-x="344" 
d="M57 -201q-7 0 -12 6q-5 7 -3 14l50 185v191q0 8 7 14q6 6 14 6h143q8 0 14 -6t6 -14v-168q0 -10 -3 -20q-3 -11 -8 -18l-113 -173q-4 -7 -13 -12t-18 -5h-64zM90 840q-8 0 -14 6t-6 14v175q0 8 6 14t14 6h166q8 0 14 -6t6 -14v-175q0 -8 -6 -14t-14 -6h-166z" />
    <glyph glyph-name="less" unicode="&#x3c;" horiz-adv-x="1040" 
d="M981 229q0 -7 -6 -11t-13 -1l-884 403q-8 4 -13 12q-6 8 -6 17v113q0 9 6 17q5 8 13 12l884 405q7 3 13 -1t6 -11v-119q0 -9 -5 -17q-6 -8 -14 -12l-751 -329l751 -332q8 -4 14 -12q5 -8 5 -17v-117z" />
    <glyph glyph-name="equal" unicode="=" horiz-adv-x="1040" 
d="M80 868q-8 0 -14 7q-7 6 -7 14v112q0 8 7 15q6 6 14 6h881q8 0 14 -6q6 -7 6 -15v-112q0 -8 -6 -14q-6 -7 -14 -7h-881zM80 391q-8 0 -14 7q-7 6 -7 14v112q0 8 7 15q6 6 14 6h881q8 0 14 -6q6 -7 6 -15v-112q0 -8 -6 -14q-6 -7 -14 -7h-881z" />
    <glyph glyph-name="greater" unicode="&#x3e;" horiz-adv-x="1040" 
d="M78 217q-7 -3 -13 1t-6 11v117q0 9 6 17q5 8 13 12l749 332l-749 329q-8 4 -13 12q-6 8 -6 17v119q0 7 6 11t13 1l884 -405q8 -4 14 -12q5 -8 5 -17v-113q0 -9 -5 -17q-6 -8 -14 -12z" />
    <glyph glyph-name="question" unicode="?" horiz-adv-x="997" 
d="M418 397q-7 0 -13 7q-7 6 -6 14q4 147 61 237q56 89 122 154t121 125q54 59 54 147q0 55 -19 98t-53 72q-35 29 -83 44t-105 16q-140 1 -207 -70q-68 -72 -75 -215q-1 -8 -7 -14t-15 -6h-137q-8 0 -14 6t-5 14q11 207 132 317q121 109 334 109q93 0 174 -25
q80 -25 139 -73q58 -48 92 -118q33 -71 33 -161q0 -119 -54 -190t-119 -132q-65 -62 -121 -136q-57 -74 -62 -199q0 -9 -6 -15q-7 -6 -15 -6h-146zM411 0q-8 0 -14 6q-7 6 -7 14v175q0 8 7 14q6 6 14 6h161q8 0 15 -6q6 -6 6 -14v-175q0 -8 -6 -14q-7 -6 -15 -6h-161z" />
    <glyph glyph-name="at" unicode="@" horiz-adv-x="1731" 
d="M1475 -57q-47 -81 -112 -140q-66 -59 -144 -97q-79 -38 -171 -57q-93 -18 -194 -18q-176 0 -322 61q-146 62 -249 175q-103 114 -160 279q-57 164 -57 368q0 209 57 377q57 167 160 283q103 115 250 177q146 62 323 62q182 0 332 -62t256 -177q105 -116 163 -284t58 -378
q0 -114 -24 -202t-64 -147q-41 -60 -94 -91q-54 -31 -113 -31q-39 0 -81 10t-78 33q-37 23 -64 63q-28 39 -39 97q-46 -98 -129 -155q-84 -58 -197 -58q-97 0 -171 39q-75 38 -125 105q-50 66 -75 158q-26 91 -26 195t27 197q27 92 78 160q50 68 125 108q74 39 169 39
q100 0 176 -42t123 -122l-3 125q0 8 6 15q6 6 14 6h131q8 0 14 -6q6 -7 6 -15v-665q0 -55 9 -91t25 -57t38 -29t47 -8q38 0 72 23q34 22 59 68q24 45 39 115q14 70 14 163q0 188 -49 338q-50 149 -140 252q-91 102 -221 157q-130 54 -290 54q-155 0 -281 -55
q-127 -55 -215 -157q-88 -103 -136 -252q-48 -150 -48 -337q0 -182 49 -327q48 -146 136 -246t215 -154q126 -53 280 -53q80 0 154 11t138 36t117 65q53 41 92 100q5 8 14 12q8 5 18 5h77q7 0 11 -6q3 -6 0 -12zM561 541q0 -86 16 -157t49 -121q32 -50 82 -77
q50 -28 117 -28q121 0 192 92q71 91 73 272q1 181 -68 281q-69 99 -193 100q-69 1 -119 -25q-51 -26 -84 -73q-33 -48 -49 -115q-16 -68 -16 -149z" />
    <glyph glyph-name="A" unicode="A" horiz-adv-x="1288" 
d="M881 590l-242 708l-240 -708h482zM1102 0q-9 0 -16 6q-8 5 -11 13l-139 409h-592l-137 -409q-3 -8 -10 -13q-8 -6 -17 -6h-151q-8 0 -12 6t-2 13l500 1395q3 9 11 15q8 5 17 5h209q8 0 16 -6t11 -14l494 -1395q3 -7 -1 -13q-5 -6 -12 -6h-158z" />
    <glyph glyph-name="B" unicode="B" horiz-adv-x="1278" 
d="M1206 426q0 -114 -43 -195t-115 -132t-169 -75t-203 -24h-547q-8 0 -14 7q-6 6 -6 13l10 717l-10 676q0 8 6 15q6 6 14 6h543q108 0 199 -22q90 -22 155 -65t101 -107q36 -65 36 -150q0 -137 -69 -215q-70 -78 -197 -109q159 -37 233 -126q73 -90 76 -214zM297 829h375
q137 0 218 54q81 53 81 172q0 59 -22 103t-61 73q-40 29 -95 43t-121 14h-365zM307 147h365q75 0 138 15q62 14 107 47q45 32 70 86q25 53 25 129q0 70 -28 120t-74 81q-47 30 -109 45q-62 14 -129 14h-375z" />
    <glyph glyph-name="C" unicode="C" horiz-adv-x="1397" 
d="M1343 504q-21 -135 -73 -235q-52 -101 -130 -166q-78 -66 -181 -98q-104 -32 -226 -32q-157 0 -281 52q-125 51 -210 147t-130 235q-46 139 -46 312q0 169 47 307q46 137 132 233t211 149q124 52 277 52q107 0 205 -26q97 -26 176 -85t136 -155q56 -96 82 -234
q1 -7 -4 -13q-6 -7 -13 -7h-147q-9 0 -16 6t-9 14q-17 88 -54 153q-38 65 -91 107t-121 63q-68 20 -146 20q-112 0 -200 -41q-88 -42 -147 -117q-60 -76 -91 -184q-31 -109 -31 -242q0 -144 32 -255t92 -184q60 -74 147 -111q87 -38 196 -38q177 0 289 96q111 96 133 277
q1 8 8 14q6 6 15 6h151q8 0 14 -6q5 -7 4 -14z" />
    <glyph glyph-name="D" unicode="D" horiz-adv-x="1372" 
d="M131 0q-8 0 -14 7q-6 6 -6 13l8 715l-8 678q0 8 6 15q6 6 14 6h453q153 0 287 -46q133 -47 230 -137t153 -224q55 -135 55 -310q0 -183 -59 -318q-59 -136 -158 -224t-230 -131q-131 -44 -274 -44h-457zM301 739q0 -50 2 -147q1 -98 2 -194q1 -97 3 -170q1 -73 1 -74h295
q94 0 186 32q91 32 163 100q71 68 115 175t44 256q0 141 -41 248q-41 106 -111 176q-70 69 -164 104t-200 35h-287q0 -1 -1 -67q-2 -67 -3 -156t-2 -179q-2 -91 -2 -139z" />
    <glyph glyph-name="E" unicode="E" horiz-adv-x="1096" 
d="M129 0q-8 0 -14 7q-6 6 -6 13l10 719l-10 674q0 8 6 15q6 6 14 6h864q8 0 15 -6q6 -7 6 -15v-113q0 -8 -6 -14q-7 -6 -15 -6h-686l-10 -438h647q8 0 15 -6q6 -7 6 -15v-112q0 -8 -6 -14q-7 -7 -15 -7h-647l10 -534h703q8 0 14 -6q6 -7 6 -15v-113q0 -8 -6 -14t-14 -6
h-881z" />
    <glyph glyph-name="F" unicode="F" horiz-adv-x="1040" 
d="M129 0q-8 0 -14 7q-6 6 -6 13l10 697l-10 696q0 8 6 15q6 6 14 6h838q8 0 14 -6q6 -7 6 -15v-113q0 -8 -6 -14t-14 -6h-660l-10 -502h637q8 0 14 -6t6 -14v-113q0 -8 -6 -14t-14 -6h-637l10 -605q0 -7 -6 -13q-6 -7 -14 -7h-158z" />
    <glyph glyph-name="G" unicode="G" horiz-adv-x="1421" 
d="M1356 725q1 -182 -40 -323q-41 -142 -121 -236q-80 -95 -200 -144t-274 -49q-143 0 -264 53t-207 150q-87 97 -135 235q-49 138 -49 306q0 171 48 309t134 234t207 148q120 52 264 52q119 0 219 -30q99 -31 176 -89q76 -59 129 -145q52 -87 78 -199q1 -7 -4 -13
q-5 -7 -12 -7h-154q-9 0 -16 6q-7 5 -9 14q-37 151 -143 230q-106 78 -264 78q-103 0 -188 -40q-85 -41 -144 -117q-60 -76 -92 -186q-33 -110 -33 -247q0 -135 34 -244q33 -109 94 -184q60 -76 146 -117t191 -41q102 0 182 33q80 32 134 93q54 60 83 147q28 86 29 192h-428
q-8 0 -14 6t-6 14v111q0 8 6 14t14 6h608q8 0 15 -6q6 -6 6 -14z" />
    <glyph glyph-name="H" unicode="H" horiz-adv-x="1366" 
d="M1077 0q-8 0 -14 7q-6 6 -6 13l10 672h-768l8 -672q0 -7 -6 -13q-6 -7 -14 -7h-158q-8 0 -14 7q-6 6 -6 13l10 689l-10 704q0 8 6 15q6 6 14 6h158q8 0 14 -6q6 -7 6 -15l-6 -567h764l-8 567q0 8 6 15q6 6 14 6h158q8 0 14 -6q6 -7 6 -15l-10 -704l10 -689q0 -7 -6 -13
q-6 -7 -14 -7h-158z" />
    <glyph glyph-name="I" unicode="I" horiz-adv-x="436" 
d="M141 0q-8 0 -14 7q-6 6 -6 13l8 709l-8 684q0 8 6 15q6 6 14 6h154q8 0 14 -6q6 -7 6 -15l-8 -684l8 -709q0 -7 -6 -13q-6 -7 -14 -7h-154z" />
    <glyph glyph-name="J" unicode="J" horiz-adv-x="1006" 
d="M913 508q4 -263 -104 -400q-109 -137 -334 -137q-111 0 -192 36q-82 36 -134 103q-53 66 -79 163q-27 96 -29 216q0 8 7 15q6 6 13 6h144q8 0 14 -6t6 -15q1 -82 14 -149t42 -113q28 -46 76 -71q47 -25 118 -25q74 0 122 26q47 25 75 74q28 48 39 119q11 70 12 160l2 401
l-6 502q0 8 6 15q6 6 14 6h160q8 0 14 -6q6 -7 6 -15l-8 -502z" />
    <glyph glyph-name="K" unicode="K" horiz-adv-x="1163" 
d="M778 227l-317 482l-160 -195l4 -494q0 -8 -6 -14t-14 -6h-154q-8 0 -14 7q-6 6 -6 13l8 715l-8 678q0 8 6 15q6 6 14 6h154q8 0 14 -6q6 -7 6 -15l-6 -674l528 678q6 7 15 12t18 5h187q6 0 9 -6q2 -6 -2 -10l-468 -558l564 -843q4 -5 1 -11t-10 -6h-195q-9 0 -18 5
t-13 12z" />
    <glyph glyph-name="L" unicode="L" horiz-adv-x="977" 
d="M131 0q-8 0 -14 7q-6 6 -6 13l8 730l-8 663q0 8 6 15q6 6 14 6h156q8 0 14 -6q6 -7 6 -15l-8 -653l8 -606h631q8 0 14 -6q6 -7 6 -15v-113q0 -8 -6 -14t-14 -6h-807z" />
    <glyph glyph-name="M" unicode="M" horiz-adv-x="1638" 
d="M287 588l2 -568q0 -8 -6 -14q-7 -6 -15 -6h-139q-8 0 -14 7q-6 6 -6 13l10 685l-8 708q0 8 6 15q6 6 14 6h219q9 0 17 -5q8 -6 11 -14l453 -1171l444 1170q3 9 11 15q8 5 17 5h204q8 0 15 -6q6 -7 6 -15l-8 -708l8 -685q0 -7 -6 -13q-7 -7 -15 -7h-151q-8 0 -14 6
q-7 6 -7 14l2 568l4 407l5 187l-442 -1163q-3 -8 -11 -13q-8 -6 -16 -6h-113q-9 0 -17 6q-8 5 -11 13l-460 1175l7 -203z" />
    <glyph glyph-name="N" unicode="N" horiz-adv-x="1378" 
d="M291 625l2 -605q0 -8 -6 -14q-7 -6 -15 -6h-143q-8 0 -14 7q-6 6 -6 13l10 707l-8 686q0 8 6 15q6 6 14 6h182q10 0 19 -5q8 -5 13 -13l751 -1172l-4 123l-5 426l-1 620q-1 8 6 15q6 6 14 6h143q8 0 15 -6q6 -7 5 -15l-9 -686l7 -707q1 -7 -5 -13q-7 -7 -15 -7h-192
q-10 0 -18 5q-9 5 -14 12l-740 1157l4 -150z" />
    <glyph glyph-name="O" unicode="O" horiz-adv-x="1501" 
d="M1436 715q0 -168 -49 -305q-50 -138 -140 -234q-90 -97 -217 -150t-280 -53q-154 0 -281 54q-127 53 -216 150q-89 96 -138 234q-49 137 -49 304q0 171 49 310q49 138 138 235q89 96 216 148t281 52t281 -52t217 -148q89 -96 139 -234q49 -139 49 -311zM262 715
q0 -135 34 -244q33 -109 96 -184t154 -115q91 -41 204 -41q114 0 205 40t154 115t97 184q33 109 33 245t-33 246q-34 109 -97 185q-63 75 -154 116t-205 41q-115 0 -206 -40q-91 -41 -153 -116q-63 -76 -96 -185q-33 -110 -33 -247z" />
    <glyph glyph-name="P" unicode="P" horiz-adv-x="1159" 
d="M1108 997q0 -112 -36 -196q-37 -85 -103 -141q-67 -56 -161 -84q-94 -29 -208 -29h-299l6 -527q0 -7 -6 -13q-6 -7 -14 -7h-158q-8 0 -14 7q-6 6 -6 13l10 715l-10 678q0 8 6 15q6 6 14 6h469q117 0 212 -28q94 -28 160 -82q66 -55 102 -137t36 -190zM299 723v-25h313
q69 0 127 16q57 16 98 52q40 35 63 92q22 56 22 135q0 147 -84 218t-234 71h-299z" />
    <glyph glyph-name="Q" unicode="Q" horiz-adv-x="1503" 
d="M1450 20q0 -8 -6 -14t-14 -6h-480q-47 -13 -99 -20t-106 -7q-154 0 -281 54q-127 53 -216 150q-89 96 -138 234q-49 137 -49 304q0 171 49 310q49 138 138 235q89 96 216 148t281 52t282 -52q127 -52 217 -148q89 -96 139 -234q49 -139 49 -311q0 -176 -55 -318
q-55 -143 -154 -241l57 4h150q8 0 14 -6q6 -7 6 -15v-119zM258 715q0 -135 34 -244q33 -109 96 -184q62 -75 153 -115q91 -41 204 -41q114 0 206 40q91 40 154 115t97 184q33 109 33 245t-33 246q-34 109 -97 185q-63 75 -154 116q-92 41 -206 41q-115 0 -205 -40
q-91 -41 -153 -116q-63 -76 -96 -185q-33 -110 -33 -247z" />
    <glyph glyph-name="R" unicode="R" horiz-adv-x="1235" 
d="M971 1008q0 136 -86 205q-87 69 -238 69h-342l-8 -547h354q71 0 130 16q59 15 101 48t66 85q23 52 23 124zM825 248l-219 338h-307l8 -566q0 -7 -6 -13q-6 -7 -14 -7h-158q-8 0 -14 7q-6 6 -6 13l10 717l-10 676q0 8 6 15q6 6 14 6h502q121 0 219 -26q98 -27 166 -80
t105 -132q36 -80 36 -184q0 -172 -94 -274t-254 -136l374 -585q4 -5 1 -11t-10 -6h-183q-9 0 -17 5q-9 5 -14 13z" />
    <glyph glyph-name="S" unicode="S" horiz-adv-x="1264" 
d="M1206 420q0 -110 -41 -194q-42 -84 -115 -139q-74 -56 -176 -84q-103 -28 -225 -28q-135 0 -243 33q-108 32 -183 95q-75 62 -117 156q-43 93 -48 214q0 8 6 15q6 6 14 6h155q9 0 16 -6q6 -6 7 -15q7 -79 32 -143q24 -65 71 -109q46 -44 119 -68t177 -24q79 0 147 15
q67 15 116 48q48 32 75 83q27 50 27 120q0 149 -146 193q-147 44 -321 78t-320 106q-147 72 -147 275q0 98 38 175q37 77 106 129q68 52 165 80q97 27 215 27q123 0 223 -26q99 -26 171 -79q71 -53 115 -134q43 -82 55 -191q1 -7 -5 -13q-6 -7 -14 -7h-157q-9 0 -15 6
q-7 5 -8 14q-13 137 -105 206t-264 69q-73 0 -134 -14q-62 -14 -106 -43q-45 -30 -69 -75q-25 -45 -25 -106q0 -138 147 -177q146 -40 320 -73q174 -34 321 -110q146 -76 146 -285z" />
    <glyph glyph-name="T" unicode="T" horiz-adv-x="1077" 
d="M459 0q-8 0 -14 7q-7 6 -6 13l10 691l-9 569h-395q-8 0 -14 6t-6 14v113q0 8 6 15q6 6 14 6h987q8 0 15 -6q6 -7 6 -15v-113q0 -8 -6 -14q-7 -6 -15 -6h-395l-8 -569l10 -691q0 -7 -6 -13q-7 -7 -15 -7h-159z" />
    <glyph glyph-name="U" unicode="U" horiz-adv-x="1243" 
d="M1151 543q0 -135 -32 -241q-33 -107 -98 -179q-65 -73 -164 -111q-100 -39 -232 -39t-233 39q-101 38 -167 111q-67 72 -100 179q-34 106 -33 241l2 446l-8 424q0 8 7 15q6 6 13 6h162q8 0 15 -6q6 -7 5 -15l-7 -420l2 -450q0 -91 19 -166q19 -76 61 -129q41 -54 106 -83
q65 -30 156 -30q93 0 160 30q66 29 108 83q42 53 62 129q20 75 20 166v446l-6 424q0 8 6 15q6 6 14 6h146q8 0 14 -6q6 -7 6 -15l-4 -424v-446z" />
    <glyph glyph-name="V" unicode="V" horiz-adv-x="1255" 
d="M758 19q-3 -8 -10 -13q-8 -6 -17 -6h-203q-8 0 -16 6q-8 5 -11 13l-486 1395q-2 7 2 14q4 6 12 6h170q8 0 16 -6t11 -14l415 -1267l411 1267q3 8 11 14t16 6h148q7 0 12 -6q4 -7 2 -14z" />
    <glyph glyph-name="W" unicode="W" horiz-adv-x="1802" 
d="M1208 0q-8 0 -15 6q-8 6 -10 14l-288 1151l-276 -1151q-2 -8 -9 -14t-16 -6h-186q-9 0 -16 6q-8 6 -10 14l-358 1394q-2 7 3 14q5 6 12 6h154q8 0 16 -6q7 -6 9 -14l294 -1230l280 1230q2 8 10 14q7 6 15 6h176q9 0 17 -6q7 -6 8 -14l287 -1230l292 1230q1 8 9 14
q7 6 16 6h139q8 0 13 -6q4 -7 3 -14l-361 -1394q-2 -8 -9 -14q-8 -6 -16 -6h-183z" />
    <glyph glyph-name="X" unicode="X" horiz-adv-x="1223" 
d="M996 0q-9 0 -17 5q-9 5 -14 12l-358 585l-364 -585q-4 -7 -13 -12t-18 -5h-172q-7 0 -10 6t0 11l471 739l-427 660q-4 6 -1 12t10 6h186q10 0 19 -5q8 -5 13 -13l314 -507l313 507q5 8 14 13q8 5 17 5h172q7 0 11 -6q3 -6 -1 -12l-417 -666l470 -733q4 -5 1 -11t-10 -6
h-189z" />
    <glyph glyph-name="Y" unicode="Y" horiz-adv-x="1161" 
d="M676 20q0 -7 -6 -13q-7 -7 -15 -7h-155q-8 0 -14 7q-7 6 -6 13l7 482l-471 913q-4 7 0 13t11 6h176q9 0 17 -5q8 -6 12 -14l356 -743l357 743q4 8 13 14q8 5 17 5h160q7 0 11 -6q3 -6 0 -13l-476 -917z" />
    <glyph glyph-name="Z" unicode="Z" horiz-adv-x="1165" 
d="M1110 20q0 -8 -6 -14t-14 -6h-1014q-8 0 -14 6q-7 6 -7 14v127q0 10 4 20q3 10 8 17l805 1096h-743q-8 0 -14 6t-6 14v113q0 8 6 15q6 6 14 6h950q8 0 15 -6q6 -7 6 -15v-131q0 -9 -3 -19q-4 -11 -9 -18l-799 -1091h801q8 0 14 -6q6 -7 6 -15v-113z" />
    <glyph glyph-name="bracketleft" unicode="[" horiz-adv-x="512" 
d="M115 -287q-8 0 -14 6q-7 7 -7 15v1741q0 8 7 14q6 6 14 6h315q8 0 15 -6q6 -6 6 -14v-113q0 -8 -6 -14q-7 -7 -15 -7h-170v-1474h170q8 0 15 -7q6 -6 6 -14v-112q0 -8 -6 -15q-7 -6 -15 -6h-315z" />
    <glyph glyph-name="backslash" unicode="\" horiz-adv-x="668" 
d="M498 -293q-9 0 -16 6q-8 6 -10 14l-424 1742q-2 7 3 14q5 6 12 6h105q9 0 17 -6q7 -6 8 -14l425 -1742q1 -7 -4 -14q-5 -6 -12 -6h-104z" />
    <glyph glyph-name="bracketright" unicode="]" horiz-adv-x="512" 
d="M82 -287q-8 0 -14 6q-7 7 -7 15v112q0 8 7 14q6 7 14 7h168v1474h-168q-8 0 -14 7q-7 6 -7 14v113q0 8 7 14q6 6 14 6h315q8 0 15 -6q6 -6 6 -14v-1741q0 -8 -6 -15q-7 -6 -15 -6h-315z" />
    <glyph glyph-name="asciicircum" unicode="^" horiz-adv-x="1032" 
d="M857 567q-9 0 -17 6q-8 5 -12 13l-311 688l-313 -688q-4 -8 -12 -13q-8 -6 -17 -6h-108q-7 0 -11 6t-1 13l386 829q4 8 12 14q8 5 17 5h92q9 0 17 -5q8 -6 12 -14l386 -829q4 -7 0 -13t-11 -6h-109z" />
    <glyph glyph-name="underscore" unicode="_" horiz-adv-x="821" 
d="M61 -348q-8 0 -14 6t-6 14v105q0 8 6 14t14 6h697q8 0 14 -6t6 -14v-105q0 -8 -6 -14t-14 -6h-697z" />
    <glyph glyph-name="grave" unicode="`" horiz-adv-x="1024" 
d="M689 1180q-4 -7 -12 -11t-15 -1l-449 158q-7 3 -11 11t-2 16l40 110q3 8 11 12q7 3 14 -1l436 -206q7 -3 11 -11q4 -9 0 -17z" />
    <glyph glyph-name="a" unicode="a" horiz-adv-x="1114" 
d="M250 539q0 -94 18 -172t54 -133q36 -56 92 -86q55 -31 129 -31q136 0 215 101t80 300q1 189 -68 299q-69 109 -195 120q-6 0 -23 1h-26q-70 -3 -122 -34q-53 -31 -86 -83q-34 -52 -51 -124q-17 -73 -17 -158zM850 0q-8 0 -14 7q-6 6 -6 13l4 150q-54 -89 -139 -139
q-85 -51 -199 -51q-106 0 -188 43q-82 42 -137 115t-83 173q-29 99 -29 213t30 215t86 175t139 118q82 43 186 43q110 0 195 -46q85 -47 136 -134l-3 139q0 8 6 15q6 6 14 6h149q8 0 15 -6q6 -7 6 -15l-8 -497l8 -517q0 -7 -6 -13q-7 -7 -15 -7h-147z" />
    <glyph glyph-name="b" unicode="b" horiz-adv-x="1114" 
d="M1055 530q0 -114 -30 -214q-30 -101 -86 -175q-56 -75 -138 -118q-83 -43 -187 -43q-111 0 -195 47q-85 46 -136 133l3 -140q0 -7 -6 -13q-6 -7 -14 -7h-149q-8 0 -14 7q-7 6 -7 13l8 766l-7 627q-1 8 6 15q6 6 14 6h149q8 0 15 -6q6 -7 6 -15l-4 -524q53 87 139 137
q85 49 196 49q106 0 188 -42t137 -115t84 -173q28 -100 28 -215zM276 539q-1 -199 76 -309q76 -111 215 -111q76 -1 132 29q56 29 93 82q36 52 54 126t18 162q0 93 -18 171t-54 133t-91 86q-56 30 -130 30q-134 0 -213 -101q-80 -101 -82 -298z" />
    <glyph glyph-name="c" unicode="c" horiz-adv-x="1063" 
d="M1014 377q-8 -87 -43 -161t-94 -127q-59 -54 -141 -84t-183 -30q-118 0 -210 40q-92 39 -155 111q-63 71 -96 173q-33 101 -33 225t33 227q33 102 97 175q63 73 156 113t212 40q97 0 176 -26q78 -27 135 -75q56 -49 91 -117q34 -68 43 -150q1 -8 -5 -14q-6 -7 -14 -7
h-130q-9 0 -16 6q-8 6 -9 14q-21 116 -94 173q-74 57 -177 57q-154 0 -229 -109q-76 -109 -76 -305q0 -200 76 -306q75 -106 229 -107q116 0 193 68q76 68 90 196q1 9 8 15q6 5 15 5h133q7 0 13 -6q6 -7 5 -14z" />
    <glyph glyph-name="d" unicode="d" horiz-adv-x="1114" 
d="M250 539q0 -95 18 -173q18 -79 54 -134q36 -56 92 -86q55 -31 129 -31q134 0 214 102q80 101 81 301q1 199 -75 311q-77 112 -216 113q-76 1 -132 -29t-92 -83q-37 -53 -55 -128t-18 -163zM848 0q-8 0 -14 7q-6 6 -6 13l3 148q-51 -89 -136 -138q-86 -50 -199 -50
q-106 0 -188 42t-137 115t-83 173q-29 99 -29 214q0 114 30 215t86 175t139 118q82 43 186 43q110 0 194 -45q84 -46 137 -133l-3 516q-1 8 6 15q6 6 14 6h149q8 0 15 -6q6 -7 6 -15l-6 -618l6 -775q0 -8 -6 -14q-7 -6 -15 -6h-149z" />
    <glyph glyph-name="e" unicode="e" horiz-adv-x="1102" 
d="M1008 367q7 0 13 -7q5 -7 4 -14q-12 -80 -48 -148q-36 -69 -94 -118t-138 -77q-81 -28 -182 -28q-122 0 -216 41q-95 41 -158 114q-64 72 -97 173t-33 221q0 123 35 226q34 102 98 175q63 73 155 114q92 40 206 40t205 -38q90 -39 153 -110q62 -71 97 -175
q34 -104 36 -234q0 -8 -6 -14t-14 -6h-776q4 -190 84 -289q80 -100 233 -100q116 0 187 60t94 173q2 9 9 15t16 6h137zM844 633q-2 63 -21 120q-20 56 -56 99q-36 42 -89 67q-54 25 -123 25q-130 0 -205 -81q-76 -82 -96 -230h590z" />
    <glyph glyph-name="f" unicode="f" horiz-adv-x="686" 
d="M391 475l6 -455q0 -7 -6 -13q-6 -7 -14 -7h-156q-8 0 -14 7q-6 6 -6 13l8 455v436h-146q-8 0 -14 7q-6 6 -6 14v102q0 8 6 15q6 6 14 6h146v92q0 86 24 146t63 97t89 54q50 16 100 16q35 0 72 -4q36 -4 64 -10q8 -1 14 -8q6 -8 6 -16v-101q0 -7 -6 -12q-7 -5 -14 -3
q-22 5 -45 8q-24 3 -50 3q-63 0 -99 -42q-36 -43 -36 -142v-78h227q8 0 15 -6q6 -7 6 -15v-102q0 -8 -6 -14q-7 -7 -15 -7h-227v-436z" />
    <glyph glyph-name="g" unicode="g" horiz-adv-x="1110" 
d="M248 537q0 -190 77 -294q76 -105 226 -104q128 0 207 95q79 94 80 288q1 186 -68 295t-195 120q-6 0 -24 1h-25q-69 -3 -121 -33q-53 -30 -87 -82q-35 -52 -52 -125q-18 -73 -18 -161zM1014 72q1 -226 -121 -350q-123 -123 -348 -123q-91 -1 -171 17q-80 19 -140 58
q-61 40 -99 102t-46 146q-1 8 6 14q6 7 13 7h143q9 0 16 -6t8 -15q15 -96 89 -142t183 -46q133 0 212 81t79 259v119q-51 -89 -134 -138q-84 -49 -194 -49t-195 40q-85 39 -141 109q-57 70 -86 167q-29 96 -29 208t30 211q29 99 86 172q56 73 140 116q83 42 189 42
q110 0 194 -46q84 -47 136 -136l-6 145q0 8 6 15q6 6 14 6h145q8 0 15 -6q6 -7 6 -15l-4 -401z" />
    <glyph glyph-name="h" unicode="h" horiz-adv-x="1075" 
d="M800 653q-1 147 -63 213t-158 66q-101 0 -182 -79q-81 -80 -115 -220l6 -613q0 -7 -6 -13q-7 -7 -15 -7h-147q-8 0 -14 7q-7 6 -6 13l7 707l-7 686q-1 8 6 15q6 6 14 6h147q8 0 15 -6q6 -7 5 -15l-5 -526q24 40 58 76q33 35 76 61q42 25 95 40q52 15 113 15q84 0 152 -26
q67 -27 113 -80q46 -54 70 -137q24 -84 23 -197l-2 -213l6 -406q0 -7 -6 -13q-6 -7 -14 -7h-152q-8 0 -14 7q-6 6 -6 13l6 404v229z" />
    <glyph glyph-name="i" unicode="i" horiz-adv-x="406" 
d="M127 0q-8 0 -14 7q-6 6 -6 13l6 523l-6 491q0 8 6 15q6 6 14 6h152q8 0 14 -6q6 -7 6 -15l-6 -489l6 -525q0 -7 -6 -13q-6 -7 -14 -7h-152zM129 1180q-8 0 -14 6t-6 14v164q0 8 6 14t14 6h150q8 0 14 -6t6 -14v-164q0 -8 -6 -14t-14 -6h-150z" />
    <glyph glyph-name="j" unicode="j" horiz-adv-x="406" 
d="M127 -348q-8 0 -14 6t-6 14l6 668l-6 694q0 8 6 15q6 6 14 6h152q8 0 14 -6q6 -7 6 -15l-6 -694l6 -668q0 -8 -6 -14t-14 -6h-152zM129 1180q-8 0 -14 6t-6 14v164q0 8 6 14t14 6h150q8 0 14 -6t6 -14v-164q0 -8 -6 -14t-14 -6h-150z" />
    <glyph glyph-name="k" unicode="k" horiz-adv-x="956" 
d="M637 170l-223 367l-133 -148l3 -369q1 -7 -5 -13q-7 -7 -15 -7h-147q-8 0 -14 7q-7 6 -7 13l8 691l-8 702q0 8 7 15q6 6 14 6h147q8 0 15 -6q6 -7 5 -15l-5 -698v-115l399 440q7 7 16 11t19 4h172q6 0 8 -5q2 -6 -2 -10l-346 -370l391 -652q3 -6 0 -12t-10 -6h-176
q-10 0 -18 5q-9 5 -13 13z" />
    <glyph glyph-name="l" unicode="l" horiz-adv-x="403" 
d="M127 0q-8 0 -14 7q-6 6 -6 13l8 705l-8 688q0 8 6 15q6 6 14 6h147q8 0 15 -6q6 -7 6 -15l-8 -686l8 -707q0 -7 -6 -13q-7 -7 -15 -7h-147z" />
    <glyph glyph-name="m" unicode="m" horiz-adv-x="1661" 
d="M286 412l6 -392q0 -7 -6 -13q-7 -7 -15 -7h-153q-8 0 -14 7q-7 6 -6 13l7 392l-6 622q0 8 7 15q6 6 14 6h143q8 0 14 -6q6 -7 6 -15l-3 -157q24 41 56 78t72 65q39 27 89 43q49 16 108 16q112 0 190 -54t113 -167q55 107 139 164q83 57 193 57q154 0 242 -102t88 -315
v-250l4 -392q0 -7 -6 -13q-7 -7 -15 -7h-151q-8 0 -14 7q-7 6 -6 13l5 392v241q0 147 -55 212t-147 65q-84 0 -151 -72q-67 -73 -101 -203v-243l6 -392q0 -7 -6 -13q-7 -7 -14 -7h-152q-8 0 -14 7q-6 6 -6 13l6 392v241q0 147 -55 212q-56 65 -148 65t-162 -84
q-71 -85 -102 -236v-198z" />
    <glyph glyph-name="n" unicode="n" horiz-adv-x="1075" 
d="M120 0q-8 0 -14 7q-7 6 -6 13l7 461l-5 553q-1 8 6 15q6 6 14 6h141q8 0 14 -6q6 -7 6 -15l-3 -157q24 40 58 77q34 36 78 64q43 28 97 45q54 16 117 16q81 0 147 -27q65 -27 111 -79q45 -52 70 -130q24 -79 24 -181v-211l6 -431q0 -7 -6 -13q-6 -7 -14 -7h-150
q-8 0 -14 7q-6 6 -6 13l4 431v202q0 143 -62 210t-161 67q-103 0 -181 -82q-79 -82 -110 -238v-159l4 -431q0 -7 -6 -13q-7 -7 -15 -7h-151z" />
    <glyph glyph-name="o" unicode="o" horiz-adv-x="1120" 
d="M1061 528q0 -124 -33 -226t-96 -174q-63 -73 -157 -113t-214 -40q-119 0 -212 40q-94 39 -157 111q-64 71 -97 173q-34 101 -34 225q0 125 34 228q33 102 97 175q63 72 157 112q93 40 212 40q120 0 214 -39q94 -40 157 -112t96 -174t33 -226zM252 524q0 -197 78 -304
q77 -107 231 -107t231 107q76 107 76 304t-77 308q-77 110 -230 110q-156 -1 -232 -111q-77 -110 -77 -307z" />
    <glyph glyph-name="p" unicode="p" horiz-adv-x="1114" 
d="M276 537q-1 -199 76 -309q76 -111 215 -111q76 0 133 30q56 29 93 82q36 52 55 126q18 73 18 161q0 94 -18 172t-54 134q-36 55 -92 86q-56 30 -131 30q-134 0 -213 -102q-80 -102 -82 -299zM1055 530q0 -114 -30 -214q-30 -101 -86 -175q-56 -75 -138 -118
q-83 -43 -187 -43q-108 0 -192 45t-137 131l4 -484q0 -8 -6 -14q-7 -6 -15 -6h-151q-8 0 -14 6q-7 6 -7 14l8 787l-7 575q-1 8 6 15q6 6 14 6h149q8 0 14 -6q6 -7 6 -15l-3 -147q51 89 137 139q85 49 198 49q106 0 188 -42t137 -115t84 -173q28 -100 28 -215z" />
    <glyph glyph-name="q" unicode="q" horiz-adv-x="1114" 
d="M1018 -328q0 -8 -6 -14q-7 -6 -15 -6h-149q-8 0 -14 6q-7 6 -7 14l2 490q-53 -84 -137 -132q-85 -48 -196 -48q-106 0 -188 42t-137 115q-55 72 -83 172q-29 99 -29 213q0 113 30 214q30 100 86 174t139 118q82 43 186 43q111 0 196 -46q84 -47 135 -134l-3 141q0 8 6 15
q6 6 14 6h149q8 0 15 -6q6 -7 6 -15l-8 -620zM250 537q0 -93 18 -170q18 -78 54 -132q36 -55 92 -85q55 -31 129 -31q134 0 214 100t81 297q1 199 -75 311q-77 111 -216 111q-74 0 -130 -28q-56 -29 -93 -81q-37 -53 -55 -127q-19 -74 -19 -165z" />
    <glyph glyph-name="r" unicode="r" horiz-adv-x="739" 
d="M118 0q-8 0 -14 7q-7 6 -6 13l7 519l-7 495q-1 8 6 15q6 6 14 6h147q8 0 14 -6q6 -7 6 -15l-5 -178q27 51 66 91q39 39 85 65t99 40q53 13 108 13q15 0 30 -1q15 -2 28 -4q7 -1 14 -9q6 -8 6 -16v-110q0 -9 -6 -13q-6 -5 -14 -4q-12 1 -27 2t-33 1q-66 0 -125 -20
q-60 -21 -107 -62t-78 -104q-32 -64 -42 -150l4 -555q0 -8 -6 -14q-7 -6 -15 -6h-149z" />
    <glyph glyph-name="s" unicode="s" horiz-adv-x="1026" 
d="M972 303q0 -77 -34 -138t-93 -102q-60 -42 -140 -64q-81 -22 -174 -22q-103 0 -189 23t-147 69q-62 46 -97 116q-36 69 -39 161q-1 8 6 15q6 6 13 6h140q8 0 15 -6q6 -6 6 -15q6 -124 81 -182t213 -58q116 0 189 48q72 48 72 135q0 103 -111 131q-112 28 -245 52
q-134 24 -245 81q-112 56 -112 215q0 76 31 134q30 58 85 97q54 38 132 58q77 20 170 20q90 0 168 -19q78 -20 136 -59t93 -99q35 -61 40 -142q1 -8 -5 -14q-7 -7 -14 -7h-133q-9 0 -15 6q-7 6 -8 15q-10 98 -81 145t-183 47q-109 0 -173 -41q-65 -42 -65 -129
q0 -98 112 -123q111 -25 245 -48q133 -23 245 -82q111 -59 111 -224z" />
    <glyph glyph-name="t" unicode="t" horiz-adv-x="666" 
d="M625 33q0 -9 -6 -16q-6 -8 -14 -11q-31 -9 -69 -17q-38 -7 -73 -7q-57 0 -109 16t-90 52q-39 36 -61 96q-23 59 -23 145v618h-114q-8 0 -14 7q-7 6 -7 14v104q0 8 7 15q6 6 14 6h114l-2 243q0 8 7 15q6 6 14 6h149q8 0 14 -6q6 -7 6 -15l-3 -243h239q8 0 15 -6
q6 -7 6 -15v-104q0 -8 -6 -14q-7 -7 -15 -7h-239v-614q0 -95 33 -130q33 -36 100 -36q29 0 57 4q28 3 50 9q7 1 14 -3q6 -5 6 -13v-93z" />
    <glyph glyph-name="u" unicode="u" horiz-adv-x="1075" 
d="M799 180q-25 -40 -59 -77q-35 -38 -79 -66t-98 -45t-117 -17q-81 0 -146 27q-66 27 -111 80q-46 52 -70 131q-25 79 -25 182v209l-4 430q0 8 7 15q6 6 14 6h147q8 0 14 -6q6 -7 6 -15l-4 -430v-203q0 -142 63 -209t161 -67q104 0 182 82t108 237v160l-1 430q-1 8 6 15
q6 6 14 6h149q8 0 15 -6q6 -7 6 -15l-6 -461l4 -553q0 -8 -6 -14q-7 -6 -15 -6h-141q-8 0 -14 7q-6 6 -6 13z" />
    <glyph glyph-name="v" unicode="v" horiz-adv-x="1004" 
d="M625 15q-3 -8 -10 -13q-8 -6 -17 -6h-186q-9 0 -17 6q-8 5 -11 13l-373 1020q-2 7 2 14q4 6 12 6h161q9 0 17 -6t10 -14l297 -890l305 890q2 8 10 14t17 6h137q7 0 12 -6q4 -7 1 -14z" />
    <glyph glyph-name="w" unicode="w" horiz-adv-x="1446" 
d="M965 0q-9 0 -16 6q-8 6 -10 14l-222 881l-200 -881q-2 -8 -9 -14q-8 -6 -16 -6h-175q-8 0 -15 6q-8 5 -10 14l-272 1015q-2 7 3 14q5 6 12 6h147q9 0 17 -6q7 -6 8 -14l205 -879l202 879q2 8 9 14t16 6h182q9 0 17 -6q7 -6 9 -14l210 -867l196 867q2 8 9 14t16 6h131
q7 0 12 -6q5 -7 3 -14l-256 -1015q-2 -8 -9 -14q-8 -6 -16 -6h-178z" />
    <glyph glyph-name="x" unicode="x" horiz-adv-x="961" 
d="M762 0q-9 0 -18 5t-13 13l-258 424l-260 -425q-4 -7 -12 -12q-9 -5 -19 -5h-155q-7 0 -10 6q-4 6 0 11l341 538l-312 483q-4 5 -1 11t10 6h170q10 0 19 -5q8 -5 12 -13l236 -384l227 384q4 8 13 13q8 5 18 5h149q7 0 11 -6q3 -6 -1 -12l-303 -484l337 -536q4 -5 1 -11
t-10 -6h-172z" />
    <glyph glyph-name="y" unicode="y" horiz-adv-x="973" 
d="M489 -329q-3 -8 -10 -14q-8 -5 -17 -5h-135q-8 0 -12 6q-5 6 -2 13l112 329l-412 1036q-3 7 1 13t12 6h168q8 0 16 -5q8 -6 11 -14l298 -794l254 793q3 8 11 14q7 6 16 6h149q7 0 12 -6q4 -7 2 -14z" />
    <glyph glyph-name="z" unicode="z" horiz-adv-x="954" 
d="M893 20q0 -8 -6 -14q-7 -6 -15 -6h-788q-8 0 -14 6q-7 6 -7 14v105q0 9 4 20q3 10 9 17l563 747h-512q-8 0 -14 7q-7 6 -7 14v104q0 8 7 15q6 6 14 6h721q8 0 14 -6q6 -7 6 -15v-104q0 -10 -3 -20q-4 -10 -9 -17l-571 -748h587q8 0 15 -6q6 -6 6 -14v-105z" />
    <glyph glyph-name="braceleft" unicode="{" horiz-adv-x="522" 
d="M467 -266q0 -8 -6 -15q-7 -6 -15 -6h-57q-91 0 -151 30t-88 84q-29 54 -28 130q0 77 28 170l71 252q9 30 14 57q4 27 -2 48q-6 20 -25 32t-56 12h-33q-8 0 -14 7q-7 6 -7 14v110q0 8 7 15q6 6 14 6h33q37 0 56 12t25 33q6 20 2 48q-5 27 -14 56l-80 279q-27 90 -21 162
q5 72 39 122q33 49 92 76t138 27h57q8 0 15 -6q6 -6 6 -14v-113q0 -8 -6 -14q-7 -7 -15 -7h-55q-76 0 -99 -53t15 -180l80 -279q23 -75 3 -136q-21 -61 -103 -89q40 -15 65 -39t36 -53q11 -30 10 -64q-1 -35 -11 -69l-72 -254q-44 -147 -22 -203q22 -55 98 -55h55q8 0 15 -7
q6 -6 6 -14v-112z" />
    <glyph glyph-name="bar" unicode="|" horiz-adv-x="283" 
d="M90 -287q-8 0 -14 6q-6 7 -6 15v1741q0 8 6 14t14 6h103q8 0 14 -6t6 -14v-1741q0 -8 -6 -15q-6 -6 -14 -6h-103z" />
    <glyph glyph-name="braceright" unicode="}" horiz-adv-x="522" 
d="M385 127q28 -93 28 -170q0 -76 -29 -130q-30 -54 -89 -84q-60 -30 -150 -30h-57q-8 0 -14 6q-6 7 -6 15v112q0 8 6 14q6 7 14 7h55q75 0 97 55q22 56 -21 203l-72 254q-10 34 -11 69q-2 34 9 64q11 29 37 53q25 24 66 39q-83 28 -103 89t2 136l80 279q39 127 16 180
t-100 53h-55q-8 0 -14 7q-6 6 -6 14v113q0 8 6 14t14 6h57q79 0 138 -27t93 -76q33 -50 39 -122t-22 -162l-80 -279q-9 -29 -13 -56q-5 -28 1 -48q6 -21 25 -33t57 -12h33q8 0 14 -6q6 -7 6 -15v-110q0 -8 -6 -14q-6 -7 -14 -7h-33q-38 0 -57 -12t-25 -32q-6 -21 -1 -48
q4 -27 13 -57z" />
    <glyph glyph-name="asciitilde" unicode="~" horiz-adv-x="1036" 
d="M79 594q-8 0 -14 7q-7 6 -6 13q1 87 18 163t50 131q32 55 82 87q50 31 116 31q80 0 134 -46q53 -46 94 -101q40 -56 76 -102t81 -46q35 0 60 20q25 19 41 53q15 34 23 82q8 47 9 103q0 8 6 15q6 6 14 6h97q7 0 14 -6q6 -7 6 -15q-2 -88 -18 -162q-17 -75 -49 -127
q-33 -53 -82 -82q-49 -30 -115 -30q-79 0 -131 46t-92 101q-40 54 -78 100t-88 46q-34 0 -58 -20t-39 -55q-16 -35 -23 -84q-8 -50 -9 -108q0 -8 -6 -14q-7 -6 -15 -6h-98z" />
    <glyph glyph-name="exclamdown" unicode="&#xa1;" horiz-adv-x="414" 
d="M287 1069q8 0 14 -6t6 -14v-175q0 -8 -6 -14t-14 -6h-160q-8 0 -14 6q-7 6 -7 14v175q0 8 7 14q6 6 14 6h160zM279 672q8 0 14 -6q6 -7 6 -15v-995q0 -8 -6 -15q-6 -6 -14 -6h-146q-8 0 -14 6q-6 7 -6 15v995q0 8 6 15q6 6 14 6h146z" />
    <glyph glyph-name="cent" unicode="&#xa2;" horiz-adv-x="1077" 
d="M662 20q0 -8 -6 -14q-7 -6 -15 -6h-145q-8 0 -14 6q-7 6 -7 14v167q-96 15 -170 60q-75 45 -125 115q-51 69 -77 163q-27 93 -27 204q0 110 27 205q26 94 77 165q50 70 125 116q74 46 170 61v147q0 8 7 15q6 6 14 6h145q8 0 15 -6q6 -7 6 -15v-145q78 -11 141 -42
q62 -31 107 -77q45 -47 73 -109q27 -62 35 -135q1 -7 -5 -13q-6 -7 -13 -7h-131q-9 0 -16 6q-7 5 -8 14q-22 115 -95 173q-74 57 -177 57q-154 0 -229 -109q-76 -109 -76 -305q0 -200 76 -306q75 -107 229 -108q116 0 193 69q76 68 90 196q1 8 8 14q6 6 15 6h133q7 0 14 -6
q6 -7 5 -14q-7 -77 -35 -144q-29 -67 -76 -118t-112 -85q-65 -35 -146 -48v-167z" />
    <glyph glyph-name="sterling" unicode="&#xa3;" horiz-adv-x="1171" 
d="M1104 455q8 0 14 -6q6 -7 6 -15q-4 -243 -121 -351t-325 -101l-621 17q-8 1 -14 7t-6 14v103q0 9 6 17q5 7 13 10l40 14q96 32 134 93q37 60 38 132q0 58 -14 126q-15 68 -35 138h-188q-8 0 -14 7q-7 6 -7 14v102q0 8 7 15q6 6 14 6h147q-16 63 -28 125q-13 61 -13 118
q0 91 33 168q32 77 91 133q59 55 144 86t189 31q203 0 327 -112t150 -324q1 -7 -5 -14t-13 -7h-145q-9 0 -15 6q-7 6 -8 15q-8 62 -30 114q-23 51 -59 88q-37 36 -88 56t-116 20q-62 0 -111 -20q-49 -21 -82 -56q-34 -36 -51 -83q-18 -48 -18 -101q0 -57 12 -118
q12 -62 29 -125h323q8 0 15 -6q6 -7 6 -15v-102q0 -8 -6 -14q-7 -7 -15 -7h-282q15 -61 27 -121t12 -118q0 -39 -11 -78q-12 -39 -35 -73q-24 -35 -60 -63t-83 -46l404 -15q76 -3 127 16q51 18 82 56q31 37 45 94q13 56 14 129q0 8 6 15q6 6 15 6h149z" />
    <glyph glyph-name="currency" unicode="&#xa4;" horiz-adv-x="1065" 
d="M311 702q0 -58 18 -107q17 -49 47 -84t72 -55t91 -20q47 0 89 20q41 20 72 55q30 35 48 84t18 107q0 60 -18 110t-48 85q-31 34 -72 53q-42 19 -89 19q-49 0 -91 -19t-72 -53q-30 -35 -47 -85q-18 -50 -18 -110zM932 214q-6 -6 -14 -6q-9 0 -15 6l-160 169
q-43 -32 -95 -50q-53 -18 -109 -18q-57 0 -109 18q-53 17 -96 48q-48 -51 -94 -98q-46 -48 -68 -70q-5 -5 -14 -5t-14 6l-64 68q-6 6 -6 15t6 14q22 22 69 70q47 47 93 98q-31 48 -48 104q-18 56 -18 119q0 64 18 122t50 106l-164 173q-6 6 -6 15t6 15l64 67q5 5 14 5
q8 0 14 -5l164 -176q43 31 95 49q51 17 108 17q56 0 109 -18q52 -18 95 -50q49 51 95 99q45 47 67 69q6 5 15 5q8 0 14 -6l64 -66q5 -6 5 -15t-6 -15q-22 -22 -67 -69t-92 -98q31 -48 48 -104q17 -57 17 -120t-17 -120t-48 -103l158 -167q5 -6 5 -15t-5 -15z" />
    <glyph glyph-name="yen" unicode="&#xa5;" horiz-adv-x="1180" 
d="M1051 229q0 -8 -6 -14q-7 -6 -15 -6h-346l2 -189q0 -7 -6 -13q-6 -7 -14 -7h-158q-8 0 -14 7q-6 6 -6 13l4 189h-342q-8 0 -14 6q-7 6 -7 14v101q0 8 7 14q6 6 14 6h344l2 137h-346q-8 0 -14 7q-7 6 -7 14v100q0 8 7 15q6 6 14 6h327l-450 787q-4 6 0 12q3 6 10 6h176
q9 0 18 -5q8 -6 12 -14l355 -676l357 676q4 8 13 14q8 5 17 5h158q7 0 11 -6q3 -6 -1 -12l-453 -787h330q8 0 15 -6q6 -7 6 -15v-100q0 -8 -6 -14q-7 -7 -15 -7h-350l2 -137h348q8 0 15 -6q6 -6 6 -14v-101z" />
    <glyph glyph-name="brokenbar" unicode="&#xa6;" horiz-adv-x="283" 
d="M90 737q-8 0 -14 7q-6 6 -6 14v717q0 8 6 14t14 6h103q8 0 14 -6t6 -14v-717q0 -8 -6 -14q-6 -7 -14 -7h-103zM90 -287q-8 0 -14 6q-6 7 -6 15v717q0 8 6 14t14 6h103q8 0 14 -6t6 -14v-717q0 -8 -6 -15q-6 -6 -14 -6h-103z" />
    <glyph glyph-name="section" unicode="&#xa7;" horiz-adv-x="1192" 
d="M553 743q-124 -15 -198 -64q-74 -50 -74 -147q0 -53 32 -88q31 -35 82 -59q51 -25 119 -42q67 -17 139 -34q128 14 206 64q77 50 77 131q0 55 -32 93q-33 37 -86 64q-53 26 -122 45t-143 37zM1114 -68q0 -85 -38 -152q-39 -67 -105 -113q-67 -45 -158 -69
q-92 -24 -197 -24q-115 0 -212 23q-98 24 -168 70q-71 47 -112 118q-42 72 -46 166q0 7 6 13q6 7 14 7h139q9 0 15 -6t7 -14q7 -127 99 -188q91 -60 258 -60q72 0 132 13q59 13 101 37q41 24 64 60t23 81q0 121 -130 168q-131 46 -287 87t-286 113q-131 71 -131 242
q0 111 67 188q67 76 181 111q-52 19 -97 45q-46 25 -79 60q-33 34 -52 80q-20 45 -20 104q0 85 35 152q34 66 97 110q62 44 151 67q88 23 195 23q104 0 193 -20q89 -21 155 -63t106 -106t46 -151q1 -8 -5 -14q-6 -7 -14 -7h-132q-9 0 -15 6q-7 6 -8 15q-12 107 -100 160
t-228 53q-135 0 -216 -46q-81 -47 -81 -145q0 -109 131 -150q130 -42 286 -81q155 -39 286 -111q130 -72 130 -241q0 -107 -70 -181q-71 -75 -186 -112q53 -21 100 -48q47 -28 82 -65q34 -38 54 -88q20 -51 20 -117z" />
    <glyph glyph-name="dieresis" unicode="&#xa8;" horiz-adv-x="1024" 
d="M287 1202q-8 0 -14 7q-7 6 -7 14v163q0 8 7 15q6 6 14 6h125q8 0 14 -6q6 -7 6 -15v-163q0 -8 -6 -14q-6 -7 -14 -7h-125zM612 1202q-8 0 -14 7q-6 6 -6 14v163q0 8 6 15q6 6 14 6h125q8 0 15 -6q6 -7 6 -15v-163q0 -8 -6 -14q-7 -7 -15 -7h-125z" />
    <glyph glyph-name="copyright" unicode="&#xa9;" horiz-adv-x="1509" 
d="M1440 715q0 -168 -49 -305q-50 -138 -139 -234q-90 -97 -217 -150t-281 -53t-280 54q-127 53 -216 150q-90 96 -139 234q-49 137 -49 304q0 171 49 310q49 138 138 235q89 96 217 148q127 52 282 52q153 0 280 -52t216 -148t139 -234q49 -139 49 -311zM170 715
q0 -151 40 -272q40 -122 115 -205q75 -84 185 -129q109 -46 246 -46t246 45q108 45 183 129q74 84 114 206q40 121 40 272q0 150 -40 272t-114 207q-75 84 -184 130q-110 46 -247 46q-138 0 -247 -45q-109 -46 -183 -130q-75 -84 -114 -206q-40 -122 -40 -274zM1154 576
q-27 -169 -129 -249q-103 -81 -257 -81q-100 0 -179 33q-80 33 -134 94q-55 61 -84 149t-29 197t30 197q29 88 84 149t134 94t178 33q68 0 130 -16q61 -17 111 -53q49 -37 85 -96q36 -60 53 -145q1 -7 -4 -13q-5 -7 -12 -7h-88q-9 0 -16 6q-7 5 -9 14q-22 103 -89 152
q-68 49 -163 49q-69 0 -123 -26q-55 -26 -92 -73t-56 -115q-20 -68 -20 -150q0 -181 78 -274q77 -93 211 -93q108 0 177 58q68 58 84 166q1 8 8 14t16 6h88q7 0 13 -6q5 -7 4 -14z" />
    <glyph glyph-name="ordfeminine" unicode="&#xaa;" horiz-adv-x="887" 
d="M229 1055q0 -66 13 -120q13 -55 39 -94t66 -60q40 -22 93 -21q96 0 154 72q58 71 59 215q0 128 -47 204t-133 87q-5 0 -23 1h-26q-50 -3 -86 -25q-37 -23 -61 -60t-36 -88t-12 -111zM666 664q-8 0 -14 6q-7 6 -6 14l1 78q-43 -55 -107 -86t-147 -31q-81 0 -143 32
q-63 31 -105 86q-42 54 -64 129t-22 161q0 82 23 156q22 73 65 128q43 54 107 86q63 31 143 31q81 0 144 -27q63 -28 106 -79l-3 67q0 8 6 15q6 6 14 6h124q8 0 15 -6q6 -7 6 -15l-2 -352l2 -379q0 -8 -6 -14q-7 -6 -15 -6h-122z" />
    <glyph glyph-name="guillemotleft" unicode="&#xab;" horiz-adv-x="895" 
d="M329 199q-10 0 -19 5q-9 4 -14 11l-244 342q-5 7 -5 17q0 9 5 16l244 336q5 7 14 12q9 4 19 4h118q7 0 10 -5q3 -6 -1 -11l-258 -353l258 -358q4 -5 1 -10q-3 -6 -10 -6h-118zM703 199q-9 0 -18 5q-9 4 -14 11l-246 342q-5 7 -5 17q0 9 5 16l246 336q5 7 14 12q9 4 18 4
h117q7 0 10 -5q3 -6 -1 -11l-257 -353l257 -358q4 -5 1 -10q-3 -6 -10 -6h-117z" />
    <glyph glyph-name="logicalnot" unicode="&#xac;" horiz-adv-x="1055" 
d="M989 223q0 -8 -6 -14t-14 -6h-109q-8 0 -14 6t-6 14v406h-752q-8 0 -14 6t-6 14v113q0 8 6 14t14 6h881q8 0 14 -6t6 -14v-539z" />
    <glyph glyph-name="registered" unicode="&#xae;" horiz-adv-x="752" 
d="M698 1116q0 -76 -23 -139q-23 -64 -65 -109t-101 -69q-60 -25 -132 -25t-131 25q-60 24 -102 69t-65 109q-24 63 -24 139q0 79 23 143q23 63 65 107t102 68q59 24 132 24q72 0 132 -24q59 -24 101 -68t65 -107q23 -64 23 -143zM115 1116q0 -133 70 -209t192 -76t191 76
t69 209q0 131 -68 209t-192 78t-193 -77t-69 -210zM465 1196q0 34 -22 51q-23 17 -66 17h-78l-2 -131h82q38 0 62 15q24 14 24 48zM422 985l-62 90h-63l2 -137q0 -8 -6 -14q-7 -6 -14 -6h-33q-8 0 -14 6q-7 6 -7 14v360q0 8 7 15q6 6 14 6h129q73 0 118 -30q44 -31 44 -91
q0 -44 -25 -73t-70 -42l94 -148q4 -6 1 -11q-4 -6 -11 -6h-43q-9 0 -17 5q-9 5 -14 12z" />
    <glyph glyph-name="macron" unicode="&#xaf;" horiz-adv-x="1024" 
d="M231 1217q-8 0 -14 6t-6 14v98q0 8 6 15q6 6 14 6h560q8 0 14 -6q6 -7 6 -15v-98q0 -8 -6 -14t-14 -6h-560z" />
    <glyph glyph-name="degree" unicode="&#xb0;" horiz-adv-x="713" 
d="M664 1157q0 -64 -24 -119q-24 -56 -65 -96t-97 -63q-57 -23 -122 -23q-66 0 -122 23q-57 23 -97 63q-41 40 -64 96q-24 55 -24 119q0 63 24 118q23 55 64 95q40 40 97 63q56 23 122 23t123 -23q56 -23 97 -63t65 -95q23 -55 23 -118zM180 1157q0 -84 49 -134t127 -50
q75 0 126 50q50 50 50 134q0 86 -50 134q-51 48 -126 48q-78 0 -127 -48t-49 -134z" />
    <glyph glyph-name="plusminus" unicode="&#xb1;" horiz-adv-x="1040" 
d="M981 694q0 -8 -6 -14t-14 -6h-365v-406q0 -8 -6 -14q-7 -6 -15 -6h-108q-8 0 -14 6q-7 6 -7 14v406h-366q-8 0 -14 6q-7 6 -7 14v113q0 8 7 14q6 6 14 6h366v408q0 8 7 14q6 6 14 6h108q8 0 15 -6q6 -6 6 -14v-408h365q8 0 14 -6t6 -14v-113zM80 0q-8 0 -14 6q-7 6 -7 14
v113q0 8 7 14q6 6 14 6h881q8 0 14 -6t6 -14v-113q0 -8 -6 -14t-14 -6h-881z" />
    <glyph glyph-name="two.sups" unicode="&#xb2;" horiz-adv-x="621" 
d="M80 678q-8 0 -14 6q-7 6 -7 14v82q0 112 60 171q59 58 131 97q71 38 131 73q59 35 59 100q1 56 -30 91q-32 35 -95 34q-58 0 -93 -38t-39 -110q-1 -9 -7 -14q-6 -6 -15 -6h-79q-8 0 -14 7q-7 6 -6 13q4 119 68 184q63 65 185 66q119 0 182 -60q63 -61 66 -165
q0 -103 -59 -158q-60 -55 -130 -92q-71 -37 -130 -72q-60 -35 -60 -98v-21h355q8 0 14 -6t6 -14v-64q0 -8 -6 -14t-14 -6h-459z" />
    <glyph glyph-name="three.sups" unicode="&#xb3;" horiz-adv-x="641" 
d="M589 907q0 -56 -21 -100q-22 -45 -59 -75q-37 -31 -87 -47q-51 -17 -108 -17q-116 0 -182 58t-76 169q-1 7 5 14q6 6 13 6h88q9 0 15 -5q6 -6 7 -15q5 -64 38 -99t96 -34q63 0 99 39q36 38 37 102q0 67 -36 99q-37 32 -112 32h-39q-8 0 -14 7q-6 6 -6 14v49q0 8 6 14
t14 6h39q67 0 100 31t33 82q0 52 -32 83q-33 30 -82 30q-58 0 -90 -29q-33 -30 -40 -90q-1 -9 -7 -15q-7 -6 -16 -6h-86q-7 0 -13 7t-5 14q10 103 80 159q69 56 183 56q52 0 96 -14q43 -14 75 -39q31 -26 49 -62q17 -36 17 -80q0 -67 -35 -106q-35 -40 -92 -59
q71 -16 110 -62q38 -47 38 -117z" />
    <glyph glyph-name="acute" unicode="&#xb4;" horiz-adv-x="1024" 
d="M348 1168q-7 -3 -15 1q-9 4 -12 11l-25 59q-4 7 0 15q3 8 10 12l438 208q7 4 15 0t11 -11l37 -110q3 -8 -1 -16t-11 -11z" />
    <glyph glyph-name="uni00B5" unicode="&#xb5;" horiz-adv-x="1073" 
d="M280 -328q1 -8 -5 -14q-7 -6 -15 -6h-149q-8 0 -14 6q-7 6 -7 14l4 787l-4 575q0 8 7 15q6 6 14 6h170q8 0 14 -6q6 -7 6 -15l-4 -430v-203q0 -142 63 -209q62 -67 160 -67q104 0 182 82t109 237v160l-2 430q0 8 6 15q6 6 14 6h150q8 0 14 -6q6 -7 6 -15l-6 -461l4 -553
q0 -8 -6 -14t-14 -6h-141q-8 0 -14 7q-7 6 -6 13l5 160q-24 -40 -58 -77q-35 -38 -79 -66t-98 -45t-117 -17q-55 0 -103 12q-48 13 -88 38z" />
    <glyph glyph-name="paragraph" unicode="&#xb6;" horiz-adv-x="1321" 
d="M623 -377q-8 0 -14 6q-7 7 -7 15l6 655l2 248h-35q-114 0 -207 29q-94 28 -160 84t-102 141q-36 84 -36 196q0 108 36 190q35 82 101 137q65 54 160 82t213 28h620q8 0 15 -6q6 -7 5 -15l-10 -942l10 -827q0 -8 -6 -15q-6 -6 -14 -6h-158q-8 0 -14 6q-6 7 -6 15l6 659
l2 244h-235v-244l6 -659q0 -8 -6 -15q-7 -6 -15 -6h-157z" />
    <glyph glyph-name="periodcentered" unicode="&#xb7;" horiz-adv-x="342" 
d="M90 508q-8 0 -14 6t-6 14v175q0 8 6 14t14 6h166q8 0 14 -6t6 -14v-175q0 -8 -6 -14t-14 -6h-166z" />
    <glyph glyph-name="cedilla" unicode="&#xb8;" horiz-adv-x="1024" 
d="M507 -334q-2 -8 -9 -13q-8 -4 -16 -3l-134 30q-8 1 -12 9t-1 15l122 310q4 7 12 12q8 4 16 3l87 -15q7 -1 12 -8q5 -8 3 -16z" />
    <glyph glyph-name="one.sups" unicode="&#xb9;" horiz-adv-x="463" 
d="M236 678q-8 0 -14 6q-7 6 -7 14l6 361l-2 221q-28 -28 -66 -47q-38 -20 -78 -34q-7 -3 -13 2q-7 4 -7 11v67q0 10 6 18q5 7 14 10q44 18 80 46q35 27 58 63q5 9 14 14q8 4 18 4h91q8 0 14 -6q6 -7 6 -15l-8 -391l8 -324q0 -8 -6 -14t-14 -6h-100z" />
    <glyph glyph-name="ordmasculine" unicode="&#xba;" horiz-adv-x="872" 
d="M813 1051q0 -92 -24 -168q-25 -76 -72 -129q-48 -54 -118 -83q-71 -30 -161 -30q-91 0 -162 29t-119 82t-73 128t-25 167t25 168t73 130t119 84q71 29 162 29q90 0 161 -29q70 -30 118 -83q47 -53 72 -128q24 -76 24 -167zM229 1047q0 -140 53 -215q52 -76 156 -76
q102 0 154 76q51 75 51 215t-51 218q-52 78 -156 78q-104 -1 -155 -78q-52 -78 -52 -218z" />
    <glyph glyph-name="guillemotright" unicode="&#xbb;" horiz-adv-x="895" 
d="M74 199q-7 0 -10 6q-3 5 1 10l259 358l-259 353q-4 5 -1 11q3 5 10 5h119q9 0 18 -4q9 -5 14 -12l244 -336q5 -7 5 -16q0 -10 -5 -17l-244 -342q-5 -7 -14 -11q-9 -5 -18 -5h-119zM449 199q-7 0 -10 6q-3 5 1 10l256 358l-256 353q-4 5 -1 11q3 5 10 5h116q10 0 19 -4
q9 -5 14 -12l246 -336q5 -7 5 -16q0 -10 -5 -17l-246 -342q-5 -7 -14 -11q-9 -5 -19 -5h-116z" />
    <glyph glyph-name="onequarter" unicode="&#xbc;" horiz-adv-x="1397" 
d="M236 678q-8 0 -14 6q-7 6 -7 14l6 361l-2 221q-28 -28 -66 -47q-38 -20 -78 -34q-7 -3 -13 2q-7 4 -7 11v67q0 10 6 18q5 7 14 10q44 18 80 46q35 27 58 63q5 9 14 14q8 4 18 4h91q8 0 14 -6q6 -7 6 -15l-8 -391l8 -324q0 -8 -6 -14t-14 -6h-100zM144 0q-7 0 -10 6t1 11
l869 1399q4 8 13 13t18 5h98q7 0 11 -6q3 -6 -1 -12l-869 -1399q-5 -7 -13 -12q-9 -5 -18 -5h-99zM1366 205q0 -8 -6 -14q-6 -7 -14 -7h-60v-166q0 -8 -6 -14t-14 -6h-92q-8 0 -14 6q-7 6 -7 14v166h-321q-8 0 -14 7q-7 6 -7 14v78q0 9 4 20q3 10 7 17l275 418q5 8 14 13
q8 5 18 5h137q8 0 14 -6q6 -7 6 -15v-446h60q8 0 14 -6q6 -7 6 -15v-63zM1153 512l4 145l-235 -368h231v223z" />
    <glyph glyph-name="onehalf" unicode="&#xbd;" horiz-adv-x="1415" 
d="M236 678q-8 0 -14 6q-7 6 -7 14l6 361l-2 221q-28 -28 -66 -47q-38 -20 -78 -34q-7 -3 -13 2q-7 4 -7 11v67q0 10 6 18q5 7 14 10q44 18 80 46q35 27 58 63q5 9 14 14q8 4 18 4h91q8 0 14 -6q6 -7 6 -15l-8 -391l8 -324q0 -8 -6 -14t-14 -6h-100zM144 0q-7 0 -10 6t1 11
l869 1399q4 8 13 13t18 5h98q7 0 11 -6q3 -6 -1 -12l-869 -1399q-5 -7 -13 -12q-9 -5 -18 -5h-99zM891 0q-8 0 -14 6q-7 6 -7 14v82q0 112 60 171q59 58 131 97q71 38 131 73q59 35 59 100q1 56 -30 91q-32 35 -95 34q-58 0 -93 -38t-39 -110q-1 -9 -7 -14q-6 -6 -15 -6h-79
q-8 0 -14 7q-7 6 -6 13q4 119 68 184q63 65 185 66q119 0 182 -60q63 -61 66 -165q0 -103 -59 -158q-60 -55 -130 -92q-71 -37 -130 -72q-60 -35 -60 -98v-21h355q8 0 14 -6t6 -14v-64q0 -8 -6 -14t-14 -6h-459z" />
    <glyph glyph-name="threequarters" unicode="&#xbe;" horiz-adv-x="1554" 
d="M589 907q0 -56 -21 -100q-22 -45 -59 -75q-37 -31 -87 -47q-51 -17 -108 -17q-116 0 -182 58t-76 169q-1 7 5 14q6 6 13 6h88q9 0 15 -5q6 -6 7 -15q5 -64 38 -99t96 -34q63 0 99 39q36 38 37 102q0 67 -36 99q-37 32 -112 32h-39q-8 0 -14 7q-6 6 -6 14v49q0 8 6 14
t14 6h39q67 0 100 31t33 82q0 52 -32 83q-33 30 -82 30q-58 0 -90 -29q-33 -30 -40 -90q-1 -9 -7 -15q-7 -6 -16 -6h-86q-7 0 -13 7t-5 14q10 103 80 159q69 56 183 56q52 0 96 -14q43 -14 75 -39q31 -26 49 -62q17 -36 17 -80q0 -67 -35 -106q-35 -40 -92 -59
q71 -16 110 -62q38 -47 38 -117zM302 0q-7 0 -10 6t1 11l869 1399q4 8 13 13t18 5h98q7 0 11 -6q3 -6 -1 -12l-869 -1399q-5 -7 -13 -12q-9 -5 -18 -5h-99zM1526 205q0 -8 -6 -14q-6 -7 -14 -7h-60v-166q0 -8 -6 -14t-14 -6h-92q-8 0 -14 6q-7 6 -7 14v166h-321q-8 0 -14 7
q-7 6 -7 14v78q0 9 4 20q3 10 7 17l275 418q5 8 14 13q8 5 18 5h137q8 0 14 -6q6 -7 6 -15v-446h60q8 0 14 -6q6 -7 6 -15v-63zM1313 512l4 145l-235 -368h231v223z" />
    <glyph glyph-name="questiondown" unicode="&#xbf;" horiz-adv-x="997" 
d="M588 1055q8 0 14 -6q6 -7 6 -15v-174q0 -8 -6 -14t-14 -6h-162q-8 0 -14 6t-6 14v174q0 8 6 15q6 6 14 6h162zM580 657q8 0 14 -6t6 -14q-4 -147 -61 -236q-57 -90 -122 -155q-66 -65 -120 -125q-55 -60 -55 -148q0 -55 19 -98q19 -42 53 -71t83 -44q48 -15 105 -16
q140 -1 208 70q67 72 74 215q0 8 7 14q6 6 14 6h137q8 0 14 -6q6 -7 6 -14q-12 -207 -132 -317q-121 -109 -334 -109q-93 0 -174 25t-139 73q-59 48 -92 118q-34 71 -34 161q0 119 54 190t119 133q65 61 122 135q56 74 61 199q1 8 7 14t15 6h145z" />
    <glyph glyph-name="Agrave" unicode="&#xc0;" horiz-adv-x="1288" 
d="M881 590l-242 708l-240 -708h482zM1102 0q-9 0 -16 6q-8 5 -11 13l-139 409h-592l-137 -409q-3 -8 -10 -13q-8 -6 -17 -6h-151q-8 0 -12 6t-2 13l500 1395q3 9 11 15q8 5 17 5h209q8 0 16 -6t11 -14l494 -1395q3 -7 -1 -13q-5 -6 -12 -6h-158zM836 1559q-4 -7 -12 -11
t-15 -1l-449 158q-7 3 -11 11t-2 16l40 110q3 8 11 12q7 3 14 -1l436 -206q7 -3 11 -11q4 -9 0 -17z" />
    <glyph glyph-name="Aacute" unicode="&#xc1;" horiz-adv-x="1288" 
d="M881 590l-242 708l-240 -708h482zM1102 0q-9 0 -16 6q-8 5 -11 13l-139 409h-592l-137 -409q-3 -8 -10 -13q-8 -6 -17 -6h-151q-8 0 -12 6t-2 13l500 1395q3 9 11 15q8 5 17 5h209q8 0 16 -6t11 -14l494 -1395q3 -7 -1 -13q-5 -6 -12 -6h-158zM489 1547q-7 -3 -15 1
q-9 4 -12 11l-25 59q-4 7 0 15q3 8 10 12l438 208q7 4 15 0t11 -11l37 -110q3 -8 -1 -16t-11 -11z" />
    <glyph glyph-name="Acircumflex" unicode="&#xc2;" horiz-adv-x="1288" 
d="M881 590l-242 708l-240 -708h482zM1102 0q-9 0 -16 6q-8 5 -11 13l-139 409h-592l-137 -409q-3 -8 -10 -13q-8 -6 -17 -6h-151q-8 0 -12 6t-2 13l500 1395q3 9 11 15q8 5 17 5h209q8 0 16 -6t11 -14l494 -1395q3 -7 -1 -13q-5 -6 -12 -6h-158zM947 1563q-3 -7 -11 -10
q-9 -4 -16 0l-278 129l-278 -129q-7 -4 -15 0q-9 3 -12 10l-25 61q-3 7 0 16q2 9 9 13l263 163q7 5 18 8q10 3 20 3h40q10 0 21 -3q10 -3 17 -8l263 -163q7 -4 10 -13q2 -9 -1 -16z" />
    <glyph glyph-name="Atilde" unicode="&#xc3;" horiz-adv-x="1288" 
d="M881 590l-242 708l-240 -708h482zM1102 0q-9 0 -16 6q-8 5 -11 13l-139 409h-592l-137 -409q-3 -8 -10 -13q-8 -6 -17 -6h-151q-8 0 -12 6t-2 13l500 1395q3 9 11 15q8 5 17 5h209q8 0 16 -6t11 -14l494 -1395q3 -7 -1 -13q-5 -6 -12 -6h-158zM927 1794q-4 -100 -45 -162
q-42 -63 -126 -63q-47 0 -78 21t-55 47q-24 25 -45 46q-22 21 -50 21q-34 0 -50 -29t-19 -75q0 -9 -6 -15q-7 -6 -15 -6h-64q-7 0 -13 7q-7 6 -6 14q2 47 13 88t32 71t53 47q31 17 73 17q47 0 79 -21q31 -21 55 -46q23 -26 44 -47t46 -21q37 0 54 30q16 29 19 76q0 9 7 15
q6 6 14 6h64q7 0 14 -6q6 -7 5 -15z" />
    <glyph glyph-name="Adieresis" unicode="&#xc4;" horiz-adv-x="1288" 
d="M881 590l-242 708l-240 -708h482zM1102 0q-9 0 -16 6q-8 5 -11 13l-139 409h-592l-137 -409q-3 -8 -10 -13q-8 -6 -17 -6h-151q-8 0 -12 6t-2 13l500 1395q3 9 11 15q8 5 17 5h209q8 0 16 -6t11 -14l494 -1395q3 -7 -1 -13q-5 -6 -12 -6h-158zM420 1581q-8 0 -14 7
q-7 6 -7 14v163q0 8 7 15q6 6 14 6h125q8 0 14 -6q6 -7 6 -15v-163q0 -8 -6 -14q-6 -7 -14 -7h-125zM745 1581q-8 0 -14 7q-6 6 -6 14v163q0 8 6 15q6 6 14 6h125q8 0 15 -6q6 -7 6 -15v-163q0 -8 -6 -14q-7 -7 -15 -7h-125z" />
    <glyph glyph-name="Aring" unicode="&#xc5;" horiz-adv-x="1288" 
d="M881 590l-242 708l-240 -708h482zM1102 0q-9 0 -16 6q-8 5 -11 13l-139 409h-592l-137 -409q-3 -8 -10 -13q-8 -6 -17 -6h-151q-8 0 -12 6t-2 13l500 1395q3 9 11 15q8 5 17 5h209q8 0 16 -6t11 -14l494 -1395q3 -7 -1 -13q-5 -6 -12 -6h-158zM866 1768q0 -46 -16 -85
q-17 -40 -46 -68q-30 -29 -71 -45q-41 -17 -88 -17t-87 17q-40 16 -69 45q-30 28 -46 68q-17 39 -17 85q0 45 17 84q16 39 46 68q29 28 69 45q40 16 87 16t88 -16q41 -17 71 -45q29 -29 46 -68q16 -39 16 -84zM530 1768q0 -63 32 -99q32 -37 83 -37t84 37q33 36 33 99
t-33 98t-84 35t-83 -35t-32 -98z" />
    <glyph glyph-name="AE" unicode="&#xc6;" horiz-adv-x="1778" 
d="M904 739l-8 553h-55l-351 -702h412zM914 0q-8 0 -14 7q-6 6 -6 13l6 408h-489l-204 -410q-4 -7 -12 -12q-9 -6 -18 -6h-151q-7 0 -11 6t-1 12l711 1397q4 8 13 14q8 5 17 5h919q8 0 15 -6q6 -7 6 -15v-113q0 -8 -6 -14q-7 -6 -15 -6h-583l-9 -438h543q8 0 15 -6
q6 -7 6 -15v-112q0 -8 -6 -14q-7 -7 -15 -7h-543l9 -534h600q8 0 14 -6q6 -7 6 -15v-113q0 -8 -6 -14t-14 -6h-777z" />
    <glyph glyph-name="Ccedilla" unicode="&#xc7;" horiz-adv-x="1397" 
d="M1343 504q-21 -135 -73 -235q-52 -101 -130 -166q-78 -66 -181 -98q-104 -32 -226 -32q-157 0 -281 52q-125 51 -210 147t-130 235q-46 139 -46 312q0 169 47 307q46 137 132 233t211 149q124 52 277 52q107 0 205 -26q97 -26 176 -85t136 -155q56 -96 82 -234
q1 -7 -4 -13q-6 -7 -13 -7h-147q-9 0 -16 6t-9 14q-17 88 -54 153q-38 65 -91 107t-121 63q-68 20 -146 20q-112 0 -200 -41q-88 -42 -147 -117q-60 -76 -91 -184q-31 -109 -31 -242q0 -144 32 -255t92 -184q60 -74 147 -111q87 -38 196 -38q177 0 289 96q111 96 133 277
q1 8 8 14q6 6 15 6h151q8 0 14 -6q5 -7 4 -14zM708 -334q-2 -8 -9 -13q-8 -4 -16 -3l-134 30q-8 1 -12 9t-1 15l122 310q4 7 12 12q8 4 16 3l87 -15q7 -1 12 -8q5 -8 3 -16z" />
    <glyph glyph-name="Egrave" unicode="&#xc8;" horiz-adv-x="1096" 
d="M129 0q-8 0 -14 7q-6 6 -6 13l10 719l-10 674q0 8 6 15q6 6 14 6h864q8 0 15 -6q6 -7 6 -15v-113q0 -8 -6 -14q-7 -6 -15 -6h-686l-10 -438h647q8 0 15 -6q6 -7 6 -15v-112q0 -8 -6 -14q-7 -7 -15 -7h-647l10 -534h703q8 0 14 -6q6 -7 6 -15v-113q0 -8 -6 -14t-14 -6
h-881zM783 1559q-4 -7 -12 -11t-15 -1l-449 158q-7 3 -11 11t-2 16l40 110q3 8 11 12q7 3 14 -1l436 -206q7 -3 11 -11q4 -9 0 -17z" />
    <glyph glyph-name="Eacute" unicode="&#xc9;" horiz-adv-x="1096" 
d="M129 0q-8 0 -14 7q-6 6 -6 13l10 719l-10 674q0 8 6 15q6 6 14 6h864q8 0 15 -6q6 -7 6 -15v-113q0 -8 -6 -14q-7 -6 -15 -6h-686l-10 -438h647q8 0 15 -6q6 -7 6 -15v-112q0 -8 -6 -14q-7 -7 -15 -7h-647l10 -534h703q8 0 14 -6q6 -7 6 -15v-113q0 -8 -6 -14t-14 -6
h-881zM442 1547q-7 -3 -15 1q-9 4 -12 11l-25 59q-4 7 0 15q3 8 10 12l438 208q7 4 15 0t11 -11l37 -110q3 -8 -1 -16t-11 -11z" />
    <glyph glyph-name="Ecircumflex" unicode="&#xca;" horiz-adv-x="1096" 
d="M129 0q-8 0 -14 7q-6 6 -6 13l10 719l-10 674q0 8 6 15q6 6 14 6h864q8 0 15 -6q6 -7 6 -15v-113q0 -8 -6 -14q-7 -6 -15 -6h-686l-10 -438h647q8 0 15 -6q6 -7 6 -15v-112q0 -8 -6 -14q-7 -7 -15 -7h-647l10 -534h703q8 0 14 -6q6 -7 6 -15v-113q0 -8 -6 -14t-14 -6
h-881zM908 1563q-3 -7 -11 -10q-9 -4 -16 0l-278 129l-278 -129q-7 -4 -15 0q-9 3 -12 10l-25 61q-3 7 0 16q2 9 9 13l263 163q7 5 18 8q10 3 20 3h40q10 0 21 -3q10 -3 17 -8l263 -163q7 -4 10 -13q2 -9 -1 -16z" />
    <glyph glyph-name="Edieresis" unicode="&#xcb;" horiz-adv-x="1096" 
d="M129 0q-8 0 -14 7q-6 6 -6 13l10 719l-10 674q0 8 6 15q6 6 14 6h864q8 0 15 -6q6 -7 6 -15v-113q0 -8 -6 -14q-7 -6 -15 -6h-686l-10 -438h647q8 0 15 -6q6 -7 6 -15v-112q0 -8 -6 -14q-7 -7 -15 -7h-647l10 -534h703q8 0 14 -6q6 -7 6 -15v-113q0 -8 -6 -14t-14 -6
h-881zM379 1581q-8 0 -14 7q-7 6 -7 14v163q0 8 7 15q6 6 14 6h125q8 0 14 -6q6 -7 6 -15v-163q0 -8 -6 -14q-6 -7 -14 -7h-125zM704 1581q-8 0 -14 7q-6 6 -6 14v163q0 8 6 15q6 6 14 6h125q8 0 15 -6q6 -7 6 -15v-163q0 -8 -6 -14q-7 -7 -15 -7h-125z" />
    <glyph glyph-name="Igrave" unicode="&#xcc;" horiz-adv-x="436" 
d="M141 0q-8 0 -14 7q-6 6 -6 13l8 709l-8 684q0 8 6 15q6 6 14 6h154q8 0 14 -6q6 -7 6 -15l-8 -684l8 -709q0 -7 -6 -13q-6 -7 -14 -7h-154zM398 1559q-4 -7 -12 -11t-15 -1l-449 158q-7 3 -11 11t-2 16l40 110q3 8 10 12q8 3 15 -1l436 -206q7 -3 11 -11q4 -9 0 -17z" />
    <glyph glyph-name="Iacute" unicode="&#xcd;" horiz-adv-x="436" 
d="M141 0q-8 0 -14 7q-6 6 -6 13l8 709l-8 684q0 8 6 15q6 6 14 6h154q8 0 14 -6q6 -7 6 -15l-8 -684l8 -709q0 -7 -6 -13q-6 -7 -14 -7h-154zM57 1547q-7 -3 -15 1q-9 4 -12 11l-25 59q-4 7 0 15q3 8 10 12l438 208q7 4 15 0t11 -11l37 -110q3 -8 -1 -16t-11 -11z" />
    <glyph glyph-name="Icircumflex" unicode="&#xce;" horiz-adv-x="436" 
d="M141 0q-8 0 -14 7q-6 6 -6 13l8 709l-8 684q0 8 6 15q6 6 14 6h154q8 0 14 -6q6 -7 6 -15l-8 -684l8 -709q0 -7 -6 -13q-6 -7 -14 -7h-154zM523 1563q-3 -7 -11 -10q-9 -4 -16 0l-278 129l-278 -129q-7 -4 -16 0q-8 3 -11 10l-25 61q-3 7 -1 16q3 9 10 13l263 163
q7 5 18 8q10 3 20 3h40q10 0 21 -3q10 -3 17 -8l263 -163q7 -4 10 -13q2 -9 -1 -16z" />
    <glyph glyph-name="Idieresis" unicode="&#xcf;" horiz-adv-x="436" 
d="M141 0q-8 0 -14 7q-6 6 -6 13l8 709l-8 684q0 8 6 15q6 6 14 6h154q8 0 14 -6q6 -7 6 -15l-8 -684l8 -709q0 -7 -6 -13q-6 -7 -14 -7h-154zM-6 1581q-8 0 -15 7q-6 6 -6 14v163q0 8 6 15q7 6 15 6h125q8 0 14 -6q6 -7 6 -15v-163q0 -8 -6 -14q-6 -7 -14 -7h-125z
M319 1581q-8 0 -14 7q-6 6 -6 14v163q0 8 6 15q6 6 14 6h125q8 0 15 -6q6 -7 6 -15v-163q0 -8 -6 -14q-7 -7 -15 -7h-125z" />
    <glyph glyph-name="Eth" unicode="&#xd0;" horiz-adv-x="1395" 
d="M154 0q-8 0 -14 7q-7 6 -7 13l8 660h-133q-8 0 -14 6t-6 14v113q0 8 6 15q6 6 14 6h132l-7 579q0 8 7 15q6 6 14 6h452q154 0 287 -46q133 -47 230 -137t153 -224q55 -135 55 -310q0 -183 -59 -318q-59 -136 -158 -224t-230 -131q-131 -44 -274 -44h-456zM627 154
q94 0 186 32q91 32 163 100q71 68 115 175t44 256q0 141 -41 248q-41 106 -111 176q-70 69 -164 104q-95 35 -201 35h-286q0 -1 -1 -47t-2 -113q-2 -67 -3 -145t-2 -141h383q8 0 14 -6q6 -7 6 -15v-113q0 -8 -6 -14t-14 -6h-383q0 -65 2 -155q1 -91 3 -173q1 -82 2 -140
l1 -58h295z" />
    <glyph glyph-name="Ntilde" unicode="&#xd1;" horiz-adv-x="1378" 
d="M291 625l2 -605q0 -8 -6 -14q-7 -6 -15 -6h-143q-8 0 -14 7q-6 6 -6 13l10 707l-8 686q0 8 6 15q6 6 14 6h182q10 0 19 -5q8 -5 13 -13l751 -1172l-4 123l-5 426l-1 620q-1 8 6 15q6 6 14 6h143q8 0 15 -6q6 -7 5 -15l-9 -686l7 -707q1 -7 -5 -13q-7 -7 -15 -7h-192
q-10 0 -18 5q-9 5 -14 12l-740 1157l4 -150zM980 1794q-4 -100 -45 -162q-42 -63 -126 -63q-47 0 -78 21t-55 47q-24 25 -45 46q-22 21 -50 21q-34 0 -50 -29t-19 -75q0 -9 -6 -15q-7 -6 -15 -6h-64q-7 0 -13 7q-7 6 -6 14q2 47 13 88t32 71t53 47q31 17 73 17q47 0 79 -21
q31 -21 55 -46q23 -26 44 -47t46 -21q37 0 54 30q16 29 19 76q0 9 7 15q6 6 14 6h64q7 0 14 -6q6 -7 5 -15z" />
    <glyph glyph-name="Ograve" unicode="&#xd2;" horiz-adv-x="1501" 
d="M1436 715q0 -168 -49 -305q-50 -138 -140 -234q-90 -97 -217 -150t-280 -53q-154 0 -281 54q-127 53 -216 150q-89 96 -138 234q-49 137 -49 304q0 171 49 310q49 138 138 235q89 96 216 148t281 52t281 -52t217 -148q89 -96 139 -234q49 -139 49 -311zM262 715
q0 -135 34 -244q33 -109 96 -184t154 -115q91 -41 204 -41q114 0 205 40t154 115t97 184q33 109 33 245t-33 246q-34 109 -97 185q-63 75 -154 116t-205 41q-115 0 -206 -40q-91 -41 -153 -116q-63 -76 -96 -185q-33 -110 -33 -247zM927 1559q-4 -7 -12 -11t-15 -1l-449 158
q-7 3 -11 11t-2 16l40 110q3 8 11 12q7 3 14 -1l436 -206q7 -3 11 -11q4 -9 0 -17z" />
    <glyph glyph-name="Oacute" unicode="&#xd3;" horiz-adv-x="1501" 
d="M1436 715q0 -168 -49 -305q-50 -138 -140 -234q-90 -97 -217 -150t-280 -53q-154 0 -281 54q-127 53 -216 150q-89 96 -138 234q-49 137 -49 304q0 171 49 310q49 138 138 235q89 96 216 148t281 52t281 -52t217 -148q89 -96 139 -234q49 -139 49 -311zM262 715
q0 -135 34 -244q33 -109 96 -184t154 -115q91 -41 204 -41q114 0 205 40t154 115t97 184q33 109 33 245t-33 246q-34 109 -97 185q-63 75 -154 116t-205 41q-115 0 -206 -40q-91 -41 -153 -116q-63 -76 -96 -185q-33 -110 -33 -247zM581 1547q-7 -3 -15 1q-9 4 -12 11
l-25 59q-4 7 0 15q3 8 10 12l438 208q7 4 15 0t11 -11l37 -110q3 -8 -1 -16t-11 -11z" />
    <glyph glyph-name="Ocircumflex" unicode="&#xd4;" horiz-adv-x="1501" 
d="M1436 715q0 -168 -49 -305q-50 -138 -140 -234q-90 -97 -217 -150t-280 -53q-154 0 -281 54q-127 53 -216 150q-89 96 -138 234q-49 137 -49 304q0 171 49 310q49 138 138 235q89 96 216 148t281 52t281 -52t217 -148q89 -96 139 -234q49 -139 49 -311zM262 715
q0 -135 34 -244q33 -109 96 -184t154 -115q91 -41 204 -41q114 0 205 40t154 115t97 184q33 109 33 245t-33 246q-34 109 -97 185q-63 75 -154 116t-205 41q-115 0 -206 -40q-91 -41 -153 -116q-63 -76 -96 -185q-33 -110 -33 -247zM1049 1563q-3 -7 -11 -10q-9 -4 -16 0
l-278 129l-278 -129q-7 -4 -15 0q-9 3 -12 10l-25 61q-3 7 0 16q2 9 9 13l263 163q7 5 18 8q10 3 20 3h40q10 0 21 -3q10 -3 17 -8l263 -163q7 -4 10 -13q2 -9 -1 -16z" />
    <glyph glyph-name="Otilde" unicode="&#xd5;" horiz-adv-x="1501" 
d="M1436 715q0 -168 -49 -305q-50 -138 -140 -234q-90 -97 -217 -150t-280 -53q-154 0 -281 54q-127 53 -216 150q-89 96 -138 234q-49 137 -49 304q0 171 49 310q49 138 138 235q89 96 216 148t281 52t281 -52t217 -148q89 -96 139 -234q49 -139 49 -311zM262 715
q0 -135 34 -244q33 -109 96 -184t154 -115q91 -41 204 -41q114 0 205 40t154 115t97 184q33 109 33 245t-33 246q-34 109 -97 185q-63 75 -154 116t-205 41q-115 0 -206 -40q-91 -41 -153 -116q-63 -76 -96 -185q-33 -110 -33 -247zM1031 1794q-4 -100 -45 -162
q-42 -63 -126 -63q-47 0 -78 21t-55 47q-24 25 -45 46q-22 21 -50 21q-34 0 -50 -29t-19 -75q0 -9 -6 -15q-7 -6 -15 -6h-64q-7 0 -13 7q-7 6 -6 14q2 47 13 88t32 71t53 47q31 17 73 17q47 0 79 -21q31 -21 55 -46q23 -26 44 -47t46 -21q37 0 54 30q16 29 19 76q0 9 7 15
q6 6 14 6h64q7 0 14 -6q6 -7 5 -15z" />
    <glyph glyph-name="Odieresis" unicode="&#xd6;" horiz-adv-x="1501" 
d="M1436 715q0 -168 -49 -305q-50 -138 -140 -234q-90 -97 -217 -150t-280 -53q-154 0 -281 54q-127 53 -216 150q-89 96 -138 234q-49 137 -49 304q0 171 49 310q49 138 138 235q89 96 216 148t281 52t281 -52t217 -148q89 -96 139 -234q49 -139 49 -311zM262 715
q0 -135 34 -244q33 -109 96 -184t154 -115q91 -41 204 -41q114 0 205 40t154 115t97 184q33 109 33 245t-33 246q-34 109 -97 185q-63 75 -154 116t-205 41q-115 0 -206 -40q-91 -41 -153 -116q-63 -76 -96 -185q-33 -110 -33 -247zM523 1581q-8 0 -14 7q-7 6 -7 14v163
q0 8 7 15q6 6 14 6h125q8 0 14 -6q6 -7 6 -15v-163q0 -8 -6 -14q-6 -7 -14 -7h-125zM848 1581q-8 0 -14 7q-6 6 -6 14v163q0 8 6 15q6 6 14 6h125q8 0 15 -6q6 -7 6 -15v-163q0 -8 -6 -14q-7 -7 -15 -7h-125z" />
    <glyph glyph-name="multiply" unicode="&#xd7;" horiz-adv-x="1040" 
d="M837 310q-5 -6 -14 -6t-14 5l-289 291l-288 -291q-6 -5 -15 -5t-14 6l-74 79q-6 6 -6 15q0 8 6 14l285 287l-287 288q-6 6 -6 15q0 8 6 15l74 78q5 6 14 6t15 -5l290 -291l289 291q5 5 14 5t14 -6l75 -78q5 -7 5 -15q0 -9 -6 -15l-286 -288l286 -287q6 -6 6 -14
q0 -9 -5 -15z" />
    <glyph glyph-name="Oslash" unicode="&#xd8;" horiz-adv-x="1501" 
d="M262 715q0 -107 22 -198q21 -91 61 -162l719 837q-60 54 -139 83q-80 28 -175 28q-115 0 -206 -40q-91 -41 -153 -116q-63 -76 -96 -185q-33 -110 -33 -247zM750 131q114 0 205 40t154 115t97 184q33 109 33 245q0 110 -22 203q-22 92 -64 164l-722 -836q60 -56 141 -85
q81 -30 178 -30zM191 -64q-5 -6 -13 -7q-9 0 -14 6l-90 89q-6 6 -6 15q-1 9 5 16l142 167q-72 94 -110 219q-39 125 -39 274q0 171 49 310q49 138 138 235q89 96 216 148t281 52q121 0 226 -32q105 -33 188 -93l146 169q5 6 14 7q8 0 13 -6l90 -90q6 -6 7 -14q0 -9 -6 -16
l-144 -168q72 -94 112 -221t40 -281q0 -168 -49 -305q-50 -138 -140 -234q-90 -97 -217 -150t-280 -53q-123 0 -228 34q-106 34 -189 97z" />
    <glyph glyph-name="Ugrave" unicode="&#xd9;" horiz-adv-x="1243" 
d="M1151 543q0 -135 -32 -241q-33 -107 -98 -179q-65 -73 -164 -111q-100 -39 -232 -39t-233 39q-101 38 -167 111q-67 72 -100 179q-34 106 -33 241l2 446l-8 424q0 8 7 15q6 6 13 6h162q8 0 15 -6q6 -7 5 -15l-7 -420l2 -450q0 -91 19 -166q19 -76 61 -129q41 -54 106 -83
q65 -30 156 -30q93 0 160 30q66 29 108 83q42 53 62 129q20 75 20 166v446l-6 424q0 8 6 15q6 6 14 6h146q8 0 14 -6q6 -7 6 -15l-4 -424v-446zM800 1559q-4 -7 -12 -11t-15 -1l-449 158q-7 3 -11 11t-2 16l40 110q3 8 11 12q7 3 14 -1l436 -206q7 -3 11 -11q4 -9 0 -17z
" />
    <glyph glyph-name="Uacute" unicode="&#xda;" horiz-adv-x="1243" 
d="M1151 543q0 -135 -32 -241q-33 -107 -98 -179q-65 -73 -164 -111q-100 -39 -232 -39t-233 39q-101 38 -167 111q-67 72 -100 179q-34 106 -33 241l2 446l-8 424q0 8 7 15q6 6 13 6h162q8 0 15 -6q6 -7 5 -15l-7 -420l2 -450q0 -91 19 -166q19 -76 61 -129q41 -54 106 -83
q65 -30 156 -30q93 0 160 30q66 29 108 83q42 53 62 129q20 75 20 166v446l-6 424q0 8 6 15q6 6 14 6h146q8 0 14 -6q6 -7 6 -15l-4 -424v-446zM461 1547q-7 -3 -15 1q-9 4 -12 11l-25 59q-4 7 0 15q3 8 10 12l438 208q7 4 15 0t11 -11l37 -110q3 -8 -1 -16t-11 -11z" />
    <glyph glyph-name="Ucircumflex" unicode="&#xdb;" horiz-adv-x="1243" 
d="M1151 543q0 -135 -32 -241q-33 -107 -98 -179q-65 -73 -164 -111q-100 -39 -232 -39t-233 39q-101 38 -167 111q-67 72 -100 179q-34 106 -33 241l2 446l-8 424q0 8 7 15q6 6 13 6h162q8 0 15 -6q6 -7 5 -15l-7 -420l2 -450q0 -91 19 -166q19 -76 61 -129q41 -54 106 -83
q65 -30 156 -30q93 0 160 30q66 29 108 83q42 53 62 129q20 75 20 166v446l-6 424q0 8 6 15q6 6 14 6h146q8 0 14 -6q6 -7 6 -15l-4 -424v-446zM925 1563q-3 -7 -11 -10q-9 -4 -16 0l-278 129l-278 -129q-7 -4 -15 0q-9 3 -12 10l-25 61q-3 7 0 16q2 9 9 13l263 163
q7 5 18 8q10 3 20 3h40q10 0 21 -3q10 -3 17 -8l263 -163q7 -4 10 -13q2 -9 -1 -16z" />
    <glyph glyph-name="Udieresis" unicode="&#xdc;" horiz-adv-x="1243" 
d="M1151 543q0 -135 -32 -241q-33 -107 -98 -179q-65 -73 -164 -111q-100 -39 -232 -39t-233 39q-101 38 -167 111q-67 72 -100 179q-34 106 -33 241l2 446l-8 424q0 8 7 15q6 6 13 6h162q8 0 15 -6q6 -7 5 -15l-7 -420l2 -450q0 -91 19 -166q19 -76 61 -129q41 -54 106 -83
q65 -30 156 -30q93 0 160 30q66 29 108 83q42 53 62 129q20 75 20 166v446l-6 424q0 8 6 15q6 6 14 6h146q8 0 14 -6q6 -7 6 -15l-4 -424v-446zM396 1581q-8 0 -14 7q-7 6 -7 14v163q0 8 7 15q6 6 14 6h125q8 0 14 -6q6 -7 6 -15v-163q0 -8 -6 -14q-6 -7 -14 -7h-125z
M721 1581q-8 0 -14 7q-6 6 -6 14v163q0 8 6 15q6 6 14 6h125q8 0 15 -6q6 -7 6 -15v-163q0 -8 -6 -14q-7 -7 -15 -7h-125z" />
    <glyph glyph-name="Yacute" unicode="&#xdd;" horiz-adv-x="1161" 
d="M676 20q0 -7 -6 -13q-7 -7 -15 -7h-155q-8 0 -14 7q-7 6 -6 13l7 482l-471 913q-4 7 0 13t11 6h176q9 0 17 -5q8 -6 12 -14l356 -743l357 743q4 8 13 14q8 5 17 5h160q7 0 11 -6q3 -6 0 -13l-476 -917zM414 1547q-7 -3 -15 1q-9 4 -12 11l-25 59q-4 7 0 15q3 8 10 12
l438 208q7 4 15 0t11 -11l37 -110q3 -8 -1 -16t-11 -11z" />
    <glyph glyph-name="Thorn" unicode="&#xde;" horiz-adv-x="1155" 
d="M1108 727q0 -111 -36 -195q-37 -84 -103 -140q-67 -56 -161 -84q-94 -29 -208 -29h-297l4 -259q0 -7 -6 -13q-6 -7 -14 -7h-158q-8 0 -14 7q-6 6 -6 13l10 715l-10 678q0 8 6 15q6 6 14 6h158q8 0 14 -6q6 -7 6 -15l-4 -248h295q117 0 212 -27q94 -28 160 -82
q66 -55 102 -137q36 -83 36 -192zM297 719l4 -289h311q69 0 127 16q57 16 98 52q40 35 63 92q22 56 22 135q0 147 -84 218t-234 71h-303z" />
    <glyph glyph-name="germandbls" unicode="&#xdf;" horiz-adv-x="1143" 
d="M129 -2q-8 0 -14 6t-6 14l6 455v549q0 119 36 202t97 135q60 51 142 75q81 23 171 24q97 0 176 -24q79 -25 135 -72q55 -48 86 -118q30 -71 31 -161q0 -120 -67 -196q-67 -77 -172 -104q81 -12 142 -43q61 -32 102 -78q40 -46 61 -106q20 -61 20 -130q0 -100 -37 -180
q-38 -80 -104 -134q-66 -55 -158 -84q-92 -30 -201 -30h-61q-8 0 -14 6t-6 14v107q0 8 6 14t14 6h61q150 0 228 72q77 72 78 205t-83 203q-84 69 -233 69h-51q-8 0 -14 7q-6 6 -6 14v96q0 8 6 14t14 6h51q122 0 179 65q57 64 57 169q0 128 -68 189t-178 61q-55 0 -102 -16
q-48 -17 -83 -52q-35 -36 -55 -93t-20 -136v-545l6 -455q0 -8 -6 -14t-14 -6h-152z" />
    <glyph glyph-name="agrave" unicode="&#xe0;" horiz-adv-x="1114" 
d="M250 539q0 -94 18 -172t54 -133q36 -56 92 -86q55 -31 129 -31q136 0 215 101t80 300q1 189 -68 299q-69 109 -195 120q-6 0 -23 1h-26q-70 -3 -122 -34q-53 -31 -86 -83q-34 -52 -51 -124q-17 -73 -17 -158zM850 0q-8 0 -14 7q-6 6 -6 13l4 150q-54 -89 -139 -139
q-85 -51 -199 -51q-106 0 -188 43q-82 42 -137 115t-83 173q-29 99 -29 213t30 215t86 175t139 118q82 43 186 43q110 0 195 -46q85 -47 136 -134l-3 139q0 8 6 15q6 6 14 6h149q8 0 15 -6q6 -7 6 -15l-8 -497l8 -517q0 -7 -6 -13q-7 -7 -15 -7h-147zM722 1180
q-4 -7 -12 -11t-15 -1l-449 158q-7 3 -11 11t-2 16l40 110q3 8 11 12q7 3 14 -1l436 -206q7 -3 11 -11q4 -9 0 -17z" />
    <glyph glyph-name="aacute" unicode="&#xe1;" horiz-adv-x="1114" 
d="M250 539q0 -94 18 -172t54 -133q36 -56 92 -86q55 -31 129 -31q136 0 215 101t80 300q1 189 -68 299q-69 109 -195 120q-6 0 -23 1h-26q-70 -3 -122 -34q-53 -31 -86 -83q-34 -52 -51 -124q-17 -73 -17 -158zM850 0q-8 0 -14 7q-6 6 -6 13l4 150q-54 -89 -139 -139
q-85 -51 -199 -51q-106 0 -188 43q-82 42 -137 115t-83 173q-29 99 -29 213t30 215t86 175t139 118q82 43 186 43q110 0 195 -46q85 -47 136 -134l-3 139q0 8 6 15q6 6 14 6h149q8 0 15 -6q6 -7 6 -15l-8 -497l8 -517q0 -7 -6 -13q-7 -7 -15 -7h-147zM373 1168q-7 -3 -15 1
q-9 4 -12 11l-25 59q-4 7 0 15q3 8 10 12l438 208q7 4 15 0t11 -11l37 -110q3 -8 -1 -16t-11 -11z" />
    <glyph glyph-name="acircumflex" unicode="&#xe2;" horiz-adv-x="1114" 
d="M250 539q0 -94 18 -172t54 -133q36 -56 92 -86q55 -31 129 -31q136 0 215 101t80 300q1 189 -68 299q-69 109 -195 120q-6 0 -23 1h-26q-70 -3 -122 -34q-53 -31 -86 -83q-34 -52 -51 -124q-17 -73 -17 -158zM850 0q-8 0 -14 7q-6 6 -6 13l4 150q-54 -89 -139 -139
q-85 -51 -199 -51q-106 0 -188 43q-82 42 -137 115t-83 173q-29 99 -29 213t30 215t86 175t139 118q82 43 186 43q110 0 195 -46q85 -47 136 -134l-3 139q0 8 6 15q6 6 14 6h149q8 0 15 -6q6 -7 6 -15l-8 -497l8 -517q0 -7 -6 -13q-7 -7 -15 -7h-147zM841 1184
q-3 -7 -11 -10q-9 -4 -16 0l-278 129l-278 -129q-7 -4 -15 0q-9 3 -12 10l-25 61q-3 7 0 16q2 9 9 13l263 163q7 5 18 8q10 3 20 3h40q10 0 21 -3q10 -3 17 -8l263 -163q7 -4 10 -13q2 -9 -1 -16z" />
    <glyph glyph-name="atilde" unicode="&#xe3;" horiz-adv-x="1114" 
d="M250 539q0 -94 18 -172t54 -133q36 -56 92 -86q55 -31 129 -31q136 0 215 101t80 300q1 189 -68 299q-69 109 -195 120q-6 0 -23 1h-26q-70 -3 -122 -34q-53 -31 -86 -83q-34 -52 -51 -124q-17 -73 -17 -158zM850 0q-8 0 -14 7q-6 6 -6 13l4 150q-54 -89 -139 -139
q-85 -51 -199 -51q-106 0 -188 43q-82 42 -137 115t-83 173q-29 99 -29 213t30 215t86 175t139 118q82 43 186 43q110 0 195 -46q85 -47 136 -134l-3 139q0 8 6 15q6 6 14 6h149q8 0 15 -6q6 -7 6 -15l-8 -497l8 -517q0 -7 -6 -13q-7 -7 -15 -7h-147zM831 1415
q-4 -100 -45 -162q-42 -63 -126 -63q-47 0 -78 21t-55 47q-24 25 -45 46q-22 21 -50 21q-34 0 -50 -29t-19 -75q0 -9 -6 -15q-7 -6 -15 -6h-64q-7 0 -13 7q-7 6 -6 14q2 47 13 88t32 71t53 47q31 17 73 17q47 0 79 -21q31 -21 55 -46q23 -26 44 -47t46 -21q37 0 54 30
q16 29 19 76q0 9 7 15q6 6 14 6h64q7 0 14 -6q6 -7 5 -15z" />
    <glyph glyph-name="adieresis" unicode="&#xe4;" horiz-adv-x="1114" 
d="M250 539q0 -94 18 -172t54 -133q36 -56 92 -86q55 -31 129 -31q136 0 215 101t80 300q1 189 -68 299q-69 109 -195 120q-6 0 -23 1h-26q-70 -3 -122 -34q-53 -31 -86 -83q-34 -52 -51 -124q-17 -73 -17 -158zM850 0q-8 0 -14 7q-6 6 -6 13l4 150q-54 -89 -139 -139
q-85 -51 -199 -51q-106 0 -188 43q-82 42 -137 115t-83 173q-29 99 -29 213t30 215t86 175t139 118q82 43 186 43q110 0 195 -46q85 -47 136 -134l-3 139q0 8 6 15q6 6 14 6h149q8 0 15 -6q6 -7 6 -15l-8 -497l8 -517q0 -7 -6 -13q-7 -7 -15 -7h-147zM312 1202q-8 0 -14 7
q-7 6 -7 14v163q0 8 7 15q6 6 14 6h125q8 0 14 -6q6 -7 6 -15v-163q0 -8 -6 -14q-6 -7 -14 -7h-125zM637 1202q-8 0 -14 7q-6 6 -6 14v163q0 8 6 15q6 6 14 6h125q8 0 15 -6q6 -7 6 -15v-163q0 -8 -6 -14q-7 -7 -15 -7h-125z" />
    <glyph glyph-name="aring" unicode="&#xe5;" horiz-adv-x="1114" 
d="M250 539q0 -94 18 -172t54 -133q36 -56 92 -86q55 -31 129 -31q136 0 215 101t80 300q1 189 -68 299q-69 109 -195 120q-6 0 -23 1h-26q-70 -3 -122 -34q-53 -31 -86 -83q-34 -52 -51 -124q-17 -73 -17 -158zM850 0q-8 0 -14 7q-6 6 -6 13l4 150q-54 -89 -139 -139
q-85 -51 -199 -51q-106 0 -188 43q-82 42 -137 115t-83 173q-29 99 -29 213t30 215t86 175t139 118q82 43 186 43q110 0 195 -46q85 -47 136 -134l-3 139q0 8 6 15q6 6 14 6h149q8 0 15 -6q6 -7 6 -15l-8 -497l8 -517q0 -7 -6 -13q-7 -7 -15 -7h-147zM758 1389
q0 -46 -16 -85q-17 -40 -46 -68q-30 -29 -71 -45q-41 -17 -88 -17t-87 17q-40 16 -69 45q-30 28 -46 68q-17 39 -17 85q0 45 17 84q16 39 46 68q29 28 69 45q40 16 87 16t88 -16q41 -17 71 -45q29 -29 46 -68q16 -39 16 -84zM422 1389q0 -63 32 -99q32 -37 83 -37t84 37
q33 36 33 99t-33 98t-84 35t-83 -35t-32 -98z" />
    <glyph glyph-name="ae" unicode="&#xe6;" horiz-adv-x="1888" 
d="M1812 346q-13 -80 -48 -148q-36 -69 -92 -118q-57 -49 -135 -77q-79 -28 -177 -28q-113 0 -199 41q-87 41 -147 113l1 -109q1 -7 -5 -13q-7 -7 -15 -7h-145q-8 0 -14 7q-6 6 -6 13l4 150q-54 -89 -139 -139q-85 -51 -199 -51q-106 0 -188 42t-137 115t-83 173
q-29 99 -29 214q0 114 30 215t86 175t139 118q82 43 186 43q110 0 195 -46q85 -47 136 -134l-3 139q0 8 6 15q6 6 14 6h147q8 0 15 -6q6 -7 5 -15l-1 -112q60 75 145 116t191 41q112 0 200 -38q88 -39 149 -110t94 -175t36 -234q0 -8 -6 -14q-7 -6 -14 -6l-775 -5
q4 -187 85 -285q80 -99 233 -99q116 0 186 60t94 174q2 8 9 14t16 6h137q8 0 14 -7q5 -7 4 -14zM1339 944q-128 0 -205 -83t-94 -228h588q-2 63 -21 120q-19 56 -55 99q-36 42 -89 67t-124 25zM250 539q0 -94 18 -172t54 -133q36 -56 92 -86q55 -31 129 -31q136 0 215 101
t80 300q1 189 -68 299q-69 109 -195 120q-6 0 -23 1h-26q-70 -3 -122 -34q-53 -31 -86 -83q-34 -52 -51 -124q-17 -73 -17 -158z" />
    <glyph glyph-name="ccedilla" unicode="&#xe7;" horiz-adv-x="1063" 
d="M1014 377q-8 -87 -43 -161t-94 -127q-59 -54 -141 -84t-183 -30q-118 0 -210 40q-92 39 -155 111q-63 71 -96 173q-33 101 -33 225t33 227q33 102 97 175q63 73 156 113t212 40q97 0 176 -26q78 -27 135 -75q56 -49 91 -117q34 -68 43 -150q1 -8 -5 -14q-6 -7 -14 -7
h-130q-9 0 -16 6q-8 6 -9 14q-21 116 -94 173q-74 57 -177 57q-154 0 -229 -109q-76 -109 -76 -305q0 -200 76 -306q75 -106 229 -107q116 0 193 68q76 68 90 196q1 9 8 15q6 5 15 5h133q7 0 13 -6q6 -7 5 -14zM536 -334q-2 -8 -9 -13q-8 -4 -16 -3l-134 30q-8 1 -12 9
t-1 15l122 310q4 7 12 12q8 4 16 3l87 -15q7 -1 12 -8q5 -8 3 -16z" />
    <glyph glyph-name="egrave" unicode="&#xe8;" horiz-adv-x="1102" 
d="M1008 367q7 0 13 -7q5 -7 4 -14q-12 -80 -48 -148q-36 -69 -94 -118t-138 -77q-81 -28 -182 -28q-122 0 -216 41q-95 41 -158 114q-64 72 -97 173t-33 221q0 123 35 226q34 102 98 175q63 73 155 114q92 40 206 40t205 -38q90 -39 153 -110q62 -71 97 -175
q34 -104 36 -234q0 -8 -6 -14t-14 -6h-776q4 -190 84 -289q80 -100 233 -100q116 0 187 60t94 173q2 9 9 15t16 6h137zM844 633q-2 63 -21 120q-20 56 -56 99q-36 42 -89 67q-54 25 -123 25q-130 0 -205 -81q-76 -82 -96 -230h590zM740 1180q-4 -7 -12 -11t-15 -1l-449 158
q-7 3 -11 11t-2 16l40 110q3 8 11 12q7 3 14 -1l436 -206q7 -3 11 -11q4 -9 0 -17z" />
    <glyph glyph-name="eacute" unicode="&#xe9;" horiz-adv-x="1102" 
d="M1008 367q7 0 13 -7q5 -7 4 -14q-12 -80 -48 -148q-36 -69 -94 -118t-138 -77q-81 -28 -182 -28q-122 0 -216 41q-95 41 -158 114q-64 72 -97 173t-33 221q0 123 35 226q34 102 98 175q63 73 155 114q92 40 206 40t205 -38q90 -39 153 -110q62 -71 97 -175
q34 -104 36 -234q0 -8 -6 -14t-14 -6h-776q4 -190 84 -289q80 -100 233 -100q116 0 187 60t94 173q2 9 9 15t16 6h137zM844 633q-2 63 -21 120q-20 56 -56 99q-36 42 -89 67q-54 25 -123 25q-130 0 -205 -81q-76 -82 -96 -230h590zM389 1168q-7 -3 -15 1q-9 4 -12 11l-25 59
q-4 7 0 15q3 8 10 12l438 208q7 4 15 0t11 -11l37 -110q3 -8 -1 -16t-11 -11z" />
    <glyph glyph-name="ecircumflex" unicode="&#xea;" horiz-adv-x="1102" 
d="M1008 367q7 0 13 -7q5 -7 4 -14q-12 -80 -48 -148q-36 -69 -94 -118t-138 -77q-81 -28 -182 -28q-122 0 -216 41q-95 41 -158 114q-64 72 -97 173t-33 221q0 123 35 226q34 102 98 175q63 73 155 114q92 40 206 40t205 -38q90 -39 153 -110q62 -71 97 -175
q34 -104 36 -234q0 -8 -6 -14t-14 -6h-776q4 -190 84 -289q80 -100 233 -100q116 0 187 60t94 173q2 9 9 15t16 6h137zM844 633q-2 63 -21 120q-20 56 -56 99q-36 42 -89 67q-54 25 -123 25q-130 0 -205 -81q-76 -82 -96 -230h590zM857 1184q-3 -7 -11 -10q-9 -4 -16 0
l-278 129l-278 -129q-7 -4 -15 0q-9 3 -12 10l-25 61q-3 7 0 16q2 9 9 13l263 163q7 5 18 8q10 3 20 3h40q10 0 21 -3q10 -3 17 -8l263 -163q7 -4 10 -13q2 -9 -1 -16z" />
    <glyph glyph-name="edieresis" unicode="&#xeb;" horiz-adv-x="1102" 
d="M1008 367q7 0 13 -7q5 -7 4 -14q-12 -80 -48 -148q-36 -69 -94 -118t-138 -77q-81 -28 -182 -28q-122 0 -216 41q-95 41 -158 114q-64 72 -97 173t-33 221q0 123 35 226q34 102 98 175q63 73 155 114q92 40 206 40t205 -38q90 -39 153 -110q62 -71 97 -175
q34 -104 36 -234q0 -8 -6 -14t-14 -6h-776q4 -190 84 -289q80 -100 233 -100q116 0 187 60t94 173q2 9 9 15t16 6h137zM844 633q-2 63 -21 120q-20 56 -56 99q-36 42 -89 67q-54 25 -123 25q-130 0 -205 -81q-76 -82 -96 -230h590zM328 1202q-8 0 -14 7q-7 6 -7 14v163
q0 8 7 15q6 6 14 6h125q8 0 14 -6q6 -7 6 -15v-163q0 -8 -6 -14q-6 -7 -14 -7h-125zM653 1202q-8 0 -14 7q-6 6 -6 14v163q0 8 6 15q6 6 14 6h125q8 0 15 -6q6 -7 6 -15v-163q0 -8 -6 -14q-7 -7 -15 -7h-125z" />
    <glyph glyph-name="igrave" unicode="&#xec;" horiz-adv-x="406" 
d="M127 0q-8 0 -14 7q-6 6 -6 13l6 523l-6 491q0 8 6 15q6 6 14 6h152q8 0 14 -6q6 -7 6 -15l-6 -489l6 -525q0 -7 -6 -13q-6 -7 -14 -7h-152zM382 1180q-4 -7 -12 -11t-15 -1l-449 158q-7 3 -11 11t-2 16l40 110q3 8 10 12q8 3 15 -1l436 -206q7 -3 11 -11q4 -9 0 -17z" />
    <glyph glyph-name="iacute" unicode="&#xed;" horiz-adv-x="406" 
d="M127 0q-8 0 -14 7q-6 6 -6 13l6 523l-6 491q0 8 6 15q6 6 14 6h152q8 0 14 -6q6 -7 6 -15l-6 -489l6 -525q0 -7 -6 -13q-6 -7 -14 -7h-152zM53 1168q-7 -3 -15 1q-9 4 -12 11l-25 59q-4 7 0 15q3 8 10 12l438 208q7 4 15 0t11 -11l37 -110q3 -8 -1 -16t-11 -11z" />
    <glyph glyph-name="icircumflex" unicode="&#xee;" horiz-adv-x="406" 
d="M127 0q-8 0 -14 7q-6 6 -6 13l6 523l-6 491q0 8 6 15q6 6 14 6h152q8 0 14 -6q6 -7 6 -15l-6 -489l6 -525q0 -7 -6 -13q-6 -7 -14 -7h-152zM507 1184q-3 -7 -11 -10q-9 -4 -16 0l-278 129l-278 -129q-7 -4 -16 0q-8 3 -11 10l-25 61q-3 7 -1 16q3 9 10 13l263 163
q7 5 18 8q10 3 20 3h40q10 0 21 -3q10 -3 17 -8l263 -163q7 -4 10 -13q2 -9 -1 -16z" />
    <glyph glyph-name="idieresis" unicode="&#xef;" horiz-adv-x="406" 
d="M127 0q-8 0 -14 7q-6 6 -6 13l6 523l-6 491q0 8 6 15q6 6 14 6h152q8 0 14 -6q6 -7 6 -15l-6 -489l6 -525q0 -7 -6 -13q-6 -7 -14 -7h-152zM-22 1202q-8 0 -15 7q-6 6 -6 14v163q0 8 6 15q7 6 15 6h125q8 0 14 -6q6 -7 6 -15v-163q0 -8 -6 -14q-6 -7 -14 -7h-125z
M303 1202q-8 0 -14 7q-6 6 -6 14v163q0 8 6 15q6 6 14 6h125q8 0 15 -6q6 -7 6 -15v-163q0 -8 -6 -14q-7 -7 -15 -7h-125z" />
    <glyph glyph-name="eth" unicode="&#xf0;" horiz-adv-x="1130" 
d="M1059 569q0 -128 -33 -238q-34 -110 -98 -189q-65 -79 -160 -124q-96 -45 -219 -45q-109 0 -197 37q-89 36 -151 100q-63 64 -97 153q-35 89 -36 194q1 107 34 196t92 152q59 62 142 97q83 34 182 34q73 0 131 -17q57 -18 100 -47t73 -66q29 -38 46 -77q-6 119 -53 221
t-127 183l-256 -127q-7 -3 -15 0t-12 10l-38 78q-3 7 0 15t10 12l207 102q-51 38 -110 69q-60 31 -125 55q-7 2 -10 10t1 15l48 89q4 7 13 10q8 3 15 0q91 -35 172 -78t147 -95l258 129q7 3 16 0q8 -3 11 -10l38 -80q4 -7 1 -15t-10 -12l-211 -104q105 -111 163 -267
q58 -157 58 -370zM266 444q0 -148 78 -234q78 -87 215 -87q75 0 131 27q56 26 92 72q36 45 54 107q18 61 18 132q0 74 -21 135q-22 61 -61 104t-95 67q-57 24 -126 24t-122 -24q-54 -25 -90 -69q-36 -45 -54 -110q-19 -65 -19 -144z" />
    <glyph glyph-name="ntilde" unicode="&#xf1;" horiz-adv-x="1075" 
d="M120 0q-8 0 -14 7q-7 6 -6 13l7 461l-5 553q-1 8 6 15q6 6 14 6h141q8 0 14 -6q6 -7 6 -15l-3 -157q24 40 58 77q34 36 78 64q43 28 97 45q54 16 117 16q81 0 147 -27q65 -27 111 -79q45 -52 70 -130q24 -79 24 -181v-211l6 -431q0 -7 -6 -13q-6 -7 -14 -7h-150
q-8 0 -14 7q-6 6 -6 13l4 431v202q0 143 -62 210t-161 67q-103 0 -181 -82q-79 -82 -110 -238v-159l4 -431q0 -7 -6 -13q-7 -7 -15 -7h-151zM829 1415q-4 -100 -45 -162q-42 -63 -126 -63q-47 0 -78 21t-55 47q-24 25 -45 46q-22 21 -50 21q-34 0 -50 -29t-19 -75
q0 -9 -6 -15q-7 -6 -15 -6h-64q-7 0 -13 7q-7 6 -6 14q2 47 13 88t32 71t53 47q31 17 73 17q47 0 79 -21q31 -21 55 -46q23 -26 44 -47t46 -21q37 0 54 30q16 29 19 76q0 9 7 15q6 6 14 6h64q7 0 14 -6q6 -7 5 -15z" />
    <glyph glyph-name="ograve" unicode="&#xf2;" horiz-adv-x="1120" 
d="M1061 528q0 -124 -33 -226t-96 -174q-63 -73 -157 -113t-214 -40q-119 0 -212 40q-94 39 -157 111q-64 71 -97 173q-34 101 -34 225q0 125 34 228q33 102 97 175q63 72 157 112q93 40 212 40q120 0 214 -39q94 -40 157 -112t96 -174t33 -226zM252 524q0 -197 78 -304
q77 -107 231 -107t231 107q76 107 76 304t-77 308q-77 110 -230 110q-156 -1 -232 -111q-77 -110 -77 -307zM738 1180q-4 -7 -12 -11t-15 -1l-449 158q-7 3 -11 11t-2 16l40 110q3 8 11 12q7 3 14 -1l436 -206q7 -3 11 -11q4 -9 0 -17z" />
    <glyph glyph-name="oacute" unicode="&#xf3;" horiz-adv-x="1120" 
d="M1061 528q0 -124 -33 -226t-96 -174q-63 -73 -157 -113t-214 -40q-119 0 -212 40q-94 39 -157 111q-64 71 -97 173q-34 101 -34 225q0 125 34 228q33 102 97 175q63 72 157 112q93 40 212 40q120 0 214 -39q94 -40 157 -112t96 -174t33 -226zM252 524q0 -197 78 -304
q77 -107 231 -107t231 107q76 107 76 304t-77 308q-77 110 -230 110q-156 -1 -232 -111q-77 -110 -77 -307zM389 1168q-7 -3 -15 1q-9 4 -12 11l-25 59q-4 7 0 15q3 8 10 12l438 208q7 4 15 0t11 -11l37 -110q3 -8 -1 -16t-11 -11z" />
    <glyph glyph-name="ocircumflex" unicode="&#xf4;" horiz-adv-x="1120" 
d="M1061 528q0 -124 -33 -226t-96 -174q-63 -73 -157 -113t-214 -40q-119 0 -212 40q-94 39 -157 111q-64 71 -97 173q-34 101 -34 225q0 125 34 228q33 102 97 175q63 72 157 112q93 40 212 40q120 0 214 -39q94 -40 157 -112t96 -174t33 -226zM252 524q0 -197 78 -304
q77 -107 231 -107t231 107q76 107 76 304t-77 308q-77 110 -230 110q-156 -1 -232 -111q-77 -110 -77 -307zM865 1184q-3 -7 -11 -10q-9 -4 -16 0l-278 129l-278 -129q-7 -4 -15 0q-9 3 -12 10l-25 61q-3 7 0 16q2 9 9 13l263 163q7 5 18 8q10 3 20 3h40q10 0 21 -3
q10 -3 17 -8l263 -163q7 -4 10 -13q2 -9 -1 -16z" />
    <glyph glyph-name="otilde" unicode="&#xf5;" horiz-adv-x="1120" 
d="M1061 528q0 -124 -33 -226t-96 -174q-63 -73 -157 -113t-214 -40q-119 0 -212 40q-94 39 -157 111q-64 71 -97 173q-34 101 -34 225q0 125 34 228q33 102 97 175q63 72 157 112q93 40 212 40q120 0 214 -39q94 -40 157 -112t96 -174t33 -226zM252 524q0 -197 78 -304
q77 -107 231 -107t231 107q76 107 76 304t-77 308q-77 110 -230 110q-156 -1 -232 -111q-77 -110 -77 -307zM841 1415q-4 -100 -45 -162q-42 -63 -126 -63q-47 0 -78 21t-55 47q-24 25 -45 46q-22 21 -50 21q-34 0 -50 -29t-19 -75q0 -9 -6 -15q-7 -6 -15 -6h-64q-7 0 -13 7
q-7 6 -6 14q2 47 13 88t32 71t53 47q31 17 73 17q47 0 79 -21q31 -21 55 -46q23 -26 44 -47t46 -21q37 0 54 30q16 29 19 76q0 9 7 15q6 6 14 6h64q7 0 14 -6q6 -7 5 -15z" />
    <glyph glyph-name="odieresis" unicode="&#xf6;" horiz-adv-x="1120" 
d="M1061 528q0 -124 -33 -226t-96 -174q-63 -73 -157 -113t-214 -40q-119 0 -212 40q-94 39 -157 111q-64 71 -97 173q-34 101 -34 225q0 125 34 228q33 102 97 175q63 72 157 112q93 40 212 40q120 0 214 -39q94 -40 157 -112t96 -174t33 -226zM252 524q0 -197 78 -304
q77 -107 231 -107t231 107q76 107 76 304t-77 308q-77 110 -230 110q-156 -1 -232 -111q-77 -110 -77 -307zM336 1202q-8 0 -14 7q-7 6 -7 14v163q0 8 7 15q6 6 14 6h125q8 0 14 -6q6 -7 6 -15v-163q0 -8 -6 -14q-6 -7 -14 -7h-125zM661 1202q-8 0 -14 7q-6 6 -6 14v163
q0 8 6 15q6 6 14 6h125q8 0 15 -6q6 -7 6 -15v-163q0 -8 -6 -14q-7 -7 -15 -7h-125z" />
    <glyph glyph-name="divide" unicode="&#xf7;" horiz-adv-x="1040" 
d="M438 172q-8 0 -14 6t-6 14v175q0 8 6 14t14 6h166q8 0 14 -6t6 -14v-175q0 -8 -6 -14t-14 -6h-166zM80 629q-8 0 -14 6q-7 6 -7 14v113q0 8 7 14q6 6 14 6h881q8 0 14 -6t6 -14v-113q0 -8 -6 -14t-14 -6h-881zM438 1028q-8 0 -14 6t-6 14v175q0 8 6 14t14 6h166
q8 0 14 -6t6 -14v-175q0 -8 -6 -14t-14 -6h-166z" />
    <glyph glyph-name="oslash" unicode="&#xf8;" horiz-adv-x="1120" 
d="M252 524q0 -69 9 -127q9 -59 28 -105l477 571q-37 39 -88 59q-52 20 -117 20q-156 -1 -232 -111q-77 -110 -77 -307zM561 113q154 0 231 107q76 107 76 304q0 72 -10 133t-30 109l-478 -572q37 -40 91 -60q53 -21 120 -21zM156 -62q-4 -6 -13 -7q-9 0 -14 6l-63 63
q-6 6 -6 15q-1 8 4 15l102 127q-51 69 -78 163t-27 204q0 125 34 228q33 102 97 175q63 72 157 112q93 40 212 40q90 0 165 -22t134 -64l102 124q5 6 14 7q8 0 13 -6l65 -63q6 -6 7 -15q0 -9 -5 -15l-103 -123q53 -70 81 -165q27 -96 27 -209q0 -124 -33 -226t-96 -174
q-63 -73 -157 -113t-214 -40q-90 0 -166 23t-135 65z" />
    <glyph glyph-name="ugrave" unicode="&#xf9;" horiz-adv-x="1075" 
d="M799 180q-25 -40 -59 -77q-35 -38 -79 -66t-98 -45t-117 -17q-81 0 -146 27q-66 27 -111 80q-46 52 -70 131q-25 79 -25 182v209l-4 430q0 8 7 15q6 6 14 6h147q8 0 14 -6q6 -7 6 -15l-4 -430v-203q0 -142 63 -209t161 -67q104 0 182 82t108 237v160l-1 430q-1 8 6 15
q6 6 14 6h149q8 0 15 -6q6 -7 6 -15l-6 -461l4 -553q0 -8 -6 -14q-7 -6 -15 -6h-141q-8 0 -14 7q-6 6 -6 13zM711 1180q-4 -7 -12 -11t-15 -1l-449 158q-7 3 -11 11t-2 16l40 110q3 8 11 12q7 3 14 -1l436 -206q7 -3 11 -11q4 -9 0 -17z" />
    <glyph glyph-name="uacute" unicode="&#xfa;" horiz-adv-x="1075" 
d="M799 180q-25 -40 -59 -77q-35 -38 -79 -66t-98 -45t-117 -17q-81 0 -146 27q-66 27 -111 80q-46 52 -70 131q-25 79 -25 182v209l-4 430q0 8 7 15q6 6 14 6h147q8 0 14 -6q6 -7 6 -15l-4 -430v-203q0 -142 63 -209t161 -67q104 0 182 82t108 237v160l-1 430q-1 8 6 15
q6 6 14 6h149q8 0 15 -6q6 -7 6 -15l-6 -461l4 -553q0 -8 -6 -14q-7 -6 -15 -6h-141q-8 0 -14 7q-6 6 -6 13zM368 1168q-7 -3 -15 1q-9 4 -12 11l-25 59q-4 7 0 15q3 8 10 12l438 208q7 4 15 0t11 -11l37 -110q3 -8 -1 -16t-11 -11z" />
    <glyph glyph-name="ucircumflex" unicode="&#xfb;" horiz-adv-x="1075" 
d="M799 180q-25 -40 -59 -77q-35 -38 -79 -66t-98 -45t-117 -17q-81 0 -146 27q-66 27 -111 80q-46 52 -70 131q-25 79 -25 182v209l-4 430q0 8 7 15q6 6 14 6h147q8 0 14 -6q6 -7 6 -15l-4 -430v-203q0 -142 63 -209t161 -67q104 0 182 82t108 237v160l-1 430q-1 8 6 15
q6 6 14 6h149q8 0 15 -6q6 -7 6 -15l-6 -461l4 -553q0 -8 -6 -14q-7 -6 -15 -6h-141q-8 0 -14 7q-6 6 -6 13zM836 1184q-3 -7 -11 -10q-9 -4 -16 0l-278 129l-278 -129q-7 -4 -15 0q-9 3 -12 10l-25 61q-3 7 0 16q2 9 9 13l263 163q7 5 18 8q10 3 20 3h40q10 0 21 -3
q10 -3 17 -8l263 -163q7 -4 10 -13q2 -9 -1 -16z" />
    <glyph glyph-name="udieresis" unicode="&#xfc;" horiz-adv-x="1075" 
d="M799 180q-25 -40 -59 -77q-35 -38 -79 -66t-98 -45t-117 -17q-81 0 -146 27q-66 27 -111 80q-46 52 -70 131q-25 79 -25 182v209l-4 430q0 8 7 15q6 6 14 6h147q8 0 14 -6q6 -7 6 -15l-4 -430v-203q0 -142 63 -209t161 -67q104 0 182 82t108 237v160l-1 430q-1 8 6 15
q6 6 14 6h149q8 0 15 -6q6 -7 6 -15l-6 -461l4 -553q0 -8 -6 -14q-7 -6 -15 -6h-141q-8 0 -14 7q-6 6 -6 13zM307 1202q-8 0 -14 7q-7 6 -7 14v163q0 8 7 15q6 6 14 6h125q8 0 14 -6q6 -7 6 -15v-163q0 -8 -6 -14q-6 -7 -14 -7h-125zM632 1202q-8 0 -14 7q-6 6 -6 14v163
q0 8 6 15q6 6 14 6h125q8 0 15 -6q6 -7 6 -15v-163q0 -8 -6 -14q-7 -7 -15 -7h-125z" />
    <glyph glyph-name="yacute" unicode="&#xfd;" horiz-adv-x="973" 
d="M489 -329q-3 -8 -10 -14q-8 -5 -17 -5h-135q-8 0 -12 6q-5 6 -2 13l112 329l-412 1036q-3 7 1 13t12 6h168q8 0 16 -5q8 -6 11 -14l298 -794l254 793q3 8 11 14q7 6 16 6h149q7 0 12 -6q4 -7 2 -14zM323 1168q-7 -3 -15 1q-9 4 -12 11l-25 59q-4 7 0 15q3 8 10 12
l438 208q7 4 15 0t11 -11l37 -110q3 -8 -1 -16t-11 -11z" />
    <glyph glyph-name="thorn" unicode="&#xfe;" horiz-adv-x="1114" 
d="M276 537q-1 -199 76 -309q76 -111 215 -111q76 0 133 30q56 29 93 82q36 52 55 126q18 73 18 161q0 94 -18 172t-54 134q-36 55 -92 86q-56 30 -131 30q-136 0 -214 -102q-79 -102 -81 -299zM1055 530q0 -114 -30 -214q-30 -101 -86 -175q-56 -75 -138 -118
q-83 -43 -187 -43q-108 0 -192 45t-137 131l4 -484q0 -8 -6 -14q-7 -6 -15 -6h-151q-8 0 -14 6q-7 6 -7 14l8 854l-8 887q0 8 7 15q6 6 14 6h147q8 0 15 -6q6 -7 5 -15l-5 -530q53 90 140 141q86 51 199 51q106 0 188 -42t137 -115t84 -173q28 -100 28 -215z" />
    <glyph glyph-name="ydieresis" unicode="&#xff;" horiz-adv-x="973" 
d="M489 -329q-3 -8 -10 -14q-8 -5 -17 -5h-135q-8 0 -12 6q-5 6 -2 13l112 329l-412 1036q-3 7 1 13t12 6h168q8 0 16 -5q8 -6 11 -14l298 -794l254 793q3 8 11 14q7 6 16 6h149q7 0 12 -6q4 -7 2 -14zM277 1202q-8 0 -14 7q-7 6 -7 14v163q0 8 7 15q6 6 14 6h125q8 0 14 -6
q6 -7 6 -15v-163q0 -8 -6 -14q-6 -7 -14 -7h-125zM602 1202q-8 0 -14 7q-6 6 -6 14v163q0 8 6 15q6 6 14 6h125q8 0 15 -6q6 -7 6 -15v-163q0 -8 -6 -14q-7 -7 -15 -7h-125z" />
    <glyph glyph-name="Amacron" unicode="&#x100;" horiz-adv-x="1288" 
d="M881 590l-242 708l-240 -708h482zM1102 0q-9 0 -16 6q-8 5 -11 13l-139 409h-592l-137 -409q-3 -8 -10 -13q-8 -6 -17 -6h-151q-8 0 -12 6t-2 13l500 1395q3 9 11 15q8 5 17 5h209q8 0 16 -6t11 -14l494 -1395q3 -7 -1 -13q-5 -6 -12 -6h-158zM364 1596q-8 0 -14 6t-6 14
v98q0 8 6 15q6 6 14 6h560q8 0 14 -6q6 -7 6 -15v-98q0 -8 -6 -14t-14 -6h-560z" />
    <glyph glyph-name="amacron" unicode="&#x101;" horiz-adv-x="1114" 
d="M250 539q0 -94 18 -172t54 -133q36 -56 92 -86q55 -31 129 -31q136 0 215 101t80 300q1 189 -68 299q-69 109 -195 120q-6 0 -23 1h-26q-70 -3 -122 -34q-53 -31 -86 -83q-34 -52 -51 -124q-17 -73 -17 -158zM850 0q-8 0 -14 7q-6 6 -6 13l4 150q-54 -89 -139 -139
q-85 -51 -199 -51q-106 0 -188 43q-82 42 -137 115t-83 173q-29 99 -29 213t30 215t86 175t139 118q82 43 186 43q110 0 195 -46q85 -47 136 -134l-3 139q0 8 6 15q6 6 14 6h149q8 0 15 -6q6 -7 6 -15l-8 -497l8 -517q0 -7 -6 -13q-7 -7 -15 -7h-147zM258 1217q-8 0 -14 6
t-6 14v98q0 8 6 15q6 6 14 6h560q8 0 14 -6q6 -7 6 -15v-98q0 -8 -6 -14t-14 -6h-560z" />
    <glyph glyph-name="Abreve" unicode="&#x102;" horiz-adv-x="1288" 
d="M881 590l-242 708l-240 -708h482zM1102 0q-9 0 -16 6q-8 5 -11 13l-139 409h-592l-137 -409q-3 -8 -10 -13q-8 -6 -17 -6h-151q-8 0 -12 6t-2 13l500 1395q3 9 11 15q8 5 17 5h209q8 0 16 -6t11 -14l494 -1395q3 -7 -1 -13q-5 -6 -12 -6h-158zM933 1821q-3 -57 -25 -105
q-22 -49 -59 -84t-89 -55t-115 -20t-115 20t-89 55t-59 84q-22 48 -25 105q-1 7 6 14q6 6 13 6h88q9 0 15 -5q6 -6 7 -15q7 -57 47 -93t112 -36q69 0 111 36q41 36 48 93q1 9 7 15q6 5 15 5h88q7 0 14 -6q6 -7 5 -14z" />
    <glyph glyph-name="abreve" unicode="&#x103;" horiz-adv-x="1114" 
d="M250 539q0 -94 18 -172t54 -133q36 -56 92 -86q55 -31 129 -31q136 0 215 101t80 300q1 189 -68 299q-69 109 -195 120q-6 0 -23 1h-26q-70 -3 -122 -34q-53 -31 -86 -83q-34 -52 -51 -124q-17 -73 -17 -158zM850 0q-8 0 -14 7q-6 6 -6 13l4 150q-54 -89 -139 -139
q-85 -51 -199 -51q-106 0 -188 43q-82 42 -137 115t-83 173q-29 99 -29 213t30 215t86 175t139 118q82 43 186 43q110 0 195 -46q85 -47 136 -134l-3 139q0 8 6 15q6 6 14 6h149q8 0 15 -6q6 -7 6 -15l-8 -497l8 -517q0 -7 -6 -13q-7 -7 -15 -7h-147zM825 1442
q-3 -57 -25 -105q-22 -49 -59 -84t-89 -55t-115 -20t-115 20t-89 55t-59 84q-22 48 -25 105q-1 7 6 14q6 6 13 6h88q9 0 15 -5q6 -6 7 -15q7 -57 47 -93t112 -36q69 0 111 36q41 36 48 93q1 9 7 15q6 5 15 5h88q7 0 14 -6q6 -7 5 -14z" />
    <glyph glyph-name="Aogonek" unicode="&#x104;" horiz-adv-x="1288" 
d="M881 590l-242 708l-240 -708h482zM1102 0q-9 0 -16 6q-8 5 -11 13l-139 409h-592l-137 -409q-3 -8 -10 -13q-8 -6 -17 -6h-151q-8 0 -12 6t-2 13l500 1395q3 9 11 15q8 5 17 5h209q8 0 16 -6t11 -14l494 -1395q3 -7 -1 -13q-5 -6 -12 -6h-158zM1198 -393q-113 0 -183 54
q-71 54 -71 142q0 46 17 84q17 39 46 69q28 30 66 53t79 39q7 3 16 0t13 -10l12 -19q4 -8 2 -16q-2 -9 -9 -14q-15 -10 -32 -26q-17 -15 -30 -34q-14 -19 -23 -42q-10 -22 -10 -47q0 -50 35 -74q34 -24 86 -24h84q8 0 15 -7q6 -6 6 -14v-94q0 -8 -6 -14q-7 -6 -15 -6h-98z
" />
    <glyph glyph-name="aogonek" unicode="&#x105;" horiz-adv-x="1114" 
d="M250 539q0 -94 18 -172t54 -133q36 -56 92 -86q55 -31 129 -31q136 0 215 101t80 300q1 189 -68 299q-69 109 -195 120q-6 0 -23 1h-26q-70 -3 -122 -34q-53 -31 -86 -83q-34 -52 -51 -124q-17 -73 -17 -158zM850 0q-8 0 -14 7q-6 6 -6 13l4 150q-54 -89 -139 -139
q-85 -51 -199 -51q-106 0 -188 43q-82 42 -137 115t-83 173q-29 99 -29 213t30 215t86 175t139 118q82 43 186 43q110 0 195 -46q85 -47 136 -134l-3 139q0 8 6 15q6 6 14 6h149q8 0 15 -6q6 -7 6 -15l-8 -497l8 -517q0 -7 -6 -13q-7 -7 -15 -7h-147zM957 -393
q-113 0 -183 54q-71 54 -71 142q0 46 17 84q17 39 46 69q28 30 66 53t79 39q7 3 16 0t13 -10l12 -19q4 -8 2 -16q-2 -9 -9 -14q-15 -10 -32 -26q-17 -15 -30 -34q-14 -19 -23 -42q-10 -22 -10 -47q0 -50 35 -74q34 -24 86 -24h84q8 0 15 -7q6 -6 6 -14v-94q0 -8 -6 -14
q-7 -6 -15 -6h-98z" />
    <glyph glyph-name="Cacute" unicode="&#x106;" horiz-adv-x="1397" 
d="M1343 504q-21 -135 -73 -235q-52 -101 -130 -166q-78 -66 -181 -98q-104 -32 -226 -32q-157 0 -281 52q-125 51 -210 147t-130 235q-46 139 -46 312q0 169 47 307q46 137 132 233t211 149q124 52 277 52q107 0 205 -26q97 -26 176 -85t136 -155q56 -96 82 -234
q1 -7 -4 -13q-6 -7 -13 -7h-147q-9 0 -16 6t-9 14q-17 88 -54 153q-38 65 -91 107t-121 63q-68 20 -146 20q-112 0 -200 -41q-88 -42 -147 -117q-60 -76 -91 -184q-31 -109 -31 -242q0 -144 32 -255t92 -184q60 -74 147 -111q87 -38 196 -38q177 0 289 96q111 96 133 277
q1 8 8 14q6 6 15 6h151q8 0 14 -6q5 -7 4 -14zM551 1547q-7 -3 -15 1q-9 4 -12 11l-25 59q-4 7 0 15q3 8 10 12l438 208q7 4 15 0t11 -11l37 -110q3 -8 -1 -16t-11 -11z" />
    <glyph glyph-name="cacute" unicode="&#x107;" horiz-adv-x="1063" 
d="M1014 377q-8 -87 -43 -161t-94 -127q-59 -54 -141 -84t-183 -30q-118 0 -210 40q-92 39 -155 111q-63 71 -96 173q-33 101 -33 225t33 227q33 102 97 175q63 73 156 113t212 40q97 0 176 -26q78 -27 135 -75q56 -49 91 -117q34 -68 43 -150q1 -8 -5 -14q-6 -7 -14 -7
h-130q-9 0 -16 6q-8 6 -9 14q-21 116 -94 173q-74 57 -177 57q-154 0 -229 -109q-76 -109 -76 -305q0 -200 76 -306q75 -106 229 -107q116 0 193 68q76 68 90 196q1 9 8 15q6 5 15 5h133q7 0 13 -6q6 -7 5 -14zM379 1168q-7 -3 -15 1q-9 4 -12 11l-25 59q-4 7 0 15
q3 8 10 12l438 208q7 4 15 0t11 -11l37 -110q3 -8 -1 -16t-11 -11z" />
    <glyph glyph-name="Ccircumflex" unicode="&#x108;" horiz-adv-x="1397" 
d="M1343 504q-21 -135 -73 -235q-52 -101 -130 -166q-78 -66 -181 -98q-104 -32 -226 -32q-157 0 -281 52q-125 51 -210 147t-130 235q-46 139 -46 312q0 169 47 307q46 137 132 233t211 149q124 52 277 52q107 0 205 -26q97 -26 176 -85t136 -155q56 -96 82 -234
q1 -7 -4 -13q-6 -7 -13 -7h-147q-9 0 -16 6t-9 14q-17 88 -54 153q-38 65 -91 107t-121 63q-68 20 -146 20q-112 0 -200 -41q-88 -42 -147 -117q-60 -76 -91 -184q-31 -109 -31 -242q0 -144 32 -255t92 -184q60 -74 147 -111q87 -38 196 -38q177 0 289 96q111 96 133 277
q1 8 8 14q6 6 15 6h151q8 0 14 -6q5 -7 4 -14zM1023 1563q-3 -7 -11 -10q-9 -4 -16 0l-278 129l-278 -129q-7 -4 -15 0q-9 3 -12 10l-25 61q-3 7 0 16q2 9 9 13l263 163q7 5 18 8q10 3 20 3h40q10 0 21 -3q10 -3 17 -8l263 -163q7 -4 10 -13q2 -9 -1 -16z" />
    <glyph glyph-name="ccircumflex" unicode="&#x109;" horiz-adv-x="1063" 
d="M1014 377q-8 -87 -43 -161t-94 -127q-59 -54 -141 -84t-183 -30q-118 0 -210 40q-92 39 -155 111q-63 71 -96 173q-33 101 -33 225t33 227q33 102 97 175q63 73 156 113t212 40q97 0 176 -26q78 -27 135 -75q56 -49 91 -117q34 -68 43 -150q1 -8 -5 -14q-6 -7 -14 -7
h-130q-9 0 -16 6q-8 6 -9 14q-21 116 -94 173q-74 57 -177 57q-154 0 -229 -109q-76 -109 -76 -305q0 -200 76 -306q75 -106 229 -107q116 0 193 68q76 68 90 196q1 9 8 15q6 5 15 5h133q7 0 13 -6q6 -7 5 -14zM847 1184q-3 -7 -11 -10q-9 -4 -16 0l-278 129l-278 -129
q-7 -4 -15 0q-9 3 -12 10l-25 61q-3 7 0 16q2 9 9 13l263 163q7 5 18 8q10 3 20 3h40q10 0 21 -3q10 -3 17 -8l263 -163q7 -4 10 -13q2 -9 -1 -16z" />
    <glyph glyph-name="Cdotaccent" unicode="&#x10a;" horiz-adv-x="1397" 
d="M1343 504q-21 -135 -73 -235q-52 -101 -130 -166q-78 -66 -181 -98q-104 -32 -226 -32q-157 0 -281 52q-125 51 -210 147t-130 235q-46 139 -46 312q0 169 47 307q46 137 132 233t211 149q124 52 277 52q107 0 205 -26q97 -26 176 -85t136 -155q56 -96 82 -234
q1 -7 -4 -13q-6 -7 -13 -7h-147q-9 0 -16 6t-9 14q-17 88 -54 153q-38 65 -91 107t-121 63q-68 20 -146 20q-112 0 -200 -41q-88 -42 -147 -117q-60 -76 -91 -184q-31 -109 -31 -242q0 -144 32 -255t92 -184q60 -74 147 -111q87 -38 196 -38q177 0 289 96q111 96 133 277
q1 8 8 14q6 6 15 6h151q8 0 14 -6q5 -7 4 -14zM643 1559q-8 0 -14 6t-6 14v164q0 8 6 14t14 6h150q8 0 14 -6t6 -14v-164q0 -8 -6 -14t-14 -6h-150z" />
    <glyph glyph-name="cdotaccent" unicode="&#x10b;" horiz-adv-x="1063" 
d="M1014 377q-8 -87 -43 -161t-94 -127q-59 -54 -141 -84t-183 -30q-118 0 -210 40q-92 39 -155 111q-63 71 -96 173q-33 101 -33 225t33 227q33 102 97 175q63 73 156 113t212 40q97 0 176 -26q78 -27 135 -75q56 -49 91 -117q34 -68 43 -150q1 -8 -5 -14q-6 -7 -14 -7
h-130q-9 0 -16 6q-8 6 -9 14q-21 116 -94 173q-74 57 -177 57q-154 0 -229 -109q-76 -109 -76 -305q0 -200 76 -306q75 -106 229 -107q116 0 193 68q76 68 90 196q1 9 8 15q6 5 15 5h133q7 0 13 -6q6 -7 5 -14zM471 1180q-8 0 -14 6t-6 14v164q0 8 6 14t14 6h150q8 0 14 -6
t6 -14v-164q0 -8 -6 -14t-14 -6h-150z" />
    <glyph glyph-name="Ccaron" unicode="&#x10c;" horiz-adv-x="1397" 
d="M1343 504q-21 -135 -73 -235q-52 -101 -130 -166q-78 -66 -181 -98q-104 -32 -226 -32q-157 0 -281 52q-125 51 -210 147t-130 235q-46 139 -46 312q0 169 47 307q46 137 132 233t211 149q124 52 277 52q107 0 205 -26q97 -26 176 -85t136 -155q56 -96 82 -234
q1 -7 -4 -13q-6 -7 -13 -7h-147q-9 0 -16 6t-9 14q-17 88 -54 153q-38 65 -91 107t-121 63q-68 20 -146 20q-112 0 -200 -41q-88 -42 -147 -117q-60 -76 -91 -184q-31 -109 -31 -242q0 -144 32 -255t92 -184q60 -74 147 -111q87 -38 196 -38q177 0 289 96q111 96 133 277
q1 8 8 14q6 6 15 6h151q8 0 14 -6q5 -7 4 -14zM776 1561q-7 -4 -17 -7q-11 -4 -21 -4h-40q-10 0 -20 4q-11 3 -18 7l-263 163q-7 4 -9 13q-3 9 0 17l25 60q3 7 12 11q8 3 15 0l280 -129l276 128q7 4 16 1q8 -4 11 -11l25 -60q3 -8 1 -17q-3 -9 -10 -13z" />
    <glyph glyph-name="ccaron" unicode="&#x10d;" horiz-adv-x="1063" 
d="M1014 377q-8 -87 -43 -161t-94 -127q-59 -54 -141 -84t-183 -30q-118 0 -210 40q-92 39 -155 111q-63 71 -96 173q-33 101 -33 225t33 227q33 102 97 175q63 73 156 113t212 40q97 0 176 -26q78 -27 135 -75q56 -49 91 -117q34 -68 43 -150q1 -8 -5 -14q-6 -7 -14 -7
h-130q-9 0 -16 6q-8 6 -9 14q-21 116 -94 173q-74 57 -177 57q-154 0 -229 -109q-76 -109 -76 -305q0 -200 76 -306q75 -106 229 -107q116 0 193 68q76 68 90 196q1 9 8 15q6 5 15 5h133q7 0 13 -6q6 -7 5 -14zM602 1182q-7 -4 -17 -7q-11 -4 -21 -4h-40q-10 0 -20 4
q-11 3 -18 7l-263 163q-7 4 -9 13q-3 9 0 17l25 60q3 7 12 11q8 3 15 0l280 -129l276 128q7 4 16 1q8 -4 11 -11l25 -60q3 -8 1 -17q-3 -9 -10 -13z" />
    <glyph glyph-name="Dcaron" unicode="&#x10e;" horiz-adv-x="1372" 
d="M131 0q-8 0 -14 7q-6 6 -6 13l8 715l-8 678q0 8 6 15q6 6 14 6h453q153 0 287 -46q133 -47 230 -137t153 -224q55 -135 55 -310q0 -183 -59 -318q-59 -136 -158 -224t-230 -131q-131 -44 -274 -44h-457zM301 739q0 -50 2 -147q1 -98 2 -194q1 -97 3 -170q1 -73 1 -74h295
q94 0 186 32q91 32 163 100q71 68 115 175t44 256q0 141 -41 248q-41 106 -111 176q-70 69 -164 104t-200 35h-287q0 -1 -1 -67q-2 -67 -3 -156t-2 -179q-2 -91 -2 -139zM733 1561q-7 -4 -17 -7q-11 -4 -21 -4h-40q-10 0 -20 4q-11 3 -18 7l-263 163q-7 4 -9 13q-3 9 0 17
l25 60q3 7 12 11q8 3 15 0l280 -129l276 128q7 4 16 1q8 -4 11 -11l25 -60q3 -8 1 -17q-3 -9 -10 -13z" />
    <glyph glyph-name="dcaron" unicode="&#x10f;" horiz-adv-x="1114" 
d="M250 539q0 -95 18 -173q18 -79 54 -134q36 -56 92 -86q55 -31 129 -31q134 0 214 102q80 101 81 301q1 199 -75 311q-77 112 -216 113q-76 1 -132 -29t-92 -83q-37 -53 -55 -128t-18 -163zM848 0q-8 0 -14 7q-6 6 -6 13l3 148q-51 -89 -136 -138q-86 -50 -199 -50
q-106 0 -188 42t-137 115t-83 173q-29 99 -29 214q0 114 30 215t86 175t139 118q82 43 186 43q110 0 194 -45q84 -46 137 -133l-3 516q-1 8 6 15q6 6 14 6h149q8 0 15 -6q6 -7 6 -15l-6 -618l6 -775q0 -8 -6 -14q-7 -6 -15 -6h-149zM1210 1099q-2 -8 -9 -13q-8 -6 -17 -6
h-84q-7 0 -12 7q-6 6 -5 13l73 385q1 9 9 15q7 6 15 6h119q7 0 12 -6q5 -7 3 -14z" />
    <glyph glyph-name="Dcroat" unicode="&#x110;" horiz-adv-x="1395" 
d="M154 0q-8 0 -14 7q-7 6 -7 13l8 660h-133q-8 0 -14 6t-6 14v113q0 8 6 15q6 6 14 6h132l-7 579q0 8 7 15q6 6 14 6h452q154 0 287 -46q133 -47 230 -137t153 -224q55 -135 55 -310q0 -183 -59 -318q-59 -136 -158 -224t-230 -131q-131 -44 -274 -44h-456zM627 154
q94 0 186 32q91 32 163 100q71 68 115 175t44 256q0 141 -41 248q-41 106 -111 176q-70 69 -164 104q-95 35 -201 35h-286q0 -1 -1 -47t-2 -113q-2 -67 -3 -145t-2 -141h383q8 0 14 -6q6 -7 6 -15v-113q0 -8 -6 -14t-14 -6h-383q0 -65 2 -155q1 -91 3 -173q1 -82 2 -140
l1 -58h295z" />
    <glyph glyph-name="dcroat" unicode="&#x111;" horiz-adv-x="1094" 
d="M250 539q0 -95 18 -173q18 -79 54 -134q36 -56 92 -86q55 -31 129 -31q134 0 214 102q80 101 81 301q1 199 -75 311q-77 112 -216 113q-76 1 -132 -29t-92 -83q-37 -53 -55 -128t-18 -163zM832 168q-53 -88 -138 -138t-198 -50q-106 0 -188 42t-137 115t-83 173
q-29 99 -29 214q0 114 30 215t86 175t139 118q82 43 186 43q110 0 194 -46t137 -133l-2 267h-311q-8 0 -14 7q-6 6 -6 14v100q0 8 6 15q6 6 14 6h310v108q-1 8 6 15q6 6 14 6h149q8 0 15 -6q6 -7 6 -15l-1 -108h103q8 0 15 -6q6 -7 6 -15v-100q0 -8 -6 -14q-7 -7 -15 -7
h-105l-3 -368l6 -775q0 -8 -6 -14q-7 -6 -15 -6h-149q-8 0 -14 7q-6 6 -6 13z" />
    <glyph glyph-name="Emacron" unicode="&#x112;" horiz-adv-x="1096" 
d="M129 0q-8 0 -14 7q-6 6 -6 13l10 719l-10 674q0 8 6 15q6 6 14 6h864q8 0 15 -6q6 -7 6 -15v-113q0 -8 -6 -14q-7 -6 -15 -6h-686l-10 -438h647q8 0 15 -6q6 -7 6 -15v-112q0 -8 -6 -14q-7 -7 -15 -7h-647l10 -534h703q8 0 14 -6q6 -7 6 -15v-113q0 -8 -6 -14t-14 -6
h-881zM325 1596q-8 0 -14 6t-6 14v98q0 8 6 15q6 6 14 6h560q8 0 14 -6q6 -7 6 -15v-98q0 -8 -6 -14t-14 -6h-560z" />
    <glyph glyph-name="emacron" unicode="&#x113;" horiz-adv-x="1102" 
d="M1008 367q7 0 13 -7q5 -7 4 -14q-12 -80 -48 -148q-36 -69 -94 -118t-138 -77q-81 -28 -182 -28q-122 0 -216 41q-95 41 -158 114q-64 72 -97 173t-33 221q0 123 35 226q34 102 98 175q63 73 155 114q92 40 206 40t205 -38q90 -39 153 -110q62 -71 97 -175
q34 -104 36 -234q0 -8 -6 -14t-14 -6h-776q4 -190 84 -289q80 -100 233 -100q116 0 187 60t94 173q2 9 9 15t16 6h137zM844 633q-2 63 -21 120q-20 56 -56 99q-36 42 -89 67q-54 25 -123 25q-130 0 -205 -81q-76 -82 -96 -230h590zM274 1217q-8 0 -14 6t-6 14v98q0 8 6 15
q6 6 14 6h560q8 0 14 -6q6 -7 6 -15v-98q0 -8 -6 -14t-14 -6h-560z" />
    <glyph glyph-name="Ebreve" unicode="&#x114;" horiz-adv-x="1096" 
d="M129 0q-8 0 -14 7q-6 6 -6 13l10 719l-10 674q0 8 6 15q6 6 14 6h864q8 0 15 -6q6 -7 6 -15v-113q0 -8 -6 -14q-7 -6 -15 -6h-686l-10 -438h647q8 0 15 -6q6 -7 6 -15v-112q0 -8 -6 -14q-7 -7 -15 -7h-647l10 -534h703q8 0 14 -6q6 -7 6 -15v-113q0 -8 -6 -14t-14 -6
h-881zM892 1821q-3 -57 -25 -105q-22 -49 -59 -84t-89 -55t-115 -20t-115 20t-89 55t-59 84q-22 48 -25 105q-1 7 6 14q6 6 13 6h88q9 0 15 -5q6 -6 7 -15q7 -57 47 -93t112 -36q69 0 111 36q41 36 48 93q1 9 7 15q6 5 15 5h88q7 0 14 -6q6 -7 5 -14z" />
    <glyph glyph-name="ebreve" unicode="&#x115;" horiz-adv-x="1102" 
d="M1008 367q7 0 13 -7q5 -7 4 -14q-12 -80 -48 -148q-36 -69 -94 -118t-138 -77q-81 -28 -182 -28q-122 0 -216 41q-95 41 -158 114q-64 72 -97 173t-33 221q0 123 35 226q34 102 98 175q63 73 155 114q92 40 206 40t205 -38q90 -39 153 -110q62 -71 97 -175
q34 -104 36 -234q0 -8 -6 -14t-14 -6h-776q4 -190 84 -289q80 -100 233 -100q116 0 187 60t94 173q2 9 9 15t16 6h137zM844 633q-2 63 -21 120q-20 56 -56 99q-36 42 -89 67q-54 25 -123 25q-130 0 -205 -81q-76 -82 -96 -230h590zM843 1442q-3 -57 -25 -105
q-22 -49 -59 -84t-89 -55t-115 -20t-115 20t-89 55t-59 84q-22 48 -25 105q-1 7 6 14q6 6 13 6h88q9 0 15 -5q6 -6 7 -15q7 -57 47 -93t112 -36q69 0 111 36q41 36 48 93q1 9 7 15q6 5 15 5h88q7 0 14 -6q6 -7 5 -14z" />
    <glyph glyph-name="Edotaccent" unicode="&#x116;" horiz-adv-x="1096" 
d="M129 0q-8 0 -14 7q-6 6 -6 13l10 719l-10 674q0 8 6 15q6 6 14 6h864q8 0 15 -6q6 -7 6 -15v-113q0 -8 -6 -14q-7 -6 -15 -6h-686l-10 -438h647q8 0 15 -6q6 -7 6 -15v-112q0 -8 -6 -14q-7 -7 -15 -7h-647l10 -534h703q8 0 14 -6q6 -7 6 -15v-113q0 -8 -6 -14t-14 -6
h-881zM530 1559q-8 0 -14 6t-6 14v164q0 8 6 14t14 6h150q8 0 14 -6t6 -14v-164q0 -8 -6 -14t-14 -6h-150z" />
    <glyph glyph-name="edotaccent" unicode="&#x117;" horiz-adv-x="1102" 
d="M1008 367q7 0 13 -7q5 -7 4 -14q-12 -80 -48 -148q-36 -69 -94 -118t-138 -77q-81 -28 -182 -28q-122 0 -216 41q-95 41 -158 114q-64 72 -97 173t-33 221q0 123 35 226q34 102 98 175q63 73 155 114q92 40 206 40t205 -38q90 -39 153 -110q62 -71 97 -175
q34 -104 36 -234q0 -8 -6 -14t-14 -6h-776q4 -190 84 -289q80 -100 233 -100q116 0 187 60t94 173q2 9 9 15t16 6h137zM844 633q-2 63 -21 120q-20 56 -56 99q-36 42 -89 67q-54 25 -123 25q-130 0 -205 -81q-76 -82 -96 -230h590zM481 1180q-8 0 -14 6t-6 14v164q0 8 6 14
t14 6h150q8 0 14 -6t6 -14v-164q0 -8 -6 -14t-14 -6h-150z" />
    <glyph glyph-name="Eogonek" unicode="&#x118;" horiz-adv-x="1096" 
d="M129 0q-8 0 -14 7q-6 6 -6 13l10 719l-10 674q0 8 6 15q6 6 14 6h864q8 0 15 -6q6 -7 6 -15v-113q0 -8 -6 -14q-7 -6 -15 -6h-686l-10 -438h647q8 0 15 -6q6 -7 6 -15v-112q0 -8 -6 -14q-7 -7 -15 -7h-647l10 -534h703q8 0 14 -6q6 -7 6 -15v-113q0 -8 -6 -14t-14 -6
h-881zM924 -393q-113 0 -183 54q-71 54 -71 142q0 46 17 84q17 39 46 69q28 30 66 53t79 39q7 3 16 0t13 -10l12 -19q4 -8 2 -16q-2 -9 -9 -14q-15 -10 -32 -26q-17 -15 -30 -34q-14 -19 -23 -42q-10 -22 -10 -47q0 -50 35 -74q34 -24 86 -24h84q8 0 15 -7q6 -6 6 -14v-94
q0 -8 -6 -14q-7 -6 -15 -6h-98z" />
    <glyph glyph-name="eogonek" unicode="&#x119;" horiz-adv-x="1102" 
d="M1008 367q7 0 13 -7q5 -7 4 -14q-12 -80 -48 -148q-36 -69 -94 -118t-138 -77q-81 -28 -182 -28q-122 0 -216 41q-95 41 -158 114q-64 72 -97 173t-33 221q0 123 35 226q34 102 98 175q63 73 155 114q92 40 206 40t205 -38q90 -39 153 -110q62 -71 97 -175
q34 -104 36 -234q0 -8 -6 -14t-14 -6h-776q4 -190 84 -289q80 -100 233 -100q116 0 187 60t94 173q2 9 9 15t16 6h137zM844 633q-2 63 -21 120q-20 56 -56 99q-36 42 -89 67q-54 25 -123 25q-130 0 -205 -81q-76 -82 -96 -230h590zM721 -393q-113 0 -183 54q-71 54 -71 142
q0 46 17 84q17 39 46 69q28 30 66 53t79 39q7 3 16 0t13 -10l12 -19q4 -8 2 -16q-2 -9 -9 -14q-15 -10 -32 -26q-17 -15 -30 -34q-14 -19 -23 -42q-10 -22 -10 -47q0 -50 35 -74q34 -24 86 -24h84q8 0 15 -7q6 -6 6 -14v-94q0 -8 -6 -14q-7 -6 -15 -6h-98z" />
    <glyph glyph-name="Ecaron" unicode="&#x11a;" horiz-adv-x="1096" 
d="M129 0q-8 0 -14 7q-6 6 -6 13l10 719l-10 674q0 8 6 15q6 6 14 6h864q8 0 15 -6q6 -7 6 -15v-113q0 -8 -6 -14q-7 -6 -15 -6h-686l-10 -438h647q8 0 15 -6q6 -7 6 -15v-112q0 -8 -6 -14q-7 -7 -15 -7h-647l10 -534h703q8 0 14 -6q6 -7 6 -15v-113q0 -8 -6 -14t-14 -6
h-881zM661 1561q-7 -4 -17 -7q-11 -4 -21 -4h-40q-10 0 -20 4q-11 3 -18 7l-263 163q-7 4 -9 13q-3 9 0 17l25 60q3 7 12 11q8 3 15 0l280 -129l276 128q7 4 16 1q8 -4 11 -11l25 -60q3 -8 1 -17q-3 -9 -10 -13z" />
    <glyph glyph-name="ecaron" unicode="&#x11b;" horiz-adv-x="1102" 
d="M1008 367q7 0 13 -7q5 -7 4 -14q-12 -80 -48 -148q-36 -69 -94 -118t-138 -77q-81 -28 -182 -28q-122 0 -216 41q-95 41 -158 114q-64 72 -97 173t-33 221q0 123 35 226q34 102 98 175q63 73 155 114q92 40 206 40t205 -38q90 -39 153 -110q62 -71 97 -175
q34 -104 36 -234q0 -8 -6 -14t-14 -6h-776q4 -190 84 -289q80 -100 233 -100q116 0 187 60t94 173q2 9 9 15t16 6h137zM844 633q-2 63 -21 120q-20 56 -56 99q-36 42 -89 67q-54 25 -123 25q-130 0 -205 -81q-76 -82 -96 -230h590zM610 1182q-7 -4 -17 -7q-11 -4 -21 -4h-40
q-10 0 -20 4q-11 3 -18 7l-263 163q-7 4 -9 13q-3 9 0 17l25 60q3 7 12 11q8 3 15 0l280 -129l276 128q7 4 16 1q8 -4 11 -11l25 -60q3 -8 1 -17q-3 -9 -10 -13z" />
    <glyph glyph-name="Gcircumflex" unicode="&#x11c;" horiz-adv-x="1421" 
d="M1356 725q1 -182 -40 -323q-41 -142 -121 -236q-80 -95 -200 -144t-274 -49q-143 0 -264 53t-207 150q-87 97 -135 235q-49 138 -49 306q0 171 48 309t134 234t207 148q120 52 264 52q119 0 219 -30q99 -31 176 -89q76 -59 129 -145q52 -87 78 -199q1 -7 -4 -13
q-5 -7 -12 -7h-154q-9 0 -16 6q-7 5 -9 14q-37 151 -143 230q-106 78 -264 78q-103 0 -188 -40q-85 -41 -144 -117q-60 -76 -92 -186q-33 -110 -33 -247q0 -135 34 -244q33 -109 94 -184q60 -76 146 -117t191 -41q102 0 182 33q80 32 134 93q54 60 83 147q28 86 29 192h-428
q-8 0 -14 6t-6 14v111q0 8 6 14t14 6h608q8 0 15 -6q6 -6 6 -14zM1017 1563q-3 -7 -11 -10q-9 -4 -16 0l-278 129l-278 -129q-7 -4 -15 0q-9 3 -12 10l-25 61q-3 7 0 16q2 9 9 13l263 163q7 5 18 8q10 3 20 3h40q10 0 21 -3q10 -3 17 -8l263 -163q7 -4 10 -13q2 -9 -1 -16z
" />
    <glyph glyph-name="gcircumflex" unicode="&#x11d;" horiz-adv-x="1110" 
d="M248 537q0 -190 77 -294q76 -105 226 -104q128 0 207 95q79 94 80 288q1 186 -68 295t-195 120q-6 0 -24 1h-25q-69 -3 -121 -33q-53 -30 -87 -82q-35 -52 -52 -125q-18 -73 -18 -161zM1014 72q1 -226 -121 -350q-123 -123 -348 -123q-91 -1 -171 17q-80 19 -140 58
q-61 40 -99 102t-46 146q-1 8 6 14q6 7 13 7h143q9 0 16 -6t8 -15q15 -96 89 -142t183 -46q133 0 212 81t79 259v119q-51 -89 -134 -138q-84 -49 -194 -49t-195 40q-85 39 -141 109q-57 70 -86 167q-29 96 -29 208t30 211q29 99 86 172q56 73 140 116q83 42 189 42
q110 0 194 -46q84 -47 136 -136l-6 145q0 8 6 15q6 6 14 6h145q8 0 15 -6q6 -7 6 -15l-4 -401zM851 1184q-3 -7 -11 -10q-9 -4 -16 0l-278 129l-278 -129q-7 -4 -15 0q-9 3 -12 10l-25 61q-3 7 0 16q2 9 9 13l263 163q7 5 18 8q10 3 20 3h40q10 0 21 -3q10 -3 17 -8
l263 -163q7 -4 10 -13q2 -9 -1 -16z" />
    <glyph glyph-name="Gbreve" unicode="&#x11e;" horiz-adv-x="1421" 
d="M1356 725q1 -182 -40 -323q-41 -142 -121 -236q-80 -95 -200 -144t-274 -49q-143 0 -264 53t-207 150q-87 97 -135 235q-49 138 -49 306q0 171 48 309t134 234t207 148q120 52 264 52q119 0 219 -30q99 -31 176 -89q76 -59 129 -145q52 -87 78 -199q1 -7 -4 -13
q-5 -7 -12 -7h-154q-9 0 -16 6q-7 5 -9 14q-37 151 -143 230q-106 78 -264 78q-103 0 -188 -40q-85 -41 -144 -117q-60 -76 -92 -186q-33 -110 -33 -247q0 -135 34 -244q33 -109 94 -184q60 -76 146 -117t191 -41q102 0 182 33q80 32 134 93q54 60 83 147q28 86 29 192h-428
q-8 0 -14 6t-6 14v111q0 8 6 14t14 6h608q8 0 15 -6q6 -6 6 -14zM995 1821q-3 -57 -25 -105q-22 -49 -59 -84t-89 -55t-115 -20t-115 20t-89 55t-59 84q-22 48 -25 105q-1 7 6 14q6 6 13 6h88q9 0 15 -5q6 -6 7 -15q7 -57 47 -93t112 -36q69 0 111 36q41 36 48 93q1 9 7 15
q6 5 15 5h88q7 0 14 -6q6 -7 5 -14z" />
    <glyph glyph-name="gbreve" unicode="&#x11f;" horiz-adv-x="1110" 
d="M248 537q0 -190 77 -294q76 -105 226 -104q128 0 207 95q79 94 80 288q1 186 -68 295t-195 120q-6 0 -24 1h-25q-69 -3 -121 -33q-53 -30 -87 -82q-35 -52 -52 -125q-18 -73 -18 -161zM1014 72q1 -226 -121 -350q-123 -123 -348 -123q-91 -1 -171 17q-80 19 -140 58
q-61 40 -99 102t-46 146q-1 8 6 14q6 7 13 7h143q9 0 16 -6t8 -15q15 -96 89 -142t183 -46q133 0 212 81t79 259v119q-51 -89 -134 -138q-84 -49 -194 -49t-195 40q-85 39 -141 109q-57 70 -86 167q-29 96 -29 208t30 211q29 99 86 172q56 73 140 116q83 42 189 42
q110 0 194 -46q84 -47 136 -136l-6 145q0 8 6 15q6 6 14 6h145q8 0 15 -6q6 -7 6 -15l-4 -401zM827 1442q-3 -57 -25 -105q-22 -49 -59 -84t-89 -55t-115 -20t-115 20t-89 55t-59 84q-22 48 -25 105q-1 7 6 14q6 6 13 6h88q9 0 15 -5q6 -6 7 -15q7 -57 47 -93t112 -36
q69 0 111 36q41 36 48 93q1 9 7 15q6 5 15 5h88q7 0 14 -6q6 -7 5 -14z" />
    <glyph glyph-name="Gdotaccent" unicode="&#x120;" horiz-adv-x="1421" 
d="M1356 725q1 -182 -40 -323q-41 -142 -121 -236q-80 -95 -200 -144t-274 -49q-143 0 -264 53t-207 150q-87 97 -135 235q-49 138 -49 306q0 171 48 309t134 234t207 148q120 52 264 52q119 0 219 -30q99 -31 176 -89q76 -59 129 -145q52 -87 78 -199q1 -7 -4 -13
q-5 -7 -12 -7h-154q-9 0 -16 6q-7 5 -9 14q-37 151 -143 230q-106 78 -264 78q-103 0 -188 -40q-85 -41 -144 -117q-60 -76 -92 -186q-33 -110 -33 -247q0 -135 34 -244q33 -109 94 -184q60 -76 146 -117t191 -41q102 0 182 33q80 32 134 93q54 60 83 147q28 86 29 192h-428
q-8 0 -14 6t-6 14v111q0 8 6 14t14 6h608q8 0 15 -6q6 -6 6 -14zM649 1559q-8 0 -14 6t-6 14v164q0 8 6 14t14 6h150q8 0 14 -6t6 -14v-164q0 -8 -6 -14t-14 -6h-150z" />
    <glyph glyph-name="gdotaccent" unicode="&#x121;" horiz-adv-x="1110" 
d="M248 537q0 -190 77 -294q76 -105 226 -104q128 0 207 95q79 94 80 288q1 186 -68 295t-195 120q-6 0 -24 1h-25q-69 -3 -121 -33q-53 -30 -87 -82q-35 -52 -52 -125q-18 -73 -18 -161zM1014 72q1 -226 -121 -350q-123 -123 -348 -123q-91 -1 -171 17q-80 19 -140 58
q-61 40 -99 102t-46 146q-1 8 6 14q6 7 13 7h143q9 0 16 -6t8 -15q15 -96 89 -142t183 -46q133 0 212 81t79 259v119q-51 -89 -134 -138q-84 -49 -194 -49t-195 40q-85 39 -141 109q-57 70 -86 167q-29 96 -29 208t30 211q29 99 86 172q56 73 140 116q83 42 189 42
q110 0 194 -46q84 -47 136 -136l-6 145q0 8 6 15q6 6 14 6h145q8 0 15 -6q6 -7 6 -15l-4 -401zM467 1180q-8 0 -14 6t-6 14v164q0 8 6 14t14 6h150q8 0 14 -6t6 -14v-164q0 -8 -6 -14t-14 -6h-150z" />
    <glyph glyph-name="Gcommaaccent" unicode="&#x122;" horiz-adv-x="1421" 
d="M1356 725q1 -182 -40 -323q-41 -142 -121 -236q-80 -95 -200 -144t-274 -49q-143 0 -264 53t-207 150q-87 97 -135 235q-49 138 -49 306q0 171 48 309t134 234t207 148q120 52 264 52q119 0 219 -30q99 -31 176 -89q76 -59 129 -145q52 -87 78 -199q1 -7 -4 -13
q-5 -7 -12 -7h-154q-9 0 -16 6q-7 5 -9 14q-37 151 -143 230q-106 78 -264 78q-103 0 -188 -40q-85 -41 -144 -117q-60 -76 -92 -186q-33 -110 -33 -247q0 -135 34 -244q33 -109 94 -184q60 -76 146 -117t191 -41q102 0 182 33q80 32 134 93q54 60 83 147q28 86 29 192h-428
q-8 0 -14 6t-6 14v111q0 8 6 14t14 6h608q8 0 15 -6q6 -6 6 -14zM621 -436q-8 0 -12 6q-5 7 -4 14l42 160v158q0 8 7 14q6 6 14 6h114q8 0 15 -6q6 -6 6 -14v-138q0 -9 -3 -20q-3 -10 -8 -18l-87 -145q-4 -7 -13 -12t-18 -5h-53z" />
    <glyph glyph-name="gcommaaccent" unicode="&#x123;" horiz-adv-x="1110" 
d="M248 537q0 -190 77 -294q76 -105 226 -104q128 0 207 95q79 94 80 288q1 186 -68 295t-195 120q-6 0 -24 1h-25q-69 -3 -121 -33q-53 -30 -87 -82q-35 -52 -52 -125q-18 -73 -18 -161zM1014 72q1 -226 -121 -350q-123 -123 -348 -123q-91 -1 -171 17q-80 19 -140 58
q-61 40 -99 102t-46 146q-1 8 6 14q6 7 13 7h143q9 0 16 -6t8 -15q15 -96 89 -142t183 -46q133 0 212 81t79 259v119q-51 -89 -134 -138q-84 -49 -194 -49t-195 40q-85 39 -141 109q-57 70 -86 167q-29 96 -29 208t30 211q29 99 86 172q56 73 140 116q83 42 189 42
q110 0 194 -46q84 -47 136 -136l-6 145q0 8 6 15q6 6 14 6h145q8 0 15 -6q6 -7 6 -15l-4 -401zM467 1198q-8 0 -14 7q-7 6 -7 14v135q0 9 4 20q3 10 8 17l113 149q5 7 14 12q9 4 19 4h67q8 0 13 -6q4 -6 2 -13l-47 -163v-155q0 -8 -6 -14q-7 -7 -15 -7h-151z" />
    <glyph glyph-name="Hcircumflex" unicode="&#x124;" horiz-adv-x="1366" 
d="M1077 0q-8 0 -14 7q-6 6 -6 13l10 672h-768l8 -672q0 -7 -6 -13q-6 -7 -14 -7h-158q-8 0 -14 7q-6 6 -6 13l10 689l-10 704q0 8 6 15q6 6 14 6h158q8 0 14 -6q6 -7 6 -15l-6 -567h764l-8 567q0 8 6 15q6 6 14 6h158q8 0 14 -6q6 -7 6 -15l-10 -704l10 -689q0 -7 -6 -13
q-6 -7 -14 -7h-158zM988 1563q-3 -7 -11 -10q-9 -4 -16 0l-278 129l-278 -129q-7 -4 -15 0q-9 3 -12 10l-25 61q-3 7 0 16q2 9 9 13l263 163q7 5 18 8q10 3 20 3h40q10 0 21 -3q10 -3 17 -8l263 -163q7 -4 10 -13q2 -9 -1 -16z" />
    <glyph glyph-name="hcircumflex" unicode="&#x125;" horiz-adv-x="1075" 
d="M800 653q-1 147 -63 213t-158 66q-101 0 -182 -79q-81 -80 -115 -220l6 -613q0 -7 -6 -13q-7 -7 -15 -7h-147q-8 0 -14 7q-7 6 -6 13l7 707l-7 686q-1 8 6 15q6 6 14 6h147q8 0 15 -6q6 -7 5 -15l-5 -526q24 40 58 76q33 35 76 61q42 25 95 40q52 15 113 15q84 0 152 -26
q67 -27 113 -80q46 -54 70 -137q24 -84 23 -197l-2 -213l6 -406q0 -7 -6 -13q-6 -7 -14 -7h-152q-8 0 -14 7q-6 6 -6 13l6 404v229zM497 1563q-3 -7 -11 -10q-9 -4 -16 0l-278 129l-278 -129q-7 -4 -16 0q-8 3 -11 10l-25 61q-3 7 -1 16q3 9 10 13l263 163q7 5 18 8
q10 3 20 3h40q10 0 21 -3q10 -3 17 -8l263 -163q7 -4 10 -13q2 -9 -1 -16z" />
    <glyph glyph-name="Hbar" unicode="&#x126;" horiz-adv-x="1380" 
d="M1071 766l-2 240h-758l-2 -240h762zM1087 0q-7 0 -13 6q-7 6 -7 14l4 594h-762l4 -594q0 -8 -6 -14t-14 -6h-154q-8 0 -14 6t-6 14l6 689l-2 297h-109q-8 0 -14 6t-6 14v113q0 8 6 14t14 6h107l-2 254q0 8 6 15q6 6 14 6h154q8 0 14 -6q6 -7 6 -15l-2 -254h758l-2 254
q0 8 7 15q6 6 13 6h154q8 0 14 -6q6 -7 6 -15l-1 -254h104q8 0 14 -6t6 -14v-113q0 -8 -6 -14t-14 -6h-107l-2 -297l6 -689q0 -8 -6 -14t-14 -6h-154z" />
    <glyph glyph-name="hbar" unicode="&#x127;" horiz-adv-x="1079" 
d="M303 20q0 -7 -6 -13q-6 -7 -14 -7h-148q-8 0 -14 7q-6 6 -6 13l8 707l-5 436h-114q-8 0 -14 7q-6 6 -6 14v100q0 8 6 15q6 6 14 6h112l-1 108q0 8 6 15q6 6 14 6h148q8 0 14 -6q6 -7 6 -15l-1 -108h304q8 0 15 -6q6 -7 6 -15v-100q0 -8 -6 -14q-7 -7 -15 -7h-306l-3 -276
q24 40 58 76q33 35 76 61q42 25 95 40q52 15 113 15q84 0 152 -26q67 -27 113 -80q46 -54 70 -137q24 -84 23 -197l-2 -213l6 -406q0 -7 -6 -13q-6 -7 -14 -7h-152q-8 0 -14 7q-6 6 -6 13l6 404v229q-1 147 -63 213t-158 66q-50 0 -97 -20q-47 -21 -85 -59q-39 -38 -68 -94
q-30 -56 -47 -126z" />
    <glyph glyph-name="Itilde" unicode="&#x128;" horiz-adv-x="436" 
d="M141 0q-8 0 -14 7q-6 6 -6 13l8 709l-8 684q0 8 6 15q6 6 14 6h154q8 0 14 -6q6 -7 6 -15l-8 -684l8 -709q0 -7 -6 -13q-6 -7 -14 -7h-154zM505 1794q-4 -100 -45 -162q-42 -63 -126 -63q-47 0 -78 21t-55 47q-24 25 -45 46q-22 21 -50 21q-34 0 -50 -29t-19 -75
q0 -9 -6 -15q-7 -6 -15 -6h-64q-7 0 -14 7q-6 6 -5 14q2 47 13 88t32 71t53 47q31 17 73 17q47 0 79 -21q31 -21 55 -46q23 -26 44 -47t46 -21q37 0 54 30q16 29 19 76q0 9 7 15q6 6 14 6h64q7 0 14 -6q6 -7 5 -15z" />
    <glyph glyph-name="itilde" unicode="&#x129;" horiz-adv-x="406" 
d="M127 0q-8 0 -14 7q-6 6 -6 13l6 523l-6 491q0 8 6 15q6 6 14 6h152q8 0 14 -6q6 -7 6 -15l-6 -489l6 -525q0 -7 -6 -13q-6 -7 -14 -7h-152zM489 1415q-4 -100 -45 -162q-42 -63 -126 -63q-47 0 -78 21t-55 47q-24 25 -45 46q-22 21 -50 21q-34 0 -50 -29t-19 -75
q0 -9 -6 -15q-7 -6 -15 -6h-64q-7 0 -14 7q-6 6 -5 14q2 47 13 88t32 71t53 47q31 17 73 17q47 0 79 -21q31 -21 55 -46q23 -26 44 -47t46 -21q37 0 54 30q16 29 19 76q0 9 7 15q6 6 14 6h64q7 0 14 -6q6 -7 5 -15z" />
    <glyph glyph-name="Imacron" unicode="&#x12a;" horiz-adv-x="436" 
d="M141 0q-8 0 -14 7q-6 6 -6 13l8 709l-8 684q0 8 6 15q6 6 14 6h154q8 0 14 -6q6 -7 6 -15l-8 -684l8 -709q0 -7 -6 -13q-6 -7 -14 -7h-154zM-60 1596q-8 0 -14 6t-6 14v98q0 8 6 15q6 6 14 6h560q8 0 14 -6q6 -7 6 -15v-98q0 -8 -6 -14t-14 -6h-560z" />
    <glyph glyph-name="imacron" unicode="&#x12b;" horiz-adv-x="406" 
d="M127 0q-8 0 -14 7q-6 6 -6 13l6 523l-6 491q0 8 6 15q6 6 14 6h152q8 0 14 -6q6 -7 6 -15l-6 -489l6 -525q0 -7 -6 -13q-6 -7 -14 -7h-152zM-76 1217q-8 0 -14 6t-6 14v98q0 8 6 15q6 6 14 6h560q8 0 14 -6q6 -7 6 -15v-98q0 -8 -6 -14t-14 -6h-560z" />
    <glyph glyph-name="Ibreve" unicode="&#x12c;" horiz-adv-x="436" 
d="M141 0q-8 0 -14 7q-6 6 -6 13l8 709l-8 684q0 8 6 15q6 6 14 6h154q8 0 14 -6q6 -7 6 -15l-8 -684l8 -709q0 -7 -6 -13q-6 -7 -14 -7h-154zM507 1821q-3 -57 -25 -105q-22 -49 -59 -84t-89 -55t-115 -20t-115 20t-89 55t-59 84q-22 48 -25 105q-1 7 5 14q7 6 14 6h88
q9 0 15 -5q6 -6 7 -15q7 -57 47 -93t112 -36q69 0 111 36q41 36 48 93q1 9 7 15q6 5 15 5h88q7 0 14 -6q6 -7 5 -14z" />
    <glyph glyph-name="ibreve" unicode="&#x12d;" horiz-adv-x="406" 
d="M127 0q-8 0 -14 7q-6 6 -6 13l6 523l-6 491q0 8 6 15q6 6 14 6h152q8 0 14 -6q6 -7 6 -15l-6 -489l6 -525q0 -7 -6 -13q-6 -7 -14 -7h-152zM491 1442q-3 -57 -25 -105q-22 -49 -59 -84t-89 -55t-115 -20t-115 20t-89 55t-59 84q-22 48 -25 105q-1 7 5 14q7 6 14 6h88
q9 0 15 -5q6 -6 7 -15q7 -57 47 -93t112 -36q69 0 111 36q41 36 48 93q1 9 7 15q6 5 15 5h88q7 0 14 -6q6 -7 5 -14z" />
    <glyph glyph-name="Iogonek" unicode="&#x12e;" horiz-adv-x="436" 
d="M141 0q-8 0 -14 7q-6 6 -6 13l8 709l-8 684q0 8 6 15q6 6 14 6h154q8 0 14 -6q6 -7 6 -15l-8 -684l8 -709q0 -7 -6 -13q-6 -7 -14 -7h-154zM250 -393q-113 0 -183 54q-71 54 -71 142q0 46 17 84q17 39 46 69q28 30 66 53t79 39q7 3 16 0t13 -10l12 -19q4 -8 2 -16
q-2 -9 -9 -14q-15 -10 -32 -26q-17 -15 -30 -34q-14 -19 -23 -42q-10 -22 -10 -47q0 -50 35 -74q34 -24 86 -24h84q8 0 15 -7q6 -6 6 -14v-94q0 -8 -6 -14q-7 -6 -15 -6h-98z" />
    <glyph glyph-name="iogonek" unicode="&#x12f;" horiz-adv-x="406" 
d="M127 0q-8 0 -14 7q-6 6 -6 13l6 523l-6 491q0 8 6 15q6 6 14 6h152q8 0 14 -6q6 -7 6 -15l-6 -489l6 -525q0 -7 -6 -13q-6 -7 -14 -7h-152zM129 1180q-8 0 -14 6t-6 14v164q0 8 6 14t14 6h150q8 0 14 -6t6 -14v-164q0 -8 -6 -14t-14 -6h-150zM232 -393q-113 0 -183 54
q-71 54 -71 142q0 46 17 84q17 39 46 69q28 30 66 53t79 39q7 3 16 0t13 -10l12 -19q4 -8 2 -16q-2 -9 -9 -14q-15 -10 -32 -26q-17 -15 -30 -34q-14 -19 -23 -42q-10 -22 -10 -47q0 -50 35 -74q34 -24 86 -24h84q8 0 15 -7q6 -6 6 -14v-94q0 -8 -6 -14q-7 -6 -15 -6h-98z
" />
    <glyph glyph-name="Idotaccent" unicode="&#x130;" horiz-adv-x="436" 
d="M141 0q-8 0 -14 7q-6 6 -6 13l8 709l-8 684q0 8 6 15q6 6 14 6h154q8 0 14 -6q6 -7 6 -15l-8 -684l8 -709q0 -7 -6 -13q-6 -7 -14 -7h-154zM143 1559q-8 0 -14 6t-6 14v164q0 8 6 14t14 6h150q8 0 14 -6t6 -14v-164q0 -8 -6 -14t-14 -6h-150z" />
    <glyph glyph-name="dotlessi" unicode="&#x131;" horiz-adv-x="406" 
d="M127 0q-8 0 -14 7q-6 6 -6 13l6 523l-6 491q0 8 6 15q6 6 14 6h152q8 0 14 -6q6 -7 6 -15l-6 -489l6 -525q0 -7 -6 -13q-6 -7 -14 -7h-152z" />
    <glyph glyph-name="IJ" unicode="&#x132;" horiz-adv-x="1442" 
d="M141 0q-8 0 -14 7q-6 6 -6 13l8 709l-8 684q0 8 6 15q6 6 14 6h154q8 0 14 -6q6 -7 6 -15l-8 -684l8 -709q0 -7 -6 -13q-6 -7 -14 -7h-154zM1349 508q4 -263 -104 -400q-109 -137 -334 -137q-111 0 -192 36q-82 36 -134 103q-53 66 -79 163q-27 96 -29 216q0 8 7 15
q6 6 13 6h144q8 0 14 -6t6 -15q1 -82 14 -149t42 -113q28 -46 76 -71q47 -25 118 -25q74 0 122 26q47 25 75 74q28 48 39 119q11 70 12 160l2 401l-6 502q0 8 6 15q6 6 14 6h160q8 0 14 -6q6 -7 6 -15l-8 -502z" />
    <glyph glyph-name="ij" unicode="&#x133;" horiz-adv-x="813" 
d="M127 0q-8 0 -14 7q-6 6 -6 13l6 523l-6 491q0 8 6 15q6 6 14 6h152q8 0 14 -6q6 -7 6 -15l-6 -489l6 -525q0 -7 -6 -13q-6 -7 -14 -7h-152zM129 1180q-8 0 -14 6t-6 14v164q0 8 6 14t14 6h150q8 0 14 -6t6 -14v-164q0 -8 -6 -14t-14 -6h-150zM533 -348q-8 0 -14 6t-6 14
l6 668l-6 694q0 8 6 15q6 6 14 6h152q8 0 14 -6q6 -7 6 -15l-6 -694l6 -668q0 -8 -6 -14t-14 -6h-152zM534 1180q-8 0 -14 6t-6 14v164q0 8 6 14t14 6h150q8 0 14 -6t6 -14v-164q0 -8 -6 -14t-14 -6h-150z" />
    <glyph glyph-name="Jcircumflex" unicode="&#x134;" horiz-adv-x="1006" 
d="M913 508q4 -263 -104 -400q-109 -137 -334 -137q-111 0 -192 36q-82 36 -134 103q-53 66 -79 163q-27 96 -29 216q0 8 7 15q6 6 13 6h144q8 0 14 -6t6 -15q1 -82 14 -149t42 -113q28 -46 76 -71q47 -25 118 -25q74 0 122 26q47 25 75 74q28 48 39 119q11 70 12 160l2 401
l-6 502q0 8 6 15q6 6 14 6h160q8 0 14 -6q6 -7 6 -15l-8 -502zM1115 1563q-3 -7 -11 -10q-9 -4 -16 0l-278 129l-278 -129q-7 -4 -15 0q-9 3 -12 10l-25 61q-3 7 0 16q2 9 9 13l263 163q7 5 18 8q10 3 20 3h40q10 0 21 -3q10 -3 17 -8l263 -163q7 -4 10 -13q2 -9 -1 -16z
" />
    <glyph glyph-name="jcircumflex" unicode="&#x135;" horiz-adv-x="406" 
d="M127 -348q-8 0 -14 6t-6 14l6 668l-6 694q0 8 6 15q6 6 14 6h152q8 0 14 -6q6 -7 6 -15l-6 -694l6 -668q0 -8 -6 -14t-14 -6h-152zM507 1184q-3 -7 -11 -10q-9 -4 -16 0l-278 129l-278 -129q-7 -4 -16 0q-8 3 -11 10l-25 61q-3 7 -1 16q3 9 10 13l263 163q7 5 18 8
q10 3 20 3h40q10 0 21 -3q10 -3 17 -8l263 -163q7 -4 10 -13q2 -9 -1 -16z" />
    <glyph glyph-name="Kcommaaccent" unicode="&#x136;" horiz-adv-x="1163" 
d="M778 227l-317 482l-160 -195l4 -494q0 -8 -6 -14t-14 -6h-154q-8 0 -14 7q-6 6 -6 13l8 715l-8 678q0 8 6 15q6 6 14 6h154q8 0 14 -6q6 -7 6 -15l-6 -674l528 678q6 7 15 12t18 5h187q6 0 9 -6q2 -6 -2 -10l-468 -558l564 -843q4 -5 1 -11t-10 -6h-195q-9 0 -18 5
t-13 12zM510 -436q-8 0 -12 6q-5 7 -4 14l42 160v158q0 8 7 14q6 6 14 6h114q8 0 15 -6q6 -6 6 -14v-138q0 -9 -3 -20q-3 -10 -8 -18l-87 -145q-4 -7 -13 -12t-18 -5h-53z" />
    <glyph glyph-name="kcommaaccent" unicode="&#x137;" horiz-adv-x="956" 
d="M637 170l-223 367l-133 -148l3 -369q1 -7 -5 -13q-7 -7 -15 -7h-147q-8 0 -14 7q-7 6 -7 13l8 691l-8 702q0 8 7 15q6 6 14 6h147q8 0 15 -6q6 -7 5 -15l-5 -698v-115l399 440q7 7 16 11t19 4h172q6 0 8 -5q2 -6 -2 -10l-346 -370l391 -652q3 -6 0 -12t-10 -6h-176
q-10 0 -18 5q-9 5 -13 13zM398 -436q-8 0 -12 6q-5 7 -4 14l42 160v158q0 8 7 14q6 6 14 6h114q8 0 15 -6q6 -6 6 -14v-138q0 -9 -3 -20q-3 -10 -8 -18l-87 -145q-4 -7 -13 -12t-18 -5h-53z" />
    <glyph glyph-name="Lacute" unicode="&#x139;" horiz-adv-x="977" 
d="M131 0q-8 0 -14 7q-6 6 -6 13l8 730l-8 663q0 8 6 15q6 6 14 6h156q8 0 14 -6q6 -7 6 -15l-8 -653l8 -606h631q8 0 14 -6q6 -7 6 -15v-113q0 -8 -6 -14t-14 -6h-807zM86 1547q-7 -3 -15 1q-9 4 -12 11l-25 59q-4 7 0 15q3 8 10 12l438 208q7 4 15 0t11 -11l37 -110
q3 -8 -1 -16t-11 -11z" />
    <glyph glyph-name="lacute" unicode="&#x13a;" horiz-adv-x="403" 
d="M127 0q-8 0 -14 7q-6 6 -6 13l8 705l-8 688q0 8 6 15q6 6 14 6h147q8 0 15 -6q6 -7 6 -15l-8 -686l8 -707q0 -7 -6 -13q-7 -7 -15 -7h-147zM57 1547q-7 -3 -15 1q-9 4 -12 11l-25 59q-4 7 0 15q3 8 10 12l438 208q7 4 15 0t11 -11l37 -110q3 -8 -1 -16t-11 -11z" />
    <glyph glyph-name="Lcommaaccent" unicode="&#x13b;" horiz-adv-x="977" 
d="M131 0q-8 0 -14 7q-6 6 -6 13l8 730l-8 663q0 8 6 15q6 6 14 6h156q8 0 14 -6q6 -7 6 -15l-8 -653l8 -606h631q8 0 14 -6q6 -7 6 -15v-113q0 -8 -6 -14t-14 -6h-807zM447 -436q-8 0 -12 6q-5 7 -4 14l42 160v158q0 8 7 14q6 6 14 6h114q8 0 15 -6q6 -6 6 -14v-138
q0 -9 -3 -20q-3 -10 -8 -18l-87 -145q-4 -7 -13 -12t-18 -5h-53z" />
    <glyph glyph-name="lcommaaccent" unicode="&#x13c;" horiz-adv-x="403" 
d="M127 0q-8 0 -14 7q-6 6 -6 13l8 705l-8 688q0 8 6 15q6 6 14 6h147q8 0 15 -6q6 -7 6 -15l-8 -686l8 -707q0 -7 -6 -13q-7 -7 -15 -7h-147zM103 -436q-8 0 -12 6q-5 7 -4 14l42 160v158q0 8 7 14q6 6 14 6h114q8 0 15 -6q6 -6 6 -14v-138q0 -9 -3 -20q-3 -10 -8 -18
l-87 -145q-4 -7 -13 -12t-18 -5h-53z" />
    <glyph glyph-name="Lcaron" unicode="&#x13d;" horiz-adv-x="977" 
d="M131 0q-8 0 -14 7q-6 6 -6 13l8 730l-8 663q0 8 6 15q6 6 14 6h156q8 0 14 -6q6 -7 6 -15l-8 -653l8 -606h631q8 0 14 -6q6 -7 6 -15v-113q0 -8 -6 -14t-14 -6h-807zM823 1023q-2 -8 -9 -13q-8 -6 -17 -6h-84q-7 0 -12 7q-6 6 -5 13l73 385q1 9 9 15q7 6 15 6h119
q7 0 12 -6q5 -7 3 -14z" />
    <glyph glyph-name="lcaron" unicode="&#x13e;" horiz-adv-x="403" 
d="M127 0q-8 0 -14 7q-6 6 -6 13l8 705l-8 688q0 8 6 15q6 6 14 6h147q8 0 15 -6q6 -7 6 -15l-8 -686l8 -707q0 -7 -6 -13q-7 -7 -15 -7h-147zM495 1093q-2 -8 -9 -13q-8 -6 -17 -6h-84q-7 0 -12 7q-6 6 -5 13l73 385q1 9 9 15q7 6 15 6h119q7 0 12 -6q5 -7 3 -14z" />
    <glyph glyph-name="Ldot" unicode="&#x13f;" horiz-adv-x="977" 
d="M131 0q-8 0 -14 7q-6 6 -6 13l8 730l-8 663q0 8 6 15q6 6 14 6h156q8 0 14 -6q6 -7 6 -15l-8 -653l8 -606h631q8 0 14 -6q6 -7 6 -15v-113q0 -8 -6 -14t-14 -6h-807zM628 709q-8 0 -14 6t-6 14v164q0 8 6 14t14 6h150q8 0 14 -6t6 -14v-164q0 -8 -6 -14t-14 -6h-150z" />
    <glyph glyph-name="ldot" unicode="&#x140;" horiz-adv-x="586" 
d="M127 0q-8 0 -14 7q-6 6 -6 13l8 705l-8 688q0 8 6 15q6 6 14 6h147q8 0 15 -6q6 -7 6 -15l-8 -686l8 -707q0 -7 -6 -13q-7 -7 -15 -7h-147zM418 553q-8 0 -14 6t-6 14v164q0 8 6 14t14 6h150q8 0 14 -6t6 -14v-164q0 -8 -6 -14t-14 -6h-150z" />
    <glyph glyph-name="Lslash" unicode="&#x141;" horiz-adv-x="989" 
d="M156 0q-8 0 -14 7q-7 6 -7 13l6 553l-126 -40q-7 -3 -13 2t-6 12v115q0 8 6 16q5 8 13 10l128 41v21l-8 663q0 8 7 15q6 6 14 6h155q8 0 15 -6q6 -7 6 -15l-8 -625l326 105q7 2 14 -2q6 -5 6 -12v-117q0 -9 -6 -16q-6 -8 -14 -11l-325 -104l7 -477h631q8 0 14 -6
q6 -7 6 -15v-113q0 -8 -6 -14t-14 -6h-807z" />
    <glyph glyph-name="lslash" unicode="&#x142;" horiz-adv-x="451" 
d="M150 0q-8 0 -14 7q-7 6 -7 13l5 452l-91 -50q-7 -4 -12 0q-6 3 -6 10v111q0 9 5 18q5 8 13 12l93 52l1 100l-8 688q0 8 7 15q6 6 14 6h147q8 0 14 -6q6 -7 6 -15l-8 -686v-7l99 55q6 3 12 0q6 -4 6 -11v-111q0 -9 -5 -17q-5 -9 -13 -13l-97 -54l6 -549q0 -7 -6 -13
q-6 -7 -14 -7h-147z" />
    <glyph glyph-name="Nacute" unicode="&#x143;" horiz-adv-x="1378" 
d="M291 625l2 -605q0 -8 -6 -14q-7 -6 -15 -6h-143q-8 0 -14 7q-6 6 -6 13l10 707l-8 686q0 8 6 15q6 6 14 6h182q10 0 19 -5q8 -5 13 -13l751 -1172l-4 123l-5 426l-1 620q-1 8 6 15q6 6 14 6h143q8 0 15 -6q6 -7 5 -15l-9 -686l7 -707q1 -7 -5 -13q-7 -7 -15 -7h-192
q-10 0 -18 5q-9 5 -14 12l-740 1157l4 -150zM530 1547q-7 -3 -15 1q-9 4 -12 11l-25 59q-4 7 0 15q3 8 10 12l438 208q7 4 15 0t11 -11l37 -110q3 -8 -1 -16t-11 -11z" />
    <glyph glyph-name="nacute" unicode="&#x144;" horiz-adv-x="1075" 
d="M120 0q-8 0 -14 7q-7 6 -6 13l7 461l-5 553q-1 8 6 15q6 6 14 6h141q8 0 14 -6q6 -7 6 -15l-3 -157q24 40 58 77q34 36 78 64q43 28 97 45q54 16 117 16q81 0 147 -27q65 -27 111 -79q45 -52 70 -130q24 -79 24 -181v-211l6 -431q0 -7 -6 -13q-6 -7 -14 -7h-150
q-8 0 -14 7q-6 6 -6 13l4 431v202q0 143 -62 210t-161 67q-103 0 -181 -82q-79 -82 -110 -238v-159l4 -431q0 -7 -6 -13q-7 -7 -15 -7h-151zM389 1168q-7 -3 -15 1q-9 4 -12 11l-25 59q-4 7 0 15q3 8 10 12l438 208q7 4 15 0t11 -11l37 -110q3 -8 -1 -16t-11 -11z" />
    <glyph glyph-name="Ncommaaccent" unicode="&#x145;" horiz-adv-x="1378" 
d="M291 625l2 -605q0 -8 -6 -14q-7 -6 -15 -6h-143q-8 0 -14 7q-6 6 -6 13l10 707l-8 686q0 8 6 15q6 6 14 6h182q10 0 19 -5q8 -5 13 -13l751 -1172l-4 123l-5 426l-1 620q-1 8 6 15q6 6 14 6h143q8 0 15 -6q6 -7 5 -15l-9 -686l7 -707q1 -7 -5 -13q-7 -7 -15 -7h-192
q-10 0 -18 5q-9 5 -14 12l-740 1157l4 -150zM592 -436q-8 0 -12 6q-5 7 -4 14l42 160v158q0 8 7 14q6 6 14 6h114q8 0 15 -6q6 -6 6 -14v-138q0 -9 -3 -20q-3 -10 -8 -18l-87 -145q-4 -7 -13 -12t-18 -5h-53z" />
    <glyph glyph-name="ncommaaccent" unicode="&#x146;" horiz-adv-x="1075" 
d="M120 0q-8 0 -14 7q-7 6 -6 13l7 461l-5 553q-1 8 6 15q6 6 14 6h141q8 0 14 -6q6 -7 6 -15l-3 -157q24 40 58 77q34 36 78 64q43 28 97 45q54 16 117 16q81 0 147 -27q65 -27 111 -79q45 -52 70 -130q24 -79 24 -181v-211l6 -431q0 -7 -6 -13q-6 -7 -14 -7h-150
q-8 0 -14 7q-6 6 -6 13l4 431v202q0 143 -62 210t-161 67q-103 0 -181 -82q-79 -82 -110 -238v-159l4 -431q0 -7 -6 -13q-7 -7 -15 -7h-151zM445 -436q-8 0 -12 6q-5 7 -4 14l42 160v158q0 8 7 14q6 6 14 6h114q8 0 15 -6q6 -6 6 -14v-138q0 -9 -3 -20q-3 -10 -8 -18
l-87 -145q-4 -7 -13 -12t-18 -5h-53z" />
    <glyph glyph-name="Ncaron" unicode="&#x147;" horiz-adv-x="1378" 
d="M291 625l2 -605q0 -8 -6 -14q-7 -6 -15 -6h-143q-8 0 -14 7q-6 6 -6 13l10 707l-8 686q0 8 6 15q6 6 14 6h182q10 0 19 -5q8 -5 13 -13l751 -1172l-4 123l-5 426l-1 620q-1 8 6 15q6 6 14 6h143q8 0 15 -6q6 -7 5 -15l-9 -686l7 -707q1 -7 -5 -13q-7 -7 -15 -7h-192
q-10 0 -18 5q-9 5 -14 12l-740 1157l4 -150zM751 1561q-7 -4 -17 -7q-11 -4 -21 -4h-40q-10 0 -20 4q-11 3 -18 7l-263 163q-7 4 -9 13q-3 9 0 17l25 60q3 7 12 11q8 3 15 0l280 -129l276 128q7 4 16 1q8 -4 11 -11l25 -60q3 -8 1 -17q-3 -9 -10 -13z" />
    <glyph glyph-name="ncaron" unicode="&#x148;" horiz-adv-x="1075" 
d="M120 0q-8 0 -14 7q-7 6 -6 13l7 461l-5 553q-1 8 6 15q6 6 14 6h141q8 0 14 -6q6 -7 6 -15l-3 -157q24 40 58 77q34 36 78 64q43 28 97 45q54 16 117 16q81 0 147 -27q65 -27 111 -79q45 -52 70 -130q24 -79 24 -181v-211l6 -431q0 -7 -6 -13q-6 -7 -14 -7h-150
q-8 0 -14 7q-6 6 -6 13l4 431v202q0 143 -62 210t-161 67q-103 0 -181 -82q-79 -82 -110 -238v-159l4 -431q0 -7 -6 -13q-7 -7 -15 -7h-151zM600 1182q-7 -4 -17 -7q-11 -4 -21 -4h-40q-10 0 -20 4q-11 3 -18 7l-263 163q-7 4 -9 13q-3 9 0 17l25 60q3 7 12 11q8 3 15 0
l280 -129l276 128q7 4 16 1q8 -4 11 -11l25 -60q3 -8 1 -17q-3 -9 -10 -13z" />
    <glyph glyph-name="Eng" unicode="&#x14a;" horiz-adv-x="1360" 
d="M1258 -57q0 -87 -24 -147q-24 -59 -63 -96t-88 -54q-49 -16 -99 -17q-35 0 -70 5q-36 5 -64 11q-8 1 -14 9t-6 16v102q0 8 7 12q6 5 13 4q21 -5 45 -7q23 -2 50 -2q61 0 98 41t37 139v39l-803 1184l3 -135l4 -336l2 -691q0 -8 -6 -14q-7 -6 -15 -6h-141q-8 0 -14 6
q-7 6 -6 14l3 707l-1 686q-1 8 6 15q6 6 14 6h180q9 0 18 -5t14 -12l744 -1093l-4 182l2 287l-2 620q0 8 7 15q6 6 14 6h139q8 0 14 -6q6 -7 6 -15l-4 -616z" />
    <glyph glyph-name="eng" unicode="&#x14b;" horiz-adv-x="1065" 
d="M979 -55q0 -87 -24 -147q-25 -60 -64 -97q-40 -37 -90 -54q-50 -16 -101 -16q-34 0 -70 5q-37 5 -65 11q-8 1 -14 9t-6 16v98q0 8 6 12q6 5 14 4q22 -5 46 -7q23 -2 48 -2q63 0 100 41q36 42 36 143v692q0 143 -61 210q-62 67 -161 67q-104 0 -181 -82q-78 -82 -109 -238
v-159l2 -431q0 -8 -6 -14q-7 -6 -15 -6h-149q-8 0 -14 6q-7 6 -7 14l4 461l-2 553q0 8 7 15q6 6 14 6h141q8 0 14 -6q6 -7 6 -15l-6 -157q25 40 60 77q34 36 78 64t98 45q54 16 117 16q81 0 147 -27t112 -79q45 -52 70 -130q25 -79 25 -181v-717z" />
    <glyph glyph-name="Omacron" unicode="&#x14c;" horiz-adv-x="1501" 
d="M1436 715q0 -168 -49 -305q-50 -138 -140 -234q-90 -97 -217 -150t-280 -53q-154 0 -281 54q-127 53 -216 150q-89 96 -138 234q-49 137 -49 304q0 171 49 310q49 138 138 235q89 96 216 148t281 52t281 -52t217 -148q89 -96 139 -234q49 -139 49 -311zM262 715
q0 -135 34 -244q33 -109 96 -184t154 -115q91 -41 204 -41q114 0 205 40t154 115t97 184q33 109 33 245t-33 246q-34 109 -97 185q-63 75 -154 116t-205 41q-115 0 -206 -40q-91 -41 -153 -116q-63 -76 -96 -185q-33 -110 -33 -247zM469 1596q-8 0 -14 6t-6 14v98q0 8 6 15
q6 6 14 6h560q8 0 14 -6q6 -7 6 -15v-98q0 -8 -6 -14t-14 -6h-560z" />
    <glyph glyph-name="omacron" unicode="&#x14d;" horiz-adv-x="1120" 
d="M1061 528q0 -124 -33 -226t-96 -174q-63 -73 -157 -113t-214 -40q-119 0 -212 40q-94 39 -157 111q-64 71 -97 173q-34 101 -34 225q0 125 34 228q33 102 97 175q63 72 157 112q93 40 212 40q120 0 214 -39q94 -40 157 -112t96 -174t33 -226zM252 524q0 -197 78 -304
q77 -107 231 -107t231 107q76 107 76 304t-77 308q-77 110 -230 110q-156 -1 -232 -111q-77 -110 -77 -307zM280 1217q-8 0 -14 6t-6 14v98q0 8 6 15q6 6 14 6h560q8 0 14 -6q6 -7 6 -15v-98q0 -8 -6 -14t-14 -6h-560z" />
    <glyph glyph-name="Obreve" unicode="&#x14e;" horiz-adv-x="1501" 
d="M1436 715q0 -168 -49 -305q-50 -138 -140 -234q-90 -97 -217 -150t-280 -53q-154 0 -281 54q-127 53 -216 150q-89 96 -138 234q-49 137 -49 304q0 171 49 310q49 138 138 235q89 96 216 148t281 52t281 -52t217 -148q89 -96 139 -234q49 -139 49 -311zM262 715
q0 -135 34 -244q33 -109 96 -184t154 -115q91 -41 204 -41q114 0 205 40t154 115t97 184q33 109 33 245t-33 246q-34 109 -97 185q-63 75 -154 116t-205 41q-115 0 -206 -40q-91 -41 -153 -116q-63 -76 -96 -185q-33 -110 -33 -247zM1038 1821q-3 -57 -25 -105
q-22 -49 -59 -84t-89 -55t-115 -20t-115 20t-89 55t-59 84q-22 48 -25 105q-1 7 6 14q6 6 13 6h88q9 0 15 -5q6 -6 7 -15q7 -57 47 -93t112 -36q69 0 111 36q41 36 48 93q1 9 7 15q6 5 15 5h88q7 0 14 -6q6 -7 5 -14z" />
    <glyph glyph-name="obreve" unicode="&#x14f;" horiz-adv-x="1120" 
d="M1061 528q0 -124 -33 -226t-96 -174q-63 -73 -157 -113t-214 -40q-119 0 -212 40q-94 39 -157 111q-64 71 -97 173q-34 101 -34 225q0 125 34 228q33 102 97 175q63 72 157 112q93 40 212 40q120 0 214 -39q94 -40 157 -112t96 -174t33 -226zM252 524q0 -197 78 -304
q77 -107 231 -107t231 107q76 107 76 304t-77 308q-77 110 -230 110q-156 -1 -232 -111q-77 -110 -77 -307zM847 1442q-3 -57 -25 -105q-22 -49 -59 -84t-89 -55t-115 -20t-115 20t-89 55t-59 84q-22 48 -25 105q-1 7 6 14q6 6 13 6h88q9 0 15 -5q6 -6 7 -15q7 -57 47 -93
t112 -36q69 0 111 36q41 36 48 93q1 9 7 15q6 5 15 5h88q7 0 14 -6q6 -7 5 -14z" />
    <glyph glyph-name="Ohungarumlaut" unicode="&#x150;" horiz-adv-x="1501" 
d="M1436 715q0 -168 -49 -305q-50 -138 -140 -234q-90 -97 -217 -150t-280 -53q-154 0 -281 54q-127 53 -216 150q-89 96 -138 234q-49 137 -49 304q0 171 49 310q49 138 138 235q89 96 216 148t281 52t281 -52t217 -148q89 -96 139 -234q49 -139 49 -311zM262 715
q0 -135 34 -244q33 -109 96 -184t154 -115q91 -41 204 -41q114 0 205 40t154 115t97 184q33 109 33 245t-33 246q-34 109 -97 185q-63 75 -154 116t-205 41q-115 0 -206 -40q-91 -41 -153 -116q-63 -76 -96 -185q-33 -110 -33 -247zM594 1582q-5 -6 -14 -6q-9 -1 -15 5
l-37 34q-7 5 -7 14q-1 9 4 16l231 311q5 6 14 7q8 0 13 -5l70 -73q5 -6 5 -15t-5 -15zM881 1576q-6 -6 -14 -6q-9 -1 -15 4l-35 32q-7 6 -7 15q-1 9 3 16l230 313q4 6 13 7q8 0 14 -5l69 -72q6 -5 6 -14t-5 -15z" />
    <glyph glyph-name="ohungarumlaut" unicode="&#x151;" horiz-adv-x="1120" 
d="M1061 528q0 -124 -33 -226t-96 -174q-63 -73 -157 -113t-214 -40q-119 0 -212 40q-94 39 -157 111q-64 71 -97 173q-34 101 -34 225q0 125 34 228q33 102 97 175q63 72 157 112q93 40 212 40q120 0 214 -39q94 -40 157 -112t96 -174t33 -226zM252 524q0 -197 78 -304
q77 -107 231 -107t231 107q76 107 76 304t-77 308q-77 110 -230 110q-156 -1 -232 -111q-77 -110 -77 -307zM408 1203q-5 -6 -14 -6q-9 -1 -15 5l-37 34q-7 5 -7 14q-1 9 4 16l231 311q5 6 14 7q8 0 13 -5l70 -73q5 -6 5 -15t-5 -15zM695 1197q-6 -6 -14 -6q-9 -1 -15 4
l-35 32q-7 6 -7 15q-1 9 3 16l230 313q4 6 13 7q8 0 14 -5l69 -72q6 -5 6 -14t-5 -15z" />
    <glyph glyph-name="OE" unicode="&#x152;" horiz-adv-x="2068" 
d="M805 0q-143 0 -274 44q-131 43 -230 131t-158 224q-59 135 -59 318q0 175 56 310q55 134 152 224t230 137q133 46 287 46h1161q8 0 15 -6q6 -7 6 -15v-113q0 -8 -6 -14q-7 -6 -15 -6h-688l-4 -438h643q8 0 15 -6q6 -7 6 -15v-112q0 -8 -6 -14q-7 -7 -15 -7h-643l4 -534
h705q8 0 14 -6q6 -7 6 -15v-113q0 -8 -6 -14t-14 -6h-1182zM1083 154q0 1 2 62q1 61 3 146t4 177q1 92 2 155v90q-1 59 -2 144q-2 85 -4 163q-2 77 -3 133q-2 55 -2 56h-286q-106 0 -200 -35t-164 -104q-70 -70 -111 -176q-41 -107 -41 -248q0 -149 44 -256t116 -175
q71 -68 162 -100t185 -32h295z" />
    <glyph glyph-name="oe" unicode="&#x153;" horiz-adv-x="1913" 
d="M1819 367q7 0 13 -7q5 -7 4 -14q-12 -80 -47 -148q-35 -69 -92 -118t-135 -77q-79 -28 -178 -28q-154 0 -261 72q-107 71 -158 193q-54 -124 -159 -194q-105 -71 -255 -71q-118 0 -210 40q-92 39 -154 111q-63 71 -95 173q-33 101 -33 225q0 125 33 228q32 102 95 175
q62 72 154 112t210 40q147 0 255 -69q107 -70 161 -197q54 124 159 195t248 71q112 0 201 -38q89 -39 150 -110t95 -175q33 -104 35 -234q0 -8 -6 -14t-14 -6h-776q4 -190 84 -289q80 -100 233 -100q116 0 187 60t94 173q2 9 9 15t16 6h137zM1655 633q-2 63 -21 120
q-20 56 -56 99q-36 42 -89 67q-54 25 -123 25q-130 0 -205 -81q-76 -82 -96 -230h590zM252 524q0 -197 78 -304q77 -107 231 -107q153 0 229 107t76 304t-76 308q-77 110 -231 110q-154 -1 -230 -111q-77 -110 -77 -307z" />
    <glyph glyph-name="Racute" unicode="&#x154;" horiz-adv-x="1235" 
d="M971 1008q0 136 -86 205q-87 69 -238 69h-342l-8 -547h354q71 0 130 16q59 15 101 48t66 85q23 52 23 124zM825 248l-219 338h-307l8 -566q0 -7 -6 -13q-6 -7 -14 -7h-158q-8 0 -14 7q-6 6 -6 13l10 717l-10 676q0 8 6 15q6 6 14 6h502q121 0 219 -26q98 -27 166 -80
t105 -132q36 -80 36 -184q0 -172 -94 -274t-254 -136l374 -585q4 -5 1 -11t-10 -6h-183q-9 0 -17 5q-9 5 -14 13zM485 1547q-7 -3 -15 1q-9 4 -12 11l-25 59q-4 7 0 15q3 8 10 12l438 208q7 4 15 0t11 -11l37 -110q3 -8 -1 -16t-11 -11z" />
    <glyph glyph-name="racute" unicode="&#x155;" horiz-adv-x="739" 
d="M118 0q-8 0 -14 7q-7 6 -6 13l7 519l-7 495q-1 8 6 15q6 6 14 6h147q8 0 14 -6q6 -7 6 -15l-5 -178q27 51 66 91q39 39 85 65t99 40q53 13 108 13q15 0 30 -1q15 -2 28 -4q7 -1 14 -9q6 -8 6 -16v-110q0 -9 -6 -13q-6 -5 -14 -4q-12 1 -27 2t-33 1q-66 0 -125 -20
q-60 -21 -107 -62t-78 -104q-32 -64 -42 -150l4 -555q0 -8 -6 -14q-7 -6 -15 -6h-149zM244 1168q-7 -3 -15 1q-9 4 -12 11l-25 59q-4 7 0 15q3 8 10 12l438 208q7 4 15 0t11 -11l37 -110q3 -8 -1 -16t-11 -11z" />
    <glyph glyph-name="Rcommaaccent" unicode="&#x156;" horiz-adv-x="1235" 
d="M971 1008q0 136 -86 205q-87 69 -238 69h-342l-8 -547h354q71 0 130 16q59 15 101 48t66 85q23 52 23 124zM825 248l-219 338h-307l8 -566q0 -7 -6 -13q-6 -7 -14 -7h-158q-8 0 -14 7q-6 6 -6 13l10 717l-10 676q0 8 6 15q6 6 14 6h502q121 0 219 -26q98 -27 166 -80
t105 -132q36 -80 36 -184q0 -172 -94 -274t-254 -136l374 -585q4 -5 1 -11t-10 -6h-183q-9 0 -17 5q-9 5 -14 13zM518 -436q-8 0 -12 6q-5 7 -4 14l42 160v158q0 8 7 14q6 6 14 6h114q8 0 15 -6q6 -6 6 -14v-138q0 -9 -3 -20q-3 -10 -8 -18l-87 -145q-4 -7 -13 -12t-18 -5
h-53z" />
    <glyph glyph-name="rcommaaccent" unicode="&#x157;" horiz-adv-x="739" 
d="M118 0q-8 0 -14 7q-7 6 -6 13l7 519l-7 495q-1 8 6 15q6 6 14 6h147q8 0 14 -6q6 -7 6 -15l-5 -178q27 51 66 91q39 39 85 65t99 40q53 13 108 13q15 0 30 -1q15 -2 28 -4q7 -1 14 -9q6 -8 6 -16v-110q0 -9 -6 -13q-6 -5 -14 -4q-12 1 -27 2t-33 1q-66 0 -125 -20
q-60 -21 -107 -62t-78 -104q-32 -64 -42 -150l4 -555q0 -8 -6 -14q-7 -6 -15 -6h-149zM95 -436q-8 0 -12 6q-5 7 -4 14l42 160v158q0 8 7 14q6 6 14 6h114q8 0 15 -6q6 -6 6 -14v-138q0 -9 -3 -20q-3 -10 -8 -18l-87 -145q-4 -7 -13 -12t-18 -5h-53z" />
    <glyph glyph-name="Rcaron" unicode="&#x158;" horiz-adv-x="1235" 
d="M971 1008q0 136 -86 205q-87 69 -238 69h-342l-8 -547h354q71 0 130 16q59 15 101 48t66 85q23 52 23 124zM825 248l-219 338h-307l8 -566q0 -7 -6 -13q-6 -7 -14 -7h-158q-8 0 -14 7q-6 6 -6 13l10 717l-10 676q0 8 6 15q6 6 14 6h502q121 0 219 -26q98 -27 166 -80
t105 -132q36 -80 36 -184q0 -172 -94 -274t-254 -136l374 -585q4 -5 1 -11t-10 -6h-183q-9 0 -17 5q-9 5 -14 13zM688 1561q-7 -4 -17 -7q-11 -4 -21 -4h-40q-10 0 -20 4q-11 3 -18 7l-263 163q-7 4 -9 13q-3 9 0 17l25 60q3 7 12 11q8 3 15 0l280 -129l276 128q7 4 16 1
q8 -4 11 -11l25 -60q3 -8 1 -17q-3 -9 -10 -13z" />
    <glyph glyph-name="rcaron" unicode="&#x159;" horiz-adv-x="739" 
d="M118 0q-8 0 -14 7q-7 6 -6 13l7 519l-7 495q-1 8 6 15q6 6 14 6h147q8 0 14 -6q6 -7 6 -15l-5 -178q27 51 66 91q39 39 85 65t99 40q53 13 108 13q15 0 30 -1q15 -2 28 -4q7 -1 14 -9q6 -8 6 -16v-110q0 -9 -6 -13q-6 -5 -14 -4q-12 1 -27 2t-33 1q-66 0 -125 -20
q-60 -21 -107 -62t-78 -104q-32 -64 -42 -150l4 -555q0 -8 -6 -14q-7 -6 -15 -6h-149zM465 1182q-7 -4 -17 -7q-11 -4 -21 -4h-40q-10 0 -20 4q-11 3 -18 7l-263 163q-7 4 -9 13q-3 9 0 17l25 60q3 7 12 11q8 3 15 0l280 -129l276 128q7 4 16 1q8 -4 11 -11l25 -60
q3 -8 1 -17q-3 -9 -10 -13z" />
    <glyph glyph-name="Sacute" unicode="&#x15a;" horiz-adv-x="1264" 
d="M1206 420q0 -110 -41 -194q-42 -84 -115 -139q-74 -56 -176 -84q-103 -28 -225 -28q-135 0 -243 33q-108 32 -183 95q-75 62 -117 156q-43 93 -48 214q0 8 6 15q6 6 14 6h155q9 0 16 -6q6 -6 7 -15q7 -79 32 -143q24 -65 71 -109q46 -44 119 -68t177 -24q79 0 147 15
q67 15 116 48q48 32 75 83q27 50 27 120q0 149 -146 193q-147 44 -321 78t-320 106q-147 72 -147 275q0 98 38 175q37 77 106 129q68 52 165 80q97 27 215 27q123 0 223 -26q99 -26 171 -79q71 -53 115 -134q43 -82 55 -191q1 -7 -5 -13q-6 -7 -14 -7h-157q-9 0 -15 6
q-7 5 -8 14q-13 137 -105 206t-264 69q-73 0 -134 -14q-62 -14 -106 -43q-45 -30 -69 -75q-25 -45 -25 -106q0 -138 147 -177q146 -40 320 -73q174 -34 321 -110q146 -76 146 -285zM465 1547q-7 -3 -15 1q-9 4 -12 11l-25 59q-4 7 0 15q3 8 10 12l438 208q7 4 15 0t11 -11
l37 -110q3 -8 -1 -16t-11 -11z" />
    <glyph glyph-name="sacute" unicode="&#x15b;" horiz-adv-x="1026" 
d="M972 303q0 -77 -34 -138t-93 -102q-60 -42 -140 -64q-81 -22 -174 -22q-103 0 -189 23t-147 69q-62 46 -97 116q-36 69 -39 161q-1 8 6 15q6 6 13 6h140q8 0 15 -6q6 -6 6 -15q6 -124 81 -182t213 -58q116 0 189 48q72 48 72 135q0 103 -111 131q-112 28 -245 52
q-134 24 -245 81q-112 56 -112 215q0 76 31 134q30 58 85 97q54 38 132 58q77 20 170 20q90 0 168 -19q78 -20 136 -59t93 -99q35 -61 40 -142q1 -8 -5 -14q-7 -7 -14 -7h-133q-9 0 -15 6q-7 6 -8 15q-10 98 -81 145t-183 47q-109 0 -173 -41q-65 -42 -65 -129
q0 -98 112 -123q111 -25 245 -48q133 -23 245 -82q111 -59 111 -224zM338 1168q-7 -3 -15 1q-9 4 -12 11l-25 59q-4 7 0 15q3 8 10 12l438 208q7 4 15 0t11 -11l37 -110q3 -8 -1 -16t-11 -11z" />
    <glyph glyph-name="Scircumflex" unicode="&#x15c;" horiz-adv-x="1264" 
d="M1206 420q0 -110 -41 -194q-42 -84 -115 -139q-74 -56 -176 -84q-103 -28 -225 -28q-135 0 -243 33q-108 32 -183 95q-75 62 -117 156q-43 93 -48 214q0 8 6 15q6 6 14 6h155q9 0 16 -6q6 -6 7 -15q7 -79 32 -143q24 -65 71 -109q46 -44 119 -68t177 -24q79 0 147 15
q67 15 116 48q48 32 75 83q27 50 27 120q0 149 -146 193q-147 44 -321 78t-320 106q-147 72 -147 275q0 98 38 175q37 77 106 129q68 52 165 80q97 27 215 27q123 0 223 -26q99 -26 171 -79q71 -53 115 -134q43 -82 55 -191q1 -7 -5 -13q-6 -7 -14 -7h-157q-9 0 -15 6
q-7 5 -8 14q-13 137 -105 206t-264 69q-73 0 -134 -14q-62 -14 -106 -43q-45 -30 -69 -75q-25 -45 -25 -106q0 -138 147 -177q146 -40 320 -73q174 -34 321 -110q146 -76 146 -285zM935 1563q-3 -7 -11 -10q-9 -4 -16 0l-278 129l-278 -129q-7 -4 -15 0q-9 3 -12 10l-25 61
q-3 7 0 16q2 9 9 13l263 163q7 5 18 8q10 3 20 3h40q10 0 21 -3q10 -3 17 -8l263 -163q7 -4 10 -13q2 -9 -1 -16z" />
    <glyph glyph-name="scircumflex" unicode="&#x15d;" horiz-adv-x="1026" 
d="M972 303q0 -77 -34 -138t-93 -102q-60 -42 -140 -64q-81 -22 -174 -22q-103 0 -189 23t-147 69q-62 46 -97 116q-36 69 -39 161q-1 8 6 15q6 6 13 6h140q8 0 15 -6q6 -6 6 -15q6 -124 81 -182t213 -58q116 0 189 48q72 48 72 135q0 103 -111 131q-112 28 -245 52
q-134 24 -245 81q-112 56 -112 215q0 76 31 134q30 58 85 97q54 38 132 58q77 20 170 20q90 0 168 -19q78 -20 136 -59t93 -99q35 -61 40 -142q1 -8 -5 -14q-7 -7 -14 -7h-133q-9 0 -15 6q-7 6 -8 15q-10 98 -81 145t-183 47q-109 0 -173 -41q-65 -42 -65 -129
q0 -98 112 -123q111 -25 245 -48q133 -23 245 -82q111 -59 111 -224zM816 1184q-3 -7 -11 -10q-9 -4 -16 0l-278 129l-278 -129q-7 -4 -15 0q-9 3 -12 10l-25 61q-3 7 0 16q2 9 9 13l263 163q7 5 18 8q10 3 20 3h40q10 0 21 -3q10 -3 17 -8l263 -163q7 -4 10 -13
q2 -9 -1 -16z" />
    <glyph glyph-name="Scedilla" unicode="&#x15e;" horiz-adv-x="1264" 
d="M1206 420q0 -110 -41 -194q-42 -84 -115 -139q-74 -56 -176 -84q-103 -28 -225 -28q-135 0 -243 33q-108 32 -183 95q-75 62 -117 156q-43 93 -48 214q0 8 6 15q6 6 14 6h155q9 0 16 -6q6 -6 7 -15q7 -79 32 -143q24 -65 71 -109q46 -44 119 -68t177 -24q79 0 147 15
q67 15 116 48q48 32 75 83q27 50 27 120q0 149 -146 193q-147 44 -321 78t-320 106q-147 72 -147 275q0 98 38 175q37 77 106 129q68 52 165 80q97 27 215 27q123 0 223 -26q99 -26 171 -79q71 -53 115 -134q43 -82 55 -191q1 -7 -5 -13q-6 -7 -14 -7h-157q-9 0 -15 6
q-7 5 -8 14q-13 137 -105 206t-264 69q-73 0 -134 -14q-62 -14 -106 -43q-45 -30 -69 -75q-25 -45 -25 -106q0 -138 147 -177q146 -40 320 -73q174 -34 321 -110q146 -76 146 -285zM628 -334q-2 -8 -9 -13q-8 -4 -16 -3l-134 30q-8 1 -12 9t-1 15l122 310q4 7 12 12
q8 4 16 3l87 -15q7 -1 12 -8q5 -8 3 -16z" />
    <glyph glyph-name="scedilla" unicode="&#x15f;" horiz-adv-x="1026" 
d="M972 303q0 -77 -34 -138t-93 -102q-60 -42 -140 -64q-81 -22 -174 -22q-103 0 -189 23t-147 69q-62 46 -97 116q-36 69 -39 161q-1 8 6 15q6 6 13 6h140q8 0 15 -6q6 -6 6 -15q6 -124 81 -182t213 -58q116 0 189 48q72 48 72 135q0 103 -111 131q-112 28 -245 52
q-134 24 -245 81q-112 56 -112 215q0 76 31 134q30 58 85 97q54 38 132 58q77 20 170 20q90 0 168 -19q78 -20 136 -59t93 -99q35 -61 40 -142q1 -8 -5 -14q-7 -7 -14 -7h-133q-9 0 -15 6q-7 6 -8 15q-10 98 -81 145t-183 47q-109 0 -173 -41q-65 -42 -65 -129
q0 -98 112 -123q111 -25 245 -48q133 -23 245 -82q111 -59 111 -224zM495 -336q-2 -8 -9 -13q-8 -4 -16 -3l-134 30q-8 1 -12 9t-1 15l122 310q4 7 12 12q8 4 16 3l87 -15q7 -1 12 -8q5 -8 3 -16z" />
    <glyph glyph-name="Scaron" unicode="&#x160;" horiz-adv-x="1264" 
d="M1206 420q0 -110 -41 -194q-42 -84 -115 -139q-74 -56 -176 -84q-103 -28 -225 -28q-135 0 -243 33q-108 32 -183 95q-75 62 -117 156q-43 93 -48 214q0 8 6 15q6 6 14 6h155q9 0 16 -6q6 -6 7 -15q7 -79 32 -143q24 -65 71 -109q46 -44 119 -68t177 -24q79 0 147 15
q67 15 116 48q48 32 75 83q27 50 27 120q0 149 -146 193q-147 44 -321 78t-320 106q-147 72 -147 275q0 98 38 175q37 77 106 129q68 52 165 80q97 27 215 27q123 0 223 -26q99 -26 171 -79q71 -53 115 -134q43 -82 55 -191q1 -7 -5 -13q-6 -7 -14 -7h-157q-9 0 -15 6
q-7 5 -8 14q-13 137 -105 206t-264 69q-73 0 -134 -14q-62 -14 -106 -43q-45 -30 -69 -75q-25 -45 -25 -106q0 -138 147 -177q146 -40 320 -73q174 -34 321 -110q146 -76 146 -285zM688 1561q-7 -4 -17 -7q-11 -4 -21 -4h-40q-10 0 -20 4q-11 3 -18 7l-263 163q-7 4 -9 13
q-3 9 0 17l25 60q3 7 12 11q8 3 15 0l280 -129l276 128q7 4 16 1q8 -4 11 -11l25 -60q3 -8 1 -17q-3 -9 -10 -13z" />
    <glyph glyph-name="scaron" unicode="&#x161;" horiz-adv-x="1026" 
d="M972 303q0 -77 -34 -138t-93 -102q-60 -42 -140 -64q-81 -22 -174 -22q-103 0 -189 23t-147 69q-62 46 -97 116q-36 69 -39 161q-1 8 6 15q6 6 13 6h140q8 0 15 -6q6 -6 6 -15q6 -124 81 -182t213 -58q116 0 189 48q72 48 72 135q0 103 -111 131q-112 28 -245 52
q-134 24 -245 81q-112 56 -112 215q0 76 31 134q30 58 85 97q54 38 132 58q77 20 170 20q90 0 168 -19q78 -20 136 -59t93 -99q35 -61 40 -142q1 -8 -5 -14q-7 -7 -14 -7h-133q-9 0 -15 6q-7 6 -8 15q-10 98 -81 145t-183 47q-109 0 -173 -41q-65 -42 -65 -129
q0 -98 112 -123q111 -25 245 -48q133 -23 245 -82q111 -59 111 -224zM569 1182q-7 -4 -17 -7q-11 -4 -21 -4h-40q-10 0 -20 4q-11 3 -18 7l-263 163q-7 4 -9 13q-3 9 0 17l25 60q3 7 12 11q8 3 15 0l280 -129l276 128q7 4 16 1q8 -4 11 -11l25 -60q3 -8 1 -17q-3 -9 -10 -13
z" />
    <glyph glyph-name="Tcedilla" unicode="&#x162;" horiz-adv-x="1077" 
d="M459 0q-8 0 -14 7q-7 6 -6 13l10 691l-9 569h-395q-8 0 -14 6t-6 14v113q0 8 6 15q6 6 14 6h987q8 0 15 -6q6 -7 6 -15v-113q0 -8 -6 -14q-7 -6 -15 -6h-395l-8 -569l10 -691q0 -7 -6 -13q-7 -7 -15 -7h-159zM527 -330q-2 -8 -9 -13q-8 -4 -16 -3l-134 30q-8 1 -12 9
t-1 15l122 310q4 7 12 12q8 4 16 3l87 -15q7 -1 12 -8q5 -8 3 -16z" />
    <glyph glyph-name="tcedilla" unicode="&#x163;" horiz-adv-x="666" 
d="M625 33q0 -9 -6 -16q-6 -8 -14 -11q-31 -9 -69 -17q-38 -7 -73 -7q-57 0 -109 16t-90 52q-39 36 -61 96q-23 59 -23 145v618h-114q-8 0 -14 7q-7 6 -7 14v104q0 8 7 15q6 6 14 6h114l-2 243q0 8 7 15q6 6 14 6h149q8 0 14 -6q6 -7 6 -15l-3 -243h239q8 0 15 -6
q6 -7 6 -15v-104q0 -8 -6 -14q-7 -7 -15 -7h-239v-614q0 -95 33 -130q33 -36 100 -36q29 0 57 4q28 3 50 9q7 1 14 -3q6 -5 6 -13v-93zM380 -334q-2 -8 -9 -13q-8 -4 -16 -3l-134 30q-8 1 -12 9t-1 15l122 310q4 7 12 12q8 4 16 3l87 -15q7 -1 12 -8q5 -8 3 -16z" />
    <glyph glyph-name="Tcaron" unicode="&#x164;" horiz-adv-x="1077" 
d="M459 0q-8 0 -14 7q-7 6 -6 13l10 691l-9 569h-395q-8 0 -14 6t-6 14v113q0 8 6 15q6 6 14 6h987q8 0 15 -6q6 -7 6 -15v-113q0 -8 -6 -14q-7 -6 -15 -6h-395l-8 -569l10 -691q0 -7 -6 -13q-7 -7 -15 -7h-159zM596 1561q-7 -4 -17 -7q-11 -4 -21 -4h-40q-10 0 -20 4
q-11 3 -18 7l-263 163q-7 4 -9 13q-3 9 0 17l25 60q3 7 12 11q8 3 15 0l280 -129l276 128q7 4 16 1q8 -4 11 -11l25 -60q3 -8 1 -17q-3 -9 -10 -13z" />
    <glyph glyph-name="tcaron" unicode="&#x165;" horiz-adv-x="666" 
d="M625 33q0 -9 -6 -16q-6 -8 -14 -11q-31 -9 -69 -17q-38 -7 -73 -7q-57 0 -109 16t-90 52q-39 36 -61 96q-23 59 -23 145v618h-114q-8 0 -14 7q-7 6 -7 14v104q0 8 7 15q6 6 14 6h114l-2 243q0 8 7 15q6 6 14 6h149q8 0 14 -6q6 -7 6 -15l-3 -243h239q8 0 15 -6
q6 -7 6 -15v-104q0 -8 -6 -14q-7 -7 -15 -7h-239v-614q0 -95 33 -130q33 -36 100 -36q29 0 57 4q28 3 50 9q7 1 14 -3q6 -5 6 -13v-93zM603 1199q-2 -8 -9 -13q-8 -6 -17 -6h-84q-7 0 -12 7q-6 6 -5 13l73 385q1 9 9 15q7 6 15 6h119q7 0 12 -6q5 -7 3 -14z" />
    <glyph glyph-name="Tbar" unicode="&#x166;" horiz-adv-x="1077" 
d="M639 20q0 -7 -6 -13q-7 -7 -15 -7h-159q-8 0 -14 7q-7 6 -6 13l8 576h-236q-8 0 -14 6q-7 6 -7 14v113q0 8 7 15q6 6 14 6h237l-8 530h-395q-8 0 -14 6t-6 14v113q0 8 6 15q6 6 14 6h987q8 0 15 -6q6 -7 6 -15v-113q0 -8 -6 -14q-7 -6 -15 -6h-395l-8 -530h239q8 0 15 -6
q6 -7 6 -15v-113q0 -8 -6 -14q-7 -6 -15 -6h-238z" />
    <glyph glyph-name="tbar" unicode="&#x167;" horiz-adv-x="672" 
d="M607 6q-31 -9 -68 -17q-38 -7 -74 -7q-57 0 -109 16t-90 52q-39 36 -61 96q-23 59 -23 145v203h-116q-8 0 -14 6q-7 6 -7 14v104q0 8 7 15q6 6 14 6h116v270h-114q-8 0 -14 7q-7 6 -7 14v104q0 8 7 15q6 6 14 6h114l-2 243q0 8 7 15q6 6 14 6h149q8 0 15 -6q6 -7 5 -15
l-3 -243h239q8 0 15 -6q6 -7 6 -15v-104q0 -8 -6 -14q-7 -7 -15 -7h-239v-270h237q8 0 15 -6q6 -7 6 -15v-104q0 -8 -6 -14q-7 -6 -15 -6h-237v-199q0 -95 33 -130q33 -36 100 -36q29 0 57 4q28 3 50 9q7 1 14 -3q6 -5 6 -13v-93q0 -9 -6 -16q-6 -8 -14 -11z" />
    <glyph glyph-name="Utilde" unicode="&#x168;" horiz-adv-x="1243" 
d="M1151 543q0 -135 -32 -241q-33 -107 -98 -179q-65 -73 -164 -111q-100 -39 -232 -39t-233 39q-101 38 -167 111q-67 72 -100 179q-34 106 -33 241l2 446l-8 424q0 8 7 15q6 6 13 6h162q8 0 15 -6q6 -7 5 -15l-7 -420l2 -450q0 -91 19 -166q19 -76 61 -129q41 -54 106 -83
q65 -30 156 -30q93 0 160 30q66 29 108 83q42 53 62 129q20 75 20 166v446l-6 424q0 8 6 15q6 6 14 6h146q8 0 14 -6q6 -7 6 -15l-4 -424v-446zM907 1794q-4 -100 -45 -162q-42 -63 -126 -63q-47 0 -78 21t-55 47q-24 25 -45 46q-22 21 -50 21q-34 0 -50 -29t-19 -75
q0 -9 -6 -15q-7 -6 -15 -6h-64q-7 0 -13 7q-7 6 -6 14q2 47 13 88t32 71t53 47q31 17 73 17q47 0 79 -21q31 -21 55 -46q23 -26 44 -47t46 -21q37 0 54 30q16 29 19 76q0 9 7 15q6 6 14 6h64q7 0 14 -6q6 -7 5 -15z" />
    <glyph glyph-name="utilde" unicode="&#x169;" horiz-adv-x="1075" 
d="M799 180q-25 -40 -59 -77q-35 -38 -79 -66t-98 -45t-117 -17q-81 0 -146 27q-66 27 -111 80q-46 52 -70 131q-25 79 -25 182v209l-4 430q0 8 7 15q6 6 14 6h147q8 0 14 -6q6 -7 6 -15l-4 -430v-203q0 -142 63 -209t161 -67q104 0 182 82t108 237v160l-1 430q-1 8 6 15
q6 6 14 6h149q8 0 15 -6q6 -7 6 -15l-6 -461l4 -553q0 -8 -6 -14q-7 -6 -15 -6h-141q-8 0 -14 7q-6 6 -6 13zM818 1415q-4 -100 -45 -162q-42 -63 -126 -63q-47 0 -78 21t-55 47q-24 25 -45 46q-22 21 -50 21q-34 0 -50 -29t-19 -75q0 -9 -6 -15q-7 -6 -15 -6h-64
q-7 0 -13 7q-7 6 -6 14q2 47 13 88t32 71t53 47q31 17 73 17q47 0 79 -21q31 -21 55 -46q23 -26 44 -47t46 -21q37 0 54 30q16 29 19 76q0 9 7 15q6 6 14 6h64q7 0 14 -6q6 -7 5 -15z" />
    <glyph glyph-name="Umacron" unicode="&#x16a;" horiz-adv-x="1243" 
d="M1151 543q0 -135 -32 -241q-33 -107 -98 -179q-65 -73 -164 -111q-100 -39 -232 -39t-233 39q-101 38 -167 111q-67 72 -100 179q-34 106 -33 241l2 446l-8 424q0 8 7 15q6 6 13 6h162q8 0 15 -6q6 -7 5 -15l-7 -420l2 -450q0 -91 19 -166q19 -76 61 -129q41 -54 106 -83
q65 -30 156 -30q93 0 160 30q66 29 108 83q42 53 62 129q20 75 20 166v446l-6 424q0 8 6 15q6 6 14 6h146q8 0 14 -6q6 -7 6 -15l-4 -424v-446zM342 1596q-8 0 -14 6t-6 14v98q0 8 6 15q6 6 14 6h560q8 0 14 -6q6 -7 6 -15v-98q0 -8 -6 -14t-14 -6h-560z" />
    <glyph glyph-name="umacron" unicode="&#x16b;" horiz-adv-x="1075" 
d="M799 180q-25 -40 -59 -77q-35 -38 -79 -66t-98 -45t-117 -17q-81 0 -146 27q-66 27 -111 80q-46 52 -70 131q-25 79 -25 182v209l-4 430q0 8 7 15q6 6 14 6h147q8 0 14 -6q6 -7 6 -15l-4 -430v-203q0 -142 63 -209t161 -67q104 0 182 82t108 237v160l-1 430q-1 8 6 15
q6 6 14 6h149q8 0 15 -6q6 -7 6 -15l-6 -461l4 -553q0 -8 -6 -14q-7 -6 -15 -6h-141q-8 0 -14 7q-6 6 -6 13zM254 1217q-8 0 -14 6t-6 14v98q0 8 6 15q6 6 14 6h560q8 0 14 -6q6 -7 6 -15v-98q0 -8 -6 -14t-14 -6h-560z" />
    <glyph glyph-name="Ubreve" unicode="&#x16c;" horiz-adv-x="1243" 
d="M1151 543q0 -135 -32 -241q-33 -107 -98 -179q-65 -73 -164 -111q-100 -39 -232 -39t-233 39q-101 38 -167 111q-67 72 -100 179q-34 106 -33 241l2 446l-8 424q0 8 7 15q6 6 13 6h162q8 0 15 -6q6 -7 5 -15l-7 -420l2 -450q0 -91 19 -166q19 -76 61 -129q41 -54 106 -83
q65 -30 156 -30q93 0 160 30q66 29 108 83q42 53 62 129q20 75 20 166v446l-6 424q0 8 6 15q6 6 14 6h146q8 0 14 -6q6 -7 6 -15l-4 -424v-446zM909 1821q-3 -57 -25 -105q-22 -49 -59 -84t-89 -55t-115 -20t-115 20t-89 55t-59 84q-22 48 -25 105q-1 7 6 14q6 6 13 6h88
q9 0 15 -5q6 -6 7 -15q7 -57 47 -93t112 -36q69 0 111 36q41 36 48 93q1 9 7 15q6 5 15 5h88q7 0 14 -6q6 -7 5 -14z" />
    <glyph glyph-name="ubreve" unicode="&#x16d;" horiz-adv-x="1075" 
d="M799 180q-25 -40 -59 -77q-35 -38 -79 -66t-98 -45t-117 -17q-81 0 -146 27q-66 27 -111 80q-46 52 -70 131q-25 79 -25 182v209l-4 430q0 8 7 15q6 6 14 6h147q8 0 14 -6q6 -7 6 -15l-4 -430v-203q0 -142 63 -209t161 -67q104 0 182 82t108 237v160l-1 430q-1 8 6 15
q6 6 14 6h149q8 0 15 -6q6 -7 6 -15l-6 -461l4 -553q0 -8 -6 -14q-7 -6 -15 -6h-141q-8 0 -14 7q-6 6 -6 13zM823 1442q-3 -57 -25 -105q-22 -49 -59 -84t-89 -55t-115 -20t-115 20t-89 55t-59 84q-22 48 -25 105q-1 7 6 14q6 6 13 6h88q9 0 15 -5q6 -6 7 -15q7 -57 47 -93
t112 -36q69 0 111 36q41 36 48 93q1 9 7 15q6 5 15 5h88q7 0 14 -6q6 -7 5 -14z" />
    <glyph glyph-name="Uring" unicode="&#x16e;" horiz-adv-x="1243" 
d="M1151 543q0 -135 -32 -241q-33 -107 -98 -179q-65 -73 -164 -111q-100 -39 -232 -39t-233 39q-101 38 -167 111q-67 72 -100 179q-34 106 -33 241l2 446l-8 424q0 8 7 15q6 6 13 6h162q8 0 15 -6q6 -7 5 -15l-7 -420l2 -450q0 -91 19 -166q19 -76 61 -129q41 -54 106 -83
q65 -30 156 -30q93 0 160 30q66 29 108 83q42 53 62 129q20 75 20 166v446l-6 424q0 8 6 15q6 6 14 6h146q8 0 14 -6q6 -7 6 -15l-4 -424v-446zM840 1768q0 -46 -16 -85q-17 -40 -46 -68q-30 -29 -71 -45q-41 -17 -88 -17t-87 17q-40 16 -69 45q-30 28 -46 68q-17 39 -17 85
q0 45 17 84q16 39 46 68q29 28 69 45q40 16 87 16t88 -16q41 -17 71 -45q29 -29 46 -68q16 -39 16 -84zM504 1768q0 -63 32 -99q32 -37 83 -37t84 37q33 36 33 99t-33 98t-84 35t-83 -35t-32 -98z" />
    <glyph glyph-name="uring" unicode="&#x16f;" horiz-adv-x="1075" 
d="M799 180q-25 -40 -59 -77q-35 -38 -79 -66t-98 -45t-117 -17q-81 0 -146 27q-66 27 -111 80q-46 52 -70 131q-25 79 -25 182v209l-4 430q0 8 7 15q6 6 14 6h147q8 0 14 -6q6 -7 6 -15l-4 -430v-203q0 -142 63 -209t161 -67q104 0 182 82t108 237v160l-1 430q-1 8 6 15
q6 6 14 6h149q8 0 15 -6q6 -7 6 -15l-6 -461l4 -553q0 -8 -6 -14q-7 -6 -15 -6h-141q-8 0 -14 7q-6 6 -6 13zM751 1389q0 -46 -16 -85q-17 -40 -46 -68q-30 -29 -71 -45q-41 -17 -88 -17t-87 17q-40 16 -69 45q-30 28 -46 68q-17 39 -17 85q0 45 17 84q16 39 46 68
q29 28 69 45q40 16 87 16t88 -16q41 -17 71 -45q29 -29 46 -68q16 -39 16 -84zM415 1389q0 -63 32 -99q32 -37 83 -37t84 37q33 36 33 99t-33 98t-84 35t-83 -35t-32 -98z" />
    <glyph glyph-name="Uhungarumlaut" unicode="&#x170;" horiz-adv-x="1243" 
d="M1151 543q0 -135 -32 -241q-33 -107 -98 -179q-65 -73 -164 -111q-100 -39 -232 -39t-233 39q-101 38 -167 111q-67 72 -100 179q-34 106 -33 241l2 446l-8 424q0 8 7 15q6 6 13 6h162q8 0 15 -6q6 -7 5 -15l-7 -420l2 -450q0 -91 19 -166q19 -76 61 -129q41 -54 106 -83
q65 -30 156 -30q93 0 160 30q66 29 108 83q42 53 62 129q20 75 20 166v446l-6 424q0 8 6 15q6 6 14 6h146q8 0 14 -6q6 -7 6 -15l-4 -424v-446zM472 1582q-5 -6 -14 -6q-9 -1 -15 5l-37 34q-7 5 -7 14q-1 9 4 16l231 311q5 6 14 7q8 0 13 -5l70 -73q5 -6 5 -15t-5 -15z
M759 1576q-6 -6 -14 -6q-9 -1 -15 4l-35 32q-7 6 -7 15q-1 9 3 16l230 313q4 6 13 7q8 0 14 -5l69 -72q6 -5 6 -14t-5 -15z" />
    <glyph glyph-name="uhungarumlaut" unicode="&#x171;" horiz-adv-x="1075" 
d="M799 180q-25 -40 -59 -77q-35 -38 -79 -66t-98 -45t-117 -17q-81 0 -146 27q-66 27 -111 80q-46 52 -70 131q-25 79 -25 182v209l-4 430q0 8 7 15q6 6 14 6h147q8 0 14 -6q6 -7 6 -15l-4 -430v-203q0 -142 63 -209t161 -67q104 0 182 82t108 237v160l-1 430q-1 8 6 15
q6 6 14 6h149q8 0 15 -6q6 -7 6 -15l-6 -461l4 -553q0 -8 -6 -14q-7 -6 -15 -6h-141q-8 0 -14 7q-6 6 -6 13zM381 1203q-5 -6 -14 -6q-9 -1 -15 5l-37 34q-7 5 -7 14q-1 9 4 16l231 311q5 6 14 7q8 0 13 -5l70 -73q5 -6 5 -15t-5 -15zM668 1197q-6 -6 -14 -6q-9 -1 -15 4
l-35 32q-7 6 -7 15q-1 9 3 16l230 313q4 6 13 7q8 0 14 -5l69 -72q6 -5 6 -14t-5 -15z" />
    <glyph glyph-name="Uogonek" unicode="&#x172;" horiz-adv-x="1243" 
d="M1151 543q0 -135 -32 -241q-33 -107 -98 -179q-65 -73 -164 -111q-100 -39 -232 -39t-233 39q-101 38 -167 111q-67 72 -100 179q-34 106 -33 241l2 446l-8 424q0 8 7 15q6 6 13 6h162q8 0 15 -6q6 -7 5 -15l-7 -420l2 -450q0 -91 19 -166q19 -76 61 -129q41 -54 106 -83
q65 -30 156 -30q93 0 160 30q66 29 108 83q42 53 62 129q20 75 20 166v446l-6 424q0 8 6 15q6 6 14 6h146q8 0 14 -6q6 -7 6 -15l-4 -424v-446zM705 -393q-113 0 -183 54q-71 54 -71 142q0 46 17 84q17 39 46 69q28 30 66 53t79 39q7 3 16 0t13 -10l12 -19q4 -8 2 -16
q-2 -9 -9 -14q-15 -10 -32 -26q-17 -15 -30 -34q-14 -19 -23 -42q-10 -22 -10 -47q0 -50 35 -74q34 -24 86 -24h84q8 0 15 -7q6 -6 6 -14v-94q0 -8 -6 -14q-7 -6 -15 -6h-98z" />
    <glyph glyph-name="uogonek" unicode="&#x173;" horiz-adv-x="1075" 
d="M799 180q-25 -40 -59 -77q-35 -38 -79 -66t-98 -45t-117 -17q-81 0 -146 27q-66 27 -111 80q-46 52 -70 131q-25 79 -25 182v209l-4 430q0 8 7 15q6 6 14 6h147q8 0 14 -6q6 -7 6 -15l-4 -430v-203q0 -142 63 -209t161 -67q104 0 182 82t108 237v160l-1 430q-1 8 6 15
q6 6 14 6h149q8 0 15 -6q6 -7 6 -15l-6 -461l4 -553q0 -8 -6 -14q-7 -6 -15 -6h-141q-8 0 -14 7q-6 6 -6 13zM899 -393q-113 0 -183 54q-71 54 -71 142q0 46 17 84q17 39 46 69q28 30 66 53t79 39q7 3 16 0t13 -10l12 -19q4 -8 2 -16q-2 -9 -9 -14q-15 -10 -32 -26
q-17 -15 -30 -34q-14 -19 -23 -42q-10 -22 -10 -47q0 -50 35 -74q34 -24 86 -24h84q8 0 15 -7q6 -6 6 -14v-94q0 -8 -6 -14q-7 -6 -15 -6h-98z" />
    <glyph glyph-name="Wcircumflex" unicode="&#x174;" horiz-adv-x="1802" 
d="M1208 0q-8 0 -15 6q-8 6 -10 14l-288 1151l-276 -1151q-2 -8 -9 -14t-16 -6h-186q-9 0 -16 6q-8 6 -10 14l-358 1394q-2 7 3 14q5 6 12 6h154q8 0 16 -6q7 -6 9 -14l294 -1230l280 1230q2 8 10 14q7 6 15 6h176q9 0 17 -6q7 -6 8 -14l287 -1230l292 1230q1 8 9 14
q7 6 16 6h139q8 0 13 -6q4 -7 3 -14l-361 -1394q-2 -8 -9 -14q-8 -6 -16 -6h-183zM1205 1563q-3 -7 -11 -10q-9 -4 -16 0l-278 129l-278 -129q-7 -4 -15 0q-9 3 -12 10l-25 61q-3 7 0 16q2 9 9 13l263 163q7 5 18 8q10 3 20 3h40q10 0 21 -3q10 -3 17 -8l263 -163
q7 -4 10 -13q2 -9 -1 -16z" />
    <glyph glyph-name="wcircumflex" unicode="&#x175;" horiz-adv-x="1446" 
d="M965 0q-9 0 -16 6q-8 6 -10 14l-222 881l-200 -881q-2 -8 -9 -14q-8 -6 -16 -6h-175q-8 0 -15 6q-8 5 -10 14l-272 1015q-2 7 3 14q5 6 12 6h147q9 0 17 -6q7 -6 8 -14l205 -879l202 879q2 8 9 14t16 6h182q9 0 17 -6q7 -6 9 -14l210 -867l196 867q2 8 9 14t16 6h131
q7 0 12 -6q5 -7 3 -14l-256 -1015q-2 -8 -9 -14q-8 -6 -16 -6h-178zM1027 1184q-3 -7 -11 -10q-9 -4 -16 0l-278 129l-278 -129q-7 -4 -15 0q-9 3 -12 10l-25 61q-3 7 0 16q2 9 9 13l263 163q7 5 18 8q10 3 20 3h40q10 0 21 -3q10 -3 17 -8l263 -163q7 -4 10 -13
q2 -9 -1 -16z" />
    <glyph glyph-name="Ycircumflex" unicode="&#x176;" horiz-adv-x="1161" 
d="M676 20q0 -7 -6 -13q-7 -7 -15 -7h-155q-8 0 -14 7q-7 6 -6 13l7 482l-471 913q-4 7 0 13t11 6h176q9 0 17 -5q8 -6 12 -14l356 -743l357 743q4 8 13 14q8 5 17 5h160q7 0 11 -6q3 -6 0 -13l-476 -917zM888 1563q-3 -7 -11 -10q-9 -4 -16 0l-278 129l-278 -129
q-7 -4 -15 0q-9 3 -12 10l-25 61q-3 7 0 16q2 9 9 13l263 163q7 5 18 8q10 3 20 3h40q10 0 21 -3q10 -3 17 -8l263 -163q7 -4 10 -13q2 -9 -1 -16z" />
    <glyph glyph-name="ycircumflex" unicode="&#x177;" horiz-adv-x="973" 
d="M489 -329q-3 -8 -10 -14q-8 -5 -17 -5h-135q-8 0 -12 6q-5 6 -2 13l112 329l-412 1036q-3 7 1 13t12 6h168q8 0 16 -5q8 -6 11 -14l298 -794l254 793q3 8 11 14q7 6 16 6h149q7 0 12 -6q4 -7 2 -14zM793 1184q-3 -7 -11 -10q-9 -4 -16 0l-278 129l-278 -129q-7 -4 -15 0
q-9 3 -12 10l-25 61q-3 7 0 16q2 9 9 13l263 163q7 5 18 8q10 3 20 3h40q10 0 21 -3q10 -3 17 -8l263 -163q7 -4 10 -13q2 -9 -1 -16z" />
    <glyph glyph-name="Ydieresis" unicode="&#x178;" horiz-adv-x="1161" 
d="M676 20q0 -7 -6 -13q-7 -7 -15 -7h-155q-8 0 -14 7q-7 6 -6 13l7 482l-471 913q-4 7 0 13t11 6h176q9 0 17 -5q8 -6 12 -14l356 -743l357 743q4 8 13 14q8 5 17 5h160q7 0 11 -6q3 -6 0 -13l-476 -917zM359 1581q-8 0 -14 7q-7 6 -7 14v163q0 8 7 15q6 6 14 6h125
q8 0 14 -6q6 -7 6 -15v-163q0 -8 -6 -14q-6 -7 -14 -7h-125zM684 1581q-8 0 -14 7q-6 6 -6 14v163q0 8 6 15q6 6 14 6h125q8 0 15 -6q6 -7 6 -15v-163q0 -8 -6 -14q-7 -7 -15 -7h-125z" />
    <glyph glyph-name="Zacute" unicode="&#x179;" horiz-adv-x="1165" 
d="M1110 20q0 -8 -6 -14t-14 -6h-1014q-8 0 -14 6q-7 6 -7 14v127q0 10 4 20q3 10 8 17l805 1096h-743q-8 0 -14 6t-6 14v113q0 8 6 15q6 6 14 6h950q8 0 15 -6q6 -7 6 -15v-131q0 -9 -3 -19q-4 -11 -9 -18l-799 -1091h801q8 0 14 -6q6 -7 6 -15v-113zM416 1547q-7 -3 -15 1
q-9 4 -12 11l-25 59q-4 7 0 15q3 8 10 12l438 208q7 4 15 0t11 -11l37 -110q3 -8 -1 -16t-11 -11z" />
    <glyph glyph-name="zacute" unicode="&#x17a;" horiz-adv-x="954" 
d="M893 20q0 -8 -6 -14q-7 -6 -15 -6h-788q-8 0 -14 6q-7 6 -7 14v105q0 9 4 20q3 10 9 17l563 747h-512q-8 0 -14 7q-7 6 -7 14v104q0 8 7 15q6 6 14 6h721q8 0 14 -6q6 -7 6 -15v-104q0 -10 -3 -20q-4 -10 -9 -17l-571 -748h587q8 0 15 -6q6 -6 6 -14v-105zM313 1168
q-7 -3 -15 1q-9 4 -12 11l-25 59q-4 7 0 15q3 8 10 12l438 208q7 4 15 0t11 -11l37 -110q3 -8 -1 -16t-11 -11z" />
    <glyph glyph-name="Zdotaccent" unicode="&#x17b;" horiz-adv-x="1165" 
d="M1110 20q0 -8 -6 -14t-14 -6h-1014q-8 0 -14 6q-7 6 -7 14v127q0 10 4 20q3 10 8 17l805 1096h-743q-8 0 -14 6t-6 14v113q0 8 6 15q6 6 14 6h950q8 0 15 -6q6 -7 6 -15v-131q0 -9 -3 -19q-4 -11 -9 -18l-799 -1091h801q8 0 14 -6q6 -7 6 -15v-113zM508 1559q-8 0 -14 6
t-6 14v164q0 8 6 14t14 6h150q8 0 14 -6t6 -14v-164q0 -8 -6 -14t-14 -6h-150z" />
    <glyph glyph-name="zdotaccent" unicode="&#x17c;" horiz-adv-x="954" 
d="M893 20q0 -8 -6 -14q-7 -6 -15 -6h-788q-8 0 -14 6q-7 6 -7 14v105q0 9 4 20q3 10 9 17l563 747h-512q-8 0 -14 7q-7 6 -7 14v104q0 8 7 15q6 6 14 6h721q8 0 14 -6q6 -7 6 -15v-104q0 -10 -3 -20q-4 -10 -9 -17l-571 -748h587q8 0 15 -6q6 -6 6 -14v-105zM407 1180
q-8 0 -14 6t-6 14v164q0 8 6 14t14 6h150q8 0 14 -6t6 -14v-164q0 -8 -6 -14t-14 -6h-150z" />
    <glyph glyph-name="Zcaron" unicode="&#x17d;" horiz-adv-x="1165" 
d="M1110 20q0 -8 -6 -14t-14 -6h-1014q-8 0 -14 6q-7 6 -7 14v127q0 10 4 20q3 10 8 17l805 1096h-743q-8 0 -14 6t-6 14v113q0 8 6 15q6 6 14 6h950q8 0 15 -6q6 -7 6 -15v-131q0 -9 -3 -19q-4 -11 -9 -18l-799 -1091h801q8 0 14 -6q6 -7 6 -15v-113zM661 1561
q-7 -4 -17 -7q-11 -4 -21 -4h-40q-10 0 -20 4q-11 3 -18 7l-263 163q-7 4 -9 13q-3 9 0 17l25 60q3 7 12 11q8 3 15 0l280 -129l276 128q7 4 16 1q8 -4 11 -11l25 -60q3 -8 1 -17q-3 -9 -10 -13z" />
    <glyph glyph-name="zcaron" unicode="&#x17e;" horiz-adv-x="954" 
d="M893 20q0 -8 -6 -14q-7 -6 -15 -6h-788q-8 0 -14 6q-7 6 -7 14v105q0 9 4 20q3 10 9 17l563 747h-512q-8 0 -14 7q-7 6 -7 14v104q0 8 7 15q6 6 14 6h721q8 0 14 -6q6 -7 6 -15v-104q0 -10 -3 -20q-4 -10 -9 -17l-571 -748h587q8 0 15 -6q6 -6 6 -14v-105zM538 1182
q-7 -4 -17 -7q-11 -4 -21 -4h-40q-10 0 -20 4q-11 3 -18 7l-263 163q-7 4 -9 13q-3 9 0 17l25 60q3 7 12 11q8 3 15 0l280 -129l276 128q7 4 16 1q8 -4 11 -11l25 -60q3 -8 1 -17q-3 -9 -10 -13z" />
    <glyph glyph-name="florin" unicode="&#x192;" horiz-adv-x="723" 
d="M414 -55q0 -87 -24 -147q-25 -60 -64 -97t-89 -54q-50 -16 -100 -16q-34 0 -70 5q-37 5 -66 11q-7 1 -13 9t-6 16v98q0 8 6 12q6 5 13 4q22 -5 46 -7q23 -2 49 -2q63 0 99 41q36 42 36 143v950h-145q-8 0 -14 7q-6 6 -6 14v102q0 8 6 15q6 6 14 6h145v92q0 86 25 146
q24 60 64 97q39 37 90 54q50 16 100 16q35 0 71 -4q35 -4 63 -10q7 -1 14 -8q6 -8 6 -16v-101q0 -7 -6 -12q-7 -5 -14 -3q-21 5 -44 8q-24 3 -51 3q-61 0 -98 -42q-37 -43 -37 -142v-78h229q8 0 15 -6q6 -7 6 -15v-102q0 -8 -6 -14q-7 -7 -15 -7h-229v-966z" />
    <glyph glyph-name="Scommaaccent" unicode="&#x218;" horiz-adv-x="1264" 
d="M1206 420q0 -110 -41 -194q-42 -84 -115 -139q-74 -56 -176 -84q-103 -28 -225 -28q-135 0 -243 33q-108 32 -183 95q-75 62 -117 156q-43 93 -48 214q0 8 6 15q6 6 14 6h155q9 0 16 -6q6 -6 7 -15q7 -79 32 -143q24 -65 71 -109q46 -44 119 -68t177 -24q79 0 147 15
q67 15 116 48q48 32 75 83q27 50 27 120q0 149 -146 193q-147 44 -321 78t-320 106q-147 72 -147 275q0 98 38 175q37 77 106 129q68 52 165 80q97 27 215 27q123 0 223 -26q99 -26 171 -79q71 -53 115 -134q43 -82 55 -191q1 -7 -5 -13q-6 -7 -14 -7h-157q-9 0 -15 6
q-7 5 -8 14q-13 137 -105 206t-264 69q-73 0 -134 -14q-62 -14 -106 -43q-45 -30 -69 -75q-25 -45 -25 -106q0 -138 147 -177q146 -40 320 -73q174 -34 321 -110q146 -76 146 -285zM518 -436q-8 0 -12 6q-5 7 -4 14l42 160v158q0 8 7 14q6 6 14 6h114q8 0 15 -6q6 -6 6 -14
v-138q0 -9 -3 -20q-3 -10 -8 -18l-87 -145q-4 -7 -13 -12t-18 -5h-53z" />
    <glyph glyph-name="scommaaccent" unicode="&#x219;" horiz-adv-x="1026" 
d="M972 303q0 -77 -34 -138t-93 -102q-60 -42 -140 -64q-81 -22 -174 -22q-103 0 -189 23t-147 69q-62 46 -97 116q-36 69 -39 161q-1 8 6 15q6 6 13 6h140q8 0 15 -6q6 -6 6 -15q6 -124 81 -182t213 -58q116 0 189 48q72 48 72 135q0 103 -111 131q-112 28 -245 52
q-134 24 -245 81q-112 56 -112 215q0 76 31 134q30 58 85 97q54 38 132 58q77 20 170 20q90 0 168 -19q78 -20 136 -59t93 -99q35 -61 40 -142q1 -8 -5 -14q-7 -7 -14 -7h-133q-9 0 -15 6q-7 6 -8 15q-10 98 -81 145t-183 47q-109 0 -173 -41q-65 -42 -65 -129
q0 -98 112 -123q111 -25 245 -48q133 -23 245 -82q111 -59 111 -224zM391 -436q-8 0 -12 6q-5 7 -4 14l42 160v158q0 8 7 14q6 6 14 6h114q8 0 15 -6q6 -6 6 -14v-138q0 -9 -3 -20q-3 -10 -8 -18l-87 -145q-4 -7 -13 -12t-18 -5h-53z" />
    <glyph glyph-name="Tcommaaccent" unicode="&#x21a;" horiz-adv-x="1077" 
d="M459 0q-8 0 -14 7q-7 6 -6 13l10 691l-9 569h-395q-8 0 -14 6t-6 14v113q0 8 6 15q6 6 14 6h987q8 0 15 -6q6 -7 6 -15v-113q0 -8 -6 -14q-7 -6 -15 -6h-395l-8 -569l10 -691q0 -7 -6 -13q-7 -7 -15 -7h-159zM430 -436q-8 0 -12 6q-5 7 -4 14l42 160v158q0 8 7 14
q6 6 14 6h114q8 0 15 -6q6 -6 6 -14v-138q0 -9 -3 -20q-3 -10 -8 -18l-87 -145q-4 -7 -13 -12t-18 -5h-53z" />
    <glyph glyph-name="tcommaaccent" unicode="&#x21b;" horiz-adv-x="666" 
d="M625 33q0 -9 -6 -16q-6 -8 -14 -11q-31 -9 -69 -17q-38 -7 -73 -7q-57 0 -109 16t-90 52q-39 36 -61 96q-23 59 -23 145v618h-114q-8 0 -14 7q-7 6 -7 14v104q0 8 7 15q6 6 14 6h114l-2 243q0 8 7 15q6 6 14 6h149q8 0 14 -6q6 -7 6 -15l-3 -243h239q8 0 15 -6
q6 -7 6 -15v-104q0 -8 -6 -14q-7 -7 -15 -7h-239v-614q0 -95 33 -130q33 -36 100 -36q29 0 57 4q28 3 50 9q7 1 14 -3q6 -5 6 -13v-93zM297 -436q-8 0 -12 6q-5 7 -4 14l42 160v158q0 8 7 14q6 6 14 6h114q8 0 15 -6q6 -6 6 -14v-138q0 -9 -3 -20q-3 -10 -8 -18l-87 -145
q-4 -7 -13 -12t-18 -5h-53z" />
    <glyph glyph-name="dotlessj" unicode="&#x237;" horiz-adv-x="406" 
d="M127 -348q-8 0 -14 6t-6 14l6 668l-6 694q0 8 6 15q6 6 14 6h152q8 0 14 -6q6 -7 6 -15l-6 -694l6 -668q0 -8 -6 -14t-14 -6h-152z" />
    <glyph glyph-name="schwa" unicode="&#x259;" horiz-adv-x="1116" 
d="M1040 530q0 -123 -34 -225q-35 -103 -98 -176q-64 -73 -155 -113q-92 -41 -206 -41t-205 39q-91 38 -153 110q-63 71 -97 175t-37 234q0 7 7 14q6 6 14 6h776q-4 191 -83 290q-80 99 -234 99q-116 0 -186 -59q-71 -60 -95 -173q-2 -8 -9 -14t-16 -6h-137q-7 0 -13 7
q-6 6 -5 13q13 79 49 147t94 117t139 77q80 28 181 28q122 0 217 -40q94 -41 157 -113q63 -73 96 -174q33 -102 33 -222zM256 422q2 -63 22 -119q19 -57 55 -98q36 -42 89 -67t123 -25q128 0 205 81q76 81 96 228h-590z" />
    <glyph glyph-name="uni02BB" unicode="&#x2bb;" horiz-adv-x="342" 
d="M285 1434q7 0 12 -6q4 -7 3 -14l-50 -185v-191q0 -8 -6 -14q-7 -6 -15 -6h-145q-8 0 -14 6q-7 6 -7 14v168q0 10 4 21q3 10 8 17l112 172q5 8 14 13t18 5h66z" />
    <glyph glyph-name="uni02BC" unicode="&#x2bc;" horiz-adv-x="342" 
d="M58 1018q-7 0 -11 7q-5 6 -4 13l50 185v190q0 8 7 15q6 6 14 6h145q8 0 15 -6q6 -7 6 -15v-168q0 -9 -3 -19q-4 -11 -9 -18l-112 -173q-5 -7 -14 -12t-18 -5h-66z" />
    <glyph glyph-name="circumflex" unicode="&#x2c6;" horiz-adv-x="1024" 
d="M816 1184q-3 -7 -11 -10q-9 -4 -16 0l-278 129l-278 -129q-7 -4 -15 0q-9 3 -12 10l-25 61q-3 7 0 16q2 9 9 13l263 163q7 5 18 8q10 3 20 3h40q10 0 21 -3q10 -3 17 -8l263 -163q7 -4 10 -13q2 -9 -1 -16z" />
    <glyph glyph-name="caron" unicode="&#x2c7;" horiz-adv-x="1024" 
d="M569 1182q-7 -4 -17 -7q-11 -4 -21 -4h-40q-10 0 -20 4q-11 3 -18 7l-263 163q-7 4 -9 13q-3 9 0 17l25 60q3 7 12 11q8 3 15 0l280 -129l276 128q7 4 16 1q8 -4 11 -11l25 -60q3 -8 1 -17q-3 -9 -10 -13z" />
    <glyph glyph-name="uni02C9" unicode="&#x2c9;" horiz-adv-x="1024" 
d="M231 1217q-8 0 -14 6t-6 14v98q0 8 6 15q6 6 14 6h560q8 0 14 -6q6 -7 6 -15v-98q0 -8 -6 -14t-14 -6h-560z" />
    <glyph glyph-name="breve" unicode="&#x2d8;" horiz-adv-x="1024" 
d="M800 1442q-3 -57 -25 -105q-22 -49 -59 -84t-89 -55t-115 -20t-115 20t-89 55t-59 84q-22 48 -25 105q-1 7 6 14q6 6 13 6h88q9 0 15 -5q6 -6 7 -15q7 -57 47 -93t112 -36q69 0 111 36q41 36 48 93q1 9 7 15q6 5 15 5h88q7 0 14 -6q6 -7 5 -14z" />
    <glyph glyph-name="dotaccent" unicode="&#x2d9;" horiz-adv-x="1024" 
d="M438 1180q-8 0 -14 6t-6 14v164q0 8 6 14t14 6h150q8 0 14 -6t6 -14v-164q0 -8 -6 -14t-14 -6h-150z" />
    <glyph glyph-name="ring" unicode="&#x2da;" horiz-adv-x="1024" 
d="M731 1389q0 -46 -16 -85q-17 -40 -46 -68q-30 -29 -71 -45q-41 -17 -88 -17t-87 17q-40 16 -69 45q-30 28 -46 68q-17 39 -17 85q0 45 17 84q16 39 46 68q29 28 69 45q40 16 87 16t88 -16q41 -17 71 -45q29 -29 46 -68q16 -39 16 -84zM395 1389q0 -63 32 -99
q32 -37 83 -37t84 37q33 36 33 99t-33 98t-84 35t-83 -35t-32 -98z" />
    <glyph glyph-name="ogonek" unicode="&#x2db;" horiz-adv-x="1024" 
d="M543 -393q-113 0 -183 54q-71 54 -71 142q0 46 17 84q17 39 46 69q28 30 66 53t79 39q7 3 16 0t13 -10l12 -19q4 -8 2 -16q-2 -9 -9 -14q-15 -10 -32 -26q-17 -15 -30 -34q-14 -19 -23 -42q-10 -22 -10 -47q0 -50 35 -74q34 -24 86 -24h84q8 0 15 -7q6 -6 6 -14v-94
q0 -8 -6 -14q-7 -6 -15 -6h-98z" />
    <glyph glyph-name="tilde" unicode="&#x2dc;" horiz-adv-x="1024" 
d="M798 1415q-4 -100 -45 -162q-42 -63 -126 -63q-47 0 -78 21t-55 47q-24 25 -45 46q-22 21 -50 21q-34 0 -50 -29t-19 -75q0 -9 -6 -15q-7 -6 -15 -6h-64q-7 0 -13 7q-7 6 -6 14q2 47 13 88t32 71t53 47q31 17 73 17q47 0 79 -21q31 -21 55 -46q23 -26 44 -47t46 -21
q37 0 54 30q16 29 19 76q0 9 7 15q6 6 14 6h64q7 0 14 -6q6 -7 5 -15z" />
    <glyph glyph-name="hungarumlaut" unicode="&#x2dd;" horiz-adv-x="1024" 
d="M361 1203q-5 -6 -14 -6q-9 -1 -15 5l-37 34q-7 5 -7 14q-1 9 4 16l231 311q5 6 14 7q8 0 13 -5l70 -73q5 -6 5 -15t-5 -15zM648 1197q-6 -6 -14 -6q-9 -1 -15 4l-35 32q-7 6 -7 15q-1 9 3 16l230 313q4 6 13 7q8 0 14 -5l69 -72q6 -5 6 -14t-5 -15z" />
    <glyph glyph-name="gravecmb" unicode="&#x300;" 
d="M179 1180q-4 -7 -12 -11t-15 -1l-449 158q-7 3 -11 11t-2 16l40 110q3 8 10 12q8 3 15 -1l436 -206q7 -3 11 -11q4 -9 0 -17z" />
    <glyph glyph-name="acutecmb" unicode="&#x301;" 
d="M-164 1168q-7 -3 -16 1q-8 4 -11 11l-25 59q-4 7 -1 15q4 8 11 12l438 208q7 4 15 0t11 -11l37 -110q3 -8 -1 -16t-11 -11z" />
    <glyph glyph-name="circumflexcmb" unicode="&#x302;" 
d="M304 1184q-3 -7 -11 -10q-9 -4 -16 0l-278 129l-278 -129q-7 -4 -16 0q-8 3 -11 10l-25 61q-3 7 -1 16q3 9 10 13l263 163q7 5 17 8q11 3 21 3h40q10 0 21 -3q10 -3 17 -8l263 -163q7 -4 10 -13q2 -9 -1 -16z" />
    <glyph glyph-name="tildecmb" unicode="&#x303;" 
d="M286 1415q-4 -100 -45 -162q-42 -63 -126 -63q-47 0 -78 21t-55 47q-24 25 -46 46q-21 21 -49 21q-34 0 -50 -29t-19 -75q0 -9 -7 -15q-6 -6 -14 -6h-64q-7 0 -14 7q-6 6 -5 14q2 47 13 88t32 71t52 47q32 17 74 17q47 0 78 -21q32 -21 56 -46q23 -26 44 -47t46 -21
q37 0 54 30q16 29 19 76q0 9 7 15q6 6 14 6h64q7 0 14 -6q6 -7 5 -15z" />
    <glyph glyph-name="macroncmb" unicode="&#x304;" 
d="M-281 1217q-8 0 -14 6t-6 14v98q0 8 6 15q6 6 14 6h560q8 0 14 -6q6 -7 6 -15v-98q0 -8 -6 -14t-14 -6h-560z" />
    <glyph glyph-name="brevecmb" unicode="&#x306;" 
d="M288 1442q-3 -57 -25 -105q-22 -49 -59 -84t-89 -55t-115 -20t-115 20t-89 55t-59 84q-22 48 -25 105q-1 7 5 14q7 6 14 6h88q9 0 15 -5q6 -6 7 -15q7 -57 47 -93t112 -36q69 0 111 36q41 36 48 93q1 9 7 15q6 5 15 5h88q7 0 14 -6q6 -7 5 -14z" />
    <glyph glyph-name="dotaccentcmb" unicode="&#x307;" 
d="M-74 1180q-8 0 -14 6t-6 14v164q0 8 6 14t14 6h150q8 0 14 -6t6 -14v-164q0 -8 -6 -14t-14 -6h-150z" />
    <glyph glyph-name="dieresiscmb" unicode="&#x308;" 
d="M-225 1202q-8 0 -15 7q-6 6 -6 14v163q0 8 6 15q7 6 15 6h125q8 0 14 -6q6 -7 6 -15v-163q0 -8 -6 -14q-6 -7 -14 -7h-125zM100 1202q-8 0 -14 7q-6 6 -6 14v163q0 8 6 15q6 6 14 6h125q8 0 15 -6q6 -7 6 -15v-163q0 -8 -6 -14q-7 -7 -15 -7h-125z" />
    <glyph glyph-name="ringcmb" unicode="&#x30a;" 
d="M219 1389q0 -46 -16 -85q-17 -40 -46 -68q-30 -29 -71 -45q-41 -17 -88 -17t-87 17q-40 16 -70 45q-29 28 -46 68q-16 39 -16 85q0 45 16 84q17 39 46 68q30 28 70 45q40 16 87 16t88 -16q41 -17 71 -45q29 -29 46 -68q16 -39 16 -84zM-117 1389q0 -63 32 -99
q32 -37 83 -37t84 37q33 36 33 99t-33 98t-84 35t-83 -35t-32 -98z" />
    <glyph glyph-name="hungarumlautcmb" unicode="&#x30b;" 
d="M-151 1203q-5 -6 -14 -6q-9 -1 -15 5l-37 34q-7 5 -8 14q0 9 5 16l231 311q5 6 14 7q8 0 13 -5l70 -73q5 -6 5 -15t-5 -15zM136 1197q-6 -6 -14 -6q-9 -1 -15 4l-35 32q-7 6 -7 15q-1 9 3 16l230 313q4 6 13 7q8 0 14 -5l69 -72q6 -5 6 -14t-5 -15z" />
    <glyph glyph-name="caroncmb" unicode="&#x30c;" 
d="M57 1182q-7 -4 -17 -7q-11 -4 -21 -4h-40q-10 0 -21 4q-10 3 -17 7l-263 163q-7 4 -10 13q-2 9 1 17l25 60q3 7 11 11q9 3 16 0l280 -129l276 128q7 4 16 1q8 -4 11 -11l25 -60q3 -8 1 -17q-3 -9 -10 -13z" />
    <glyph glyph-name="commaturnedabovecmb" unicode="&#x312;" 
d="M-102 1198q-8 0 -15 7q-6 6 -6 14v135q0 9 3 20q4 10 9 17l113 149q5 7 14 12q9 4 19 4h67q8 0 13 -6q4 -6 2 -13l-47 -163v-155q0 -8 -6 -14q-7 -7 -15 -7h-151z" />
    <glyph glyph-name="commaaccentcmb" unicode="&#x326;" 
d="M-98 -436q-8 0 -13 6q-4 7 -3 14l42 160v158q0 8 6 14q7 6 15 6h114q8 0 15 -6q6 -6 6 -14v-138q0 -9 -3 -20q-3 -10 -8 -18l-87 -145q-4 -7 -13 -12t-18 -5h-53z" />
    <glyph glyph-name="cedillacmb" unicode="&#x327;" 
d="M-5 -334q-2 -8 -10 -13q-7 -4 -15 -3l-134 30q-8 1 -12 9t-1 15l122 310q4 7 12 12q8 4 16 3l87 -15q7 -1 12 -8q5 -8 3 -16z" />
    <glyph glyph-name="ogonekcmb" unicode="&#x328;" 
d="M31 -393q-113 0 -184 54q-70 54 -70 142q0 46 17 84q17 39 45 69q29 30 67 53t79 39q7 3 16 0t13 -10l12 -19q4 -8 2 -16q-2 -9 -9 -14q-15 -10 -32 -26q-17 -15 -31 -34q-13 -19 -23 -42q-9 -22 -9 -47q0 -50 34 -74q35 -24 87 -24h84q8 0 15 -7q6 -6 6 -14v-94
q0 -8 -6 -14q-7 -6 -15 -6h-98z" />
    <glyph glyph-name="Delta" unicode="&#x394;" horiz-adv-x="1335" 
d="M51 0q-8 0 -14 6t-6 14v121q0 8 6 15q6 6 14 6q-7 0 -11 6t-2 13l499 1234q4 8 12 14q7 5 16 5h209q9 0 17 -5q8 -6 11 -14l495 -1234q3 -8 6 -19q2 -12 2 -21v-121q0 -8 -6 -14q-7 -6 -15 -6h-1233zM1106 162l-444 1138l-429 -1119q-4 -8 -11 -13q-8 -6 -17 -6h901z" />
    <glyph glyph-name="Omega" unicode="&#x3a9;" horiz-adv-x="1536" 
d="M637 20q0 -7 -6 -13q-7 -7 -15 -7h-483q-8 0 -14 6t-6 14v115q0 8 6 15q6 6 14 6h248q-66 52 -121 116t-94 140q-39 75 -60 164q-22 89 -22 190q0 161 49 291q49 129 139 218q89 89 216 137q126 48 280 48t282 -48q127 -48 217 -137q89 -89 138 -218q49 -130 49 -291
q0 -101 -21 -190q-22 -89 -61 -164q-39 -76 -94 -140q-56 -64 -123 -116h248q8 0 14 -6q6 -7 6 -15v-115q0 -8 -6 -14t-14 -6h-481q-8 0 -14 7q-7 6 -7 13l2 115q0 9 5 18t13 13q72 44 134 101q61 57 106 129q44 71 69 161t25 199q0 127 -33 229q-34 102 -96 172
q-63 70 -153 108q-91 38 -205 38t-204 -38q-91 -38 -153 -108q-63 -70 -96 -172q-34 -102 -34 -229q0 -110 26 -200q25 -90 70 -161q45 -72 107 -128q61 -57 133 -101q8 -4 13 -13t5 -18z" />
    <glyph glyph-name="mu" unicode="&#x3bc;" horiz-adv-x="1073" 
d="M280 -328q1 -8 -5 -14q-7 -6 -15 -6h-149q-8 0 -14 6q-7 6 -7 14l4 787l-4 575q0 8 7 15q6 6 14 6h170q8 0 14 -6q6 -7 6 -15l-4 -430v-203q0 -142 63 -209q62 -67 160 -67q104 0 182 82t109 237v160l-2 430q0 8 6 15q6 6 14 6h150q8 0 14 -6q6 -7 6 -15l-6 -461l4 -553
q0 -8 -6 -14t-14 -6h-141q-8 0 -14 7q-7 6 -6 13l5 160q-24 -40 -58 -77q-35 -38 -79 -66t-98 -45t-117 -17q-55 0 -103 12q-48 13 -88 38z" />
    <glyph glyph-name="pi" unicode="&#x3c0;" horiz-adv-x="1073" 
d="M115 0q-8 0 -14 6q-7 6 -7 14l4 461l-2 553q0 8 7 15q6 6 14 6h846q8 0 14 -6q6 -7 6 -15l-2 -583l2 -431q0 -8 -6 -14t-14 -6h-150q-8 0 -14 6t-6 14l4 461v428h-512l-2 -458l4 -431q0 -7 -6 -13q-7 -7 -15 -7h-151z" />
    <glyph glyph-name="Wgrave" unicode="&#x1e80;" horiz-adv-x="1802" 
d="M1208 0q-8 0 -15 6q-8 6 -10 14l-288 1151l-276 -1151q-2 -8 -9 -14t-16 -6h-186q-9 0 -16 6q-8 6 -10 14l-358 1394q-2 7 3 14q5 6 12 6h154q8 0 16 -6q7 -6 9 -14l294 -1230l280 1230q2 8 10 14q7 6 15 6h176q9 0 17 -6q7 -6 8 -14l287 -1230l292 1230q1 8 9 14
q7 6 16 6h139q8 0 13 -6q4 -7 3 -14l-361 -1394q-2 -8 -9 -14q-8 -6 -16 -6h-183zM1072 1559q-4 -7 -12 -11t-15 -1l-449 158q-7 3 -11 11t-2 16l40 110q3 8 11 12q7 3 14 -1l436 -206q7 -3 11 -11q4 -9 0 -17z" />
    <glyph glyph-name="wgrave" unicode="&#x1e81;" horiz-adv-x="1446" 
d="M965 0q-9 0 -16 6q-8 6 -10 14l-222 881l-200 -881q-2 -8 -9 -14q-8 -6 -16 -6h-175q-8 0 -15 6q-8 5 -10 14l-272 1015q-2 7 3 14q5 6 12 6h147q9 0 17 -6q7 -6 8 -14l205 -879l202 879q2 8 9 14t16 6h182q9 0 17 -6q7 -6 9 -14l210 -867l196 867q2 8 9 14t16 6h131
q7 0 12 -6q5 -7 3 -14l-256 -1015q-2 -8 -9 -14q-8 -6 -16 -6h-178zM892 1180q-4 -7 -12 -11t-15 -1l-449 158q-7 3 -11 11t-2 16l40 110q3 8 11 12q7 3 14 -1l436 -206q7 -3 11 -11q4 -9 0 -17z" />
    <glyph glyph-name="Wacute" unicode="&#x1e82;" horiz-adv-x="1802" 
d="M1208 0q-8 0 -15 6q-8 6 -10 14l-288 1151l-276 -1151q-2 -8 -9 -14t-16 -6h-186q-9 0 -16 6q-8 6 -10 14l-358 1394q-2 7 3 14q5 6 12 6h154q8 0 16 -6q7 -6 9 -14l294 -1230l280 1230q2 8 10 14q7 6 15 6h176q9 0 17 -6q7 -6 8 -14l287 -1230l292 1230q1 8 9 14
q7 6 16 6h139q8 0 13 -6q4 -7 3 -14l-361 -1394q-2 -8 -9 -14q-8 -6 -16 -6h-183zM725 1547q-7 -3 -15 1q-9 4 -12 11l-25 59q-4 7 0 15q3 8 10 12l438 208q7 4 15 0t11 -11l37 -110q3 -8 -1 -16t-11 -11z" />
    <glyph glyph-name="wacute" unicode="&#x1e83;" horiz-adv-x="1446" 
d="M965 0q-9 0 -16 6q-8 6 -10 14l-222 881l-200 -881q-2 -8 -9 -14q-8 -6 -16 -6h-175q-8 0 -15 6q-8 5 -10 14l-272 1015q-2 7 3 14q5 6 12 6h147q9 0 17 -6q7 -6 8 -14l205 -879l202 879q2 8 9 14t16 6h182q9 0 17 -6q7 -6 9 -14l210 -867l196 867q2 8 9 14t16 6h131
q7 0 12 -6q5 -7 3 -14l-256 -1015q-2 -8 -9 -14q-8 -6 -16 -6h-178zM567 1168q-7 -3 -15 1q-9 4 -12 11l-25 59q-4 7 0 15q3 8 10 12l438 208q7 4 15 0t11 -11l37 -110q3 -8 -1 -16t-11 -11z" />
    <glyph glyph-name="Wdieresis" unicode="&#x1e84;" horiz-adv-x="1802" 
d="M1208 0q-8 0 -15 6q-8 6 -10 14l-288 1151l-276 -1151q-2 -8 -9 -14t-16 -6h-186q-9 0 -16 6q-8 6 -10 14l-358 1394q-2 7 3 14q5 6 12 6h154q8 0 16 -6q7 -6 9 -14l294 -1230l280 1230q2 8 10 14q7 6 15 6h176q9 0 17 -6q7 -6 8 -14l287 -1230l292 1230q1 8 9 14
q7 6 16 6h139q8 0 13 -6q4 -7 3 -14l-361 -1394q-2 -8 -9 -14q-8 -6 -16 -6h-183zM676 1581q-8 0 -14 7q-7 6 -7 14v163q0 8 7 15q6 6 14 6h125q8 0 14 -6q6 -7 6 -15v-163q0 -8 -6 -14q-6 -7 -14 -7h-125zM1001 1581q-8 0 -14 7q-6 6 -6 14v163q0 8 6 15q6 6 14 6h125
q8 0 15 -6q6 -7 6 -15v-163q0 -8 -6 -14q-7 -7 -15 -7h-125z" />
    <glyph glyph-name="wdieresis" unicode="&#x1e85;" horiz-adv-x="1446" 
d="M965 0q-9 0 -16 6q-8 6 -10 14l-222 881l-200 -881q-2 -8 -9 -14q-8 -6 -16 -6h-175q-8 0 -15 6q-8 5 -10 14l-272 1015q-2 7 3 14q5 6 12 6h147q9 0 17 -6q7 -6 8 -14l205 -879l202 879q2 8 9 14t16 6h182q9 0 17 -6q7 -6 9 -14l210 -867l196 867q2 8 9 14t16 6h131
q7 0 12 -6q5 -7 3 -14l-256 -1015q-2 -8 -9 -14q-8 -6 -16 -6h-178zM494 1202q-8 0 -14 7q-7 6 -7 14v163q0 8 7 15q6 6 14 6h125q8 0 14 -6q6 -7 6 -15v-163q0 -8 -6 -14q-6 -7 -14 -7h-125zM819 1202q-8 0 -14 7q-6 6 -6 14v163q0 8 6 15q6 6 14 6h125q8 0 15 -6
q6 -7 6 -15v-163q0 -8 -6 -14q-7 -7 -15 -7h-125z" />
    <glyph glyph-name="Ygrave" unicode="&#x1ef2;" horiz-adv-x="1161" 
d="M676 20q0 -7 -6 -13q-7 -7 -15 -7h-155q-8 0 -14 7q-7 6 -6 13l7 482l-471 913q-4 7 0 13t11 6h176q9 0 17 -5q8 -6 12 -14l356 -743l357 743q4 8 13 14q8 5 17 5h160q7 0 11 -6q3 -6 0 -13l-476 -917zM757 1559q-4 -7 -12 -11t-15 -1l-449 158q-7 3 -11 11t-2 16l40 110
q3 8 11 12q7 3 14 -1l436 -206q7 -3 11 -11q4 -9 0 -17z" />
    <glyph glyph-name="ygrave" unicode="&#x1ef3;" horiz-adv-x="973" 
d="M489 -329q-3 -8 -10 -14q-8 -5 -17 -5h-135q-8 0 -12 6q-5 6 -2 13l112 329l-412 1036q-3 7 1 13t12 6h168q8 0 16 -5q8 -6 11 -14l298 -794l254 793q3 8 11 14q7 6 16 6h149q7 0 12 -6q4 -7 2 -14zM652 1180q-4 -7 -12 -11t-15 -1l-449 158q-7 3 -11 11t-2 16l40 110
q3 8 11 12q7 3 14 -1l436 -206q7 -3 11 -11q4 -9 0 -17z" />
    <glyph glyph-name="uni2000" unicode="&#x2000;" horiz-adv-x="1024" 
 />
    <glyph glyph-name="uni2001" unicode="&#x2001;" horiz-adv-x="2048" 
 />
    <glyph glyph-name="uni2002" unicode="&#x2002;" horiz-adv-x="1024" 
 />
    <glyph glyph-name="uni2003" unicode="&#x2003;" horiz-adv-x="2048" 
 />
    <glyph glyph-name="uni2004" unicode="&#x2004;" horiz-adv-x="682" 
 />
    <glyph glyph-name="uni2005" unicode="&#x2005;" horiz-adv-x="512" 
 />
    <glyph glyph-name="uni2009" unicode="&#x2009;" horiz-adv-x="340" 
 />
    <glyph glyph-name="uni200A" unicode="&#x200a;" horiz-adv-x="205" 
 />
    <glyph glyph-name="uni200B" unicode="&#x200b;" 
 />
    <glyph glyph-name="endash" unicode="&#x2013;" horiz-adv-x="819" 
d="M61 535q-8 0 -14 6t-6 14v104q0 8 6 15q6 6 14 6h697q8 0 14 -6q6 -7 6 -15v-104q0 -8 -6 -14t-14 -6h-697z" />
    <glyph glyph-name="emdash" unicode="&#x2014;" horiz-adv-x="1229" 
d="M61 535q-8 0 -14 6t-6 14v104q0 8 6 15q6 6 14 6h1106q8 0 15 -6q6 -7 6 -15v-104q0 -8 -6 -14q-7 -6 -15 -6h-1106z" />
    <glyph glyph-name="horizontalbar" unicode="&#x2015;" horiz-adv-x="1176" 
d="M34 535q-8 0 -14 6t-6 14v104q0 8 6 15q6 6 14 6h1106q8 0 15 -6q6 -7 6 -15v-104q0 -8 -6 -14q-7 -6 -15 -6h-1106z" />
    <glyph glyph-name="quoteleft" unicode="&#x2018;" horiz-adv-x="342" 
d="M285 1434q7 0 12 -6q4 -7 3 -14l-50 -185v-191q0 -8 -6 -14q-7 -6 -15 -6h-145q-8 0 -14 6q-7 6 -7 14v168q0 10 4 21q3 10 8 17l112 172q5 8 14 13t18 5h66z" />
    <glyph glyph-name="quoteright" unicode="&#x2019;" horiz-adv-x="342" 
d="M58 1018q-7 0 -11 7q-5 6 -4 13l50 185v190q0 8 7 15q6 6 14 6h145q8 0 15 -6q6 -7 6 -15v-168q0 -9 -3 -19q-4 -11 -9 -18l-112 -173q-5 -7 -14 -12t-18 -5h-66z" />
    <glyph glyph-name="quotesinglbase" unicode="&#x201a;" horiz-adv-x="342" 
d="M57 -201q-7 0 -12 6q-5 7 -3 14l50 185v191q0 8 7 14q6 6 14 6h143q8 0 14 -6t6 -14v-168q0 -10 -3 -20q-3 -11 -8 -18l-113 -173q-4 -7 -13 -12t-18 -5h-64z" />
    <glyph glyph-name="quotedblleft" unicode="&#x201c;" horiz-adv-x="629" 
d="M283 1434q7 0 12 -6q4 -7 3 -14l-50 -185v-191q0 -8 -6 -14q-7 -6 -15 -6h-145q-8 0 -14 6q-7 6 -7 14v168q0 10 4 21q3 10 8 17l112 172q5 8 14 13t18 5h66zM569 1434q8 0 13 -6q4 -7 2 -14l-49 -185v-191q0 -8 -6 -14q-7 -6 -15 -6h-145q-8 0 -14 6q-7 6 -7 14v168
q0 10 4 21q3 10 7 17l113 172q5 8 14 13t18 5h65z" />
    <glyph glyph-name="quotedblright" unicode="&#x201d;" horiz-adv-x="629" 
d="M347 1018q-7 0 -12 7q-5 6 -3 13l50 185v190q0 8 6 15q6 6 14 6h144q8 0 14 -6q6 -7 6 -15v-168q0 -9 -3 -19q-3 -11 -8 -18l-113 -173q-4 -7 -13 -12t-18 -5h-64zM60 1018q-7 0 -11 7q-5 6 -4 13l50 185v190q0 8 7 15q6 6 14 6h143q8 0 15 -6q6 -7 6 -15v-168
q0 -9 -3 -19q-4 -11 -9 -18l-112 -173q-5 -7 -14 -12t-18 -5h-64z" />
    <glyph glyph-name="quotedblbase" unicode="&#x201e;" horiz-adv-x="625" 
d="M429 -184q-5 -7 -13 -12q-9 -5 -19 -5h-63q-7 0 -12 6q-5 7 -3 14l50 185v191q0 8 6 14t14 6h143q8 0 15 -6q6 -6 6 -14v-168q0 -10 -3 -20q-3 -11 -8 -18zM142 -184q-4 -7 -13 -12t-18 -5h-64q-7 0 -12 6q-5 7 -3 14l50 185v191q0 8 6 14t14 6h144q8 0 14 -6t6 -14v-168
q0 -10 -3 -20q-3 -11 -8 -18z" />
    <glyph glyph-name="dagger" unicode="&#x2020;" horiz-adv-x="918" 
d="M549 729l6 -709q0 -8 -6 -14t-14 -6h-152q-8 0 -14 6t-6 14l6 709l-2 154l-312 -4q-8 0 -14 6t-6 14v158q0 8 6 14t14 6l312 -4l-4 340q0 8 6 15q6 6 14 6h152q8 0 14 -6q6 -7 6 -15l-4 -340l311 4q8 0 15 -6q6 -6 6 -14v-158q0 -8 -6 -14q-7 -6 -15 -6l-311 4z" />
    <glyph glyph-name="daggerdbl" unicode="&#x2021;" horiz-adv-x="918" 
d="M883 377q0 -8 -6 -14q-7 -7 -15 -6l-311 3l4 -340q0 -7 -6 -13q-6 -7 -14 -7h-152q-8 0 -14 7q-6 6 -6 13l4 340l-312 -3q-8 -1 -14 6q-6 6 -6 14v158q0 8 6 14t14 6l312 -4l2 154l-2 178l-312 -4q-8 0 -14 6t-6 14v158q0 8 6 14t14 6l310 -4l-2 340q0 8 6 15q6 6 14 6
h152q8 0 14 -6q6 -7 6 -15l-2 -340l309 4q8 0 15 -6q6 -6 6 -14v-158q0 -8 -6 -14q-7 -6 -15 -6l-311 4l-2 -178l2 -154l311 4q8 0 15 -6q6 -6 6 -14v-158z" />
    <glyph glyph-name="bullet" unicode="&#x2022;" horiz-adv-x="524" 
d="M82 395q-8 0 -14 7q-7 6 -7 14v395q0 8 7 14q6 6 14 6h360q8 0 15 -6q6 -6 6 -14v-395q0 -8 -6 -14q-7 -7 -15 -7h-360z" />
    <glyph glyph-name="ellipsis" unicode="&#x2026;" horiz-adv-x="1018" 
d="M88 0q-8 0 -14 6t-6 14v175q0 8 6 14t14 6h166q8 0 14 -6t6 -14v-175q0 -8 -6 -14t-14 -6h-166zM428 0q-8 0 -14 6t-6 14v175q0 8 6 14t14 6h166q8 0 14 -6t6 -14v-175q0 -8 -6 -14t-14 -6h-166zM766 0q-8 0 -14 6t-6 14v175q0 8 6 14t14 6h166q8 0 14 -6t6 -14v-175
q0 -8 -6 -14t-14 -6h-166z" />
    <glyph glyph-name="perthousand" unicode="&#x2030;" horiz-adv-x="2361" 
d="M723 1100q0 -83 -23 -148q-24 -65 -66 -108q-42 -44 -101 -67q-60 -23 -132 -23t-131 23q-60 22 -102 66q-42 43 -65 109q-23 65 -23 150q0 83 23 149t65 111q42 44 102 68q59 24 131 24q73 0 133 -24q59 -24 101 -69t65 -111t23 -150zM276 0q-7 0 -10 6t1 11l934 1400
q5 7 14 12t18 5h123q7 0 10 -6t-1 -11l-934 -1400q-5 -7 -13 -12q-9 -5 -19 -5h-123zM242 1100q0 -110 42 -166q42 -57 117 -57t117 56q41 55 41 167q0 114 -43 173q-43 58 -117 58q-73 0 -115 -58q-42 -59 -42 -173zM2281 334q0 -84 -23 -150t-65 -111t-101 -69
q-60 -24 -132 -24q-73 0 -132 24q-60 24 -102 69t-65 111t-23 150t23 149t65 109q42 43 102 66q59 22 132 22q72 0 132 -22q59 -23 101 -66q42 -44 65 -109t23 -149zM1561 334q0 -84 -23 -150q-24 -66 -66 -111t-102 -69t-133 -24q-72 0 -131 24t-100 69q-42 45 -65 111
t-23 150t23 149t65 109q41 43 101 66q59 22 132 22t133 -22q59 -23 101 -66q42 -44 65 -109t23 -149zM1800 334q0 -116 44 -174q43 -58 116 -58t117 58q43 58 43 174q0 108 -42 166q-43 57 -118 57q-76 0 -118 -56q-42 -57 -42 -167zM1079 334q0 -116 44 -174
q43 -58 116 -58t116 58q42 58 42 174q0 108 -42 166q-43 57 -118 57t-116 -56q-42 -57 -42 -167z" />
    <glyph glyph-name="minute" unicode="&#x2032;" horiz-adv-x="352" 
d="M64 1018q-7 0 -12 7q-6 6 -5 13l50 375q1 9 8 15q6 6 15 6h147q7 0 12 -6q5 -7 2 -14l-122 -377q-3 -8 -10 -13q-8 -6 -17 -6h-68z" />
    <glyph glyph-name="second" unicode="&#x2033;" horiz-adv-x="633" 
d="M353 1018q-7 0 -13 7q-6 6 -5 13l50 375q1 9 8 15t16 6h147q7 0 12 -6q4 -7 2 -14l-122 -377q-3 -8 -10 -13q-8 -6 -17 -6h-68zM71 1018q-8 0 -13 7q-6 6 -5 13l50 375q1 9 8 15t15 6h147q8 0 13 -6q4 -7 2 -14l-123 -377q-3 -8 -10 -13q-8 -6 -17 -6h-67z" />
    <glyph glyph-name="guilsinglleft" unicode="&#x2039;" horiz-adv-x="520" 
d="M329 199q-10 0 -19 5q-9 4 -14 11l-244 342q-5 7 -5 17q0 9 5 16l244 336q5 7 14 12q9 4 19 4h118q7 0 10 -5q3 -6 -1 -11l-258 -353l258 -358q4 -5 1 -10q-3 -6 -10 -6h-118z" />
    <glyph glyph-name="guilsinglright" unicode="&#x203a;" horiz-adv-x="520" 
d="M74 199q-7 0 -10 6q-3 5 1 10l259 358l-259 353q-4 5 -1 11q3 5 10 5h119q9 0 18 -4q9 -5 14 -12l244 -336q5 -7 5 -16q0 -10 -5 -17l-244 -342q-5 -7 -14 -11q-9 -5 -18 -5h-119z" />
    <glyph glyph-name="fraction" unicode="&#x2044;" horiz-adv-x="752" 
d="M-120 0q-7 0 -10 6t1 11l869 1399q4 8 13 13t18 5h98q7 0 11 -6q3 -6 -1 -12l-869 -1399q-5 -7 -14 -12q-8 -5 -17 -5h-99z" />
    <glyph glyph-name="zero.sups" unicode="&#x2070;" horiz-adv-x="686" 
d="M629 1055q0 -188 -78 -289q-79 -102 -209 -102q-64 0 -117 26t-90 75t-57 123q-21 73 -21 167q0 96 21 171q20 74 57 124q37 49 90 75q53 25 117 25t118 -25q53 -26 91 -75q37 -49 58 -123q20 -75 20 -172zM195 1055q0 -146 40 -215q39 -70 109 -70t109 69t39 216
q0 145 -39 216q-39 70 -111 70t-109 -70q-38 -70 -38 -216z" />
    <glyph glyph-name="four.sups" unicode="&#x2074;" horiz-adv-x="657" 
d="M608 883q0 -8 -6 -14q-6 -7 -14 -7h-60v-166q0 -8 -6 -14t-14 -6h-92q-8 0 -14 6q-7 6 -7 14v166h-321q-8 0 -14 7q-7 6 -7 14v78q0 9 4 20q3 10 7 17l275 418q5 8 14 13q8 5 18 5h137q8 0 14 -6q6 -7 6 -15v-446h60q8 0 14 -6q6 -7 6 -15v-63zM395 1190l4 145l-235 -368
h231v223z" />
    <glyph glyph-name="five.sups" unicode="&#x2075;" horiz-adv-x="651" 
d="M599 950q0 -66 -20 -120q-21 -54 -57 -91q-37 -37 -88 -57q-52 -20 -114 -20q-114 0 -178 55t-77 145q-1 7 5 14q5 7 12 7h90q9 0 16 -5q6 -6 7 -16q7 -49 39 -76q32 -28 84 -28q66 0 104 48q38 47 38 136q0 86 -34 131t-103 45q-47 0 -78 -21q-32 -21 -46 -61
q-3 -10 -10 -15q-8 -5 -18 -5h-72q-7 0 -13 7q-7 6 -6 13l26 377q1 8 8 15q6 6 14 6h401q8 0 15 -6q6 -7 6 -15v-63q0 -8 -6 -14q-7 -7 -15 -7h-307l-16 -170q31 29 70 42t85 13q51 0 95 -19q43 -19 75 -53t50 -83t18 -109z" />
    <glyph glyph-name="six.sups" unicode="&#x2076;" horiz-adv-x="668" 
d="M610 938q0 -57 -19 -107q-20 -51 -55 -88t-84 -58t-108 -21q-131 0 -206 99t-75 290q0 188 77 293q76 104 204 104q100 0 161 -46q60 -47 76 -134q1 -8 -4 -14q-6 -7 -13 -7h-87q-10 0 -17 6q-7 5 -9 15q-8 37 -34 60q-26 22 -71 22q-70 0 -108 -65q-38 -66 -39 -179
q25 37 68 57q43 19 104 19q107 0 173 -66q66 -67 66 -180zM205 930q0 -75 36 -120q36 -46 99 -46t98 43q35 42 35 117q-1 73 -35 117t-98 44q-63 0 -99 -41t-36 -114z" />
    <glyph glyph-name="seven.sups" unicode="&#x2077;" horiz-adv-x="563" 
d="M511 1309q-69 -137 -123 -290q-55 -153 -80 -323q-1 -8 -8 -14t-16 -6h-98q-7 0 -12 7q-6 6 -5 13q14 85 34 171q20 85 46 166q26 80 58 156q32 75 70 140h-311q-8 0 -14 7q-7 6 -7 14v63q0 8 7 15q6 6 14 6h434q8 0 14 -6q6 -7 6 -15v-65q0 -9 -2 -20q-3 -11 -7 -19z
" />
    <glyph glyph-name="eight.sups" unicode="&#x2078;" horiz-adv-x="670" 
d="M612 891q0 -53 -21 -95q-22 -42 -58 -70q-37 -28 -88 -43t-109 -15t-109 15t-88 43t-58 70q-22 42 -22 95q0 66 38 118q38 51 108 70q-60 23 -91 70q-31 46 -30 102q0 93 67 145t185 52t185 -52q66 -52 69 -145q0 -54 -32 -101q-33 -48 -93 -71q72 -19 110 -70
q37 -52 37 -118zM211 1233q0 -51 34 -84q33 -33 91 -33q57 0 90 34t33 83q0 57 -33 90t-90 33t-91 -33t-34 -90zM188 895q0 -60 41 -98q41 -39 107 -39t106 39q40 38 39 98q0 61 -39 97t-106 36t-107 -36t-41 -97z" />
    <glyph glyph-name="nine.sups" unicode="&#x2079;" horiz-adv-x="668" 
d="M199 1188q1 -73 34 -118q33 -46 97 -46t101 42q36 41 36 116t-37 121q-37 45 -98 45q-63 0 -98 -42q-35 -43 -35 -118zM608 1059q0 -190 -76 -292q-77 -103 -204 -103q-101 0 -162 46q-61 45 -75 130q-1 7 5 14q5 6 12 6h87q10 0 17 -5q6 -5 8 -15q8 -38 35 -59
q26 -21 71 -21q70 0 108 64q37 64 37 177q-25 -35 -67 -54t-103 -19q-107 0 -173 67q-67 67 -67 183q0 56 20 106t55 87q35 36 85 58q49 21 107 21q131 0 206 -100q74 -100 74 -291z" />
    <glyph glyph-name="zero.sinf" unicode="&#x2080;" horiz-adv-x="686" 
d="M629 15q0 -188 -78 -290q-79 -101 -209 -101q-64 0 -117 26t-90 75t-57 122q-21 74 -21 168q0 96 21 171q20 74 57 124q37 49 90 75q53 25 117 25t118 -25q53 -26 91 -75q37 -49 58 -123q20 -75 20 -172zM195 15q0 -146 40 -216q39 -69 109 -69t109 69t39 216
q0 145 -39 216q-39 70 -111 70t-109 -70q-38 -70 -38 -216z" />
    <glyph glyph-name="one.sinf" unicode="&#x2081;" horiz-adv-x="461" 
d="M236 -369q-8 0 -14 6q-7 6 -7 14l6 361l-2 221q-28 -28 -66 -47q-38 -20 -78 -34q-7 -3 -13 2q-7 4 -7 11v67q0 10 6 18q5 7 14 10q44 18 80 46q35 27 58 63q5 9 14 14q8 4 18 4h91q8 0 14 -6q6 -7 6 -15l-8 -391l8 -324q0 -8 -6 -14t-14 -6h-100z" />
    <glyph glyph-name="two.sinf" unicode="&#x2082;" horiz-adv-x="621" 
d="M80 -369q-8 0 -14 6q-7 6 -7 14v82q0 112 60 170q59 59 131 98q71 38 131 73q59 35 59 100q1 56 -30 91q-32 35 -95 34q-58 0 -93 -38t-39 -110q-1 -9 -7 -14q-6 -6 -15 -6h-79q-8 0 -14 7q-7 6 -6 13q4 119 68 184q63 65 185 66q119 0 182 -60q63 -61 66 -165
q0 -103 -59 -158q-60 -55 -130 -92q-71 -37 -130 -72q-60 -35 -60 -98v-21h355q8 0 14 -6t6 -14v-64q0 -8 -6 -14t-14 -6h-459z" />
    <glyph glyph-name="three.sinf" unicode="&#x2083;" horiz-adv-x="641" 
d="M589 -140q0 -56 -21 -101q-22 -44 -59 -75q-37 -30 -87 -47q-51 -16 -108 -16q-116 0 -182 58t-76 169q-1 7 5 13q6 7 13 7h88q9 0 15 -6q6 -5 7 -14q5 -64 38 -99t96 -34q63 0 99 38q36 39 37 103q0 67 -36 99q-37 32 -112 32h-39q-8 0 -14 6q-6 7 -6 15v49q0 8 6 14
t14 6h39q67 0 100 31t33 82q0 52 -32 83q-33 30 -82 30q-58 0 -90 -29q-33 -30 -40 -90q-1 -9 -7 -15q-7 -6 -16 -6h-86q-7 0 -13 7t-5 14q10 103 80 159q69 56 183 56q52 0 96 -14q43 -14 75 -39q31 -26 49 -62q17 -36 17 -80q0 -67 -35 -106q-35 -40 -92 -59
q71 -16 110 -63q38 -46 38 -116z" />
    <glyph glyph-name="four.sinf" unicode="&#x2084;" horiz-adv-x="657" 
d="M608 -164q0 -8 -6 -15q-6 -6 -14 -6h-60v-166q0 -8 -6 -14t-14 -6h-92q-8 0 -14 6q-7 6 -7 14v166h-321q-8 0 -14 6q-7 7 -7 15v78q0 9 4 19q3 11 7 18l275 418q5 8 14 13q8 5 18 5h137q8 0 14 -6q6 -7 6 -15v-446h60q8 0 14 -7q6 -6 6 -14v-63zM395 143l4 145l-235 -368
h231v223z" />
    <glyph glyph-name="five.sinf" unicode="&#x2085;" horiz-adv-x="651" 
d="M599 -97q0 -66 -20 -120q-21 -54 -57 -91q-37 -37 -88 -57q-52 -20 -114 -20q-114 0 -178 55t-77 145q-1 7 5 14q5 7 12 7h90q9 0 16 -6q6 -5 7 -15q7 -49 39 -77q32 -27 84 -27q66 0 104 47q38 48 38 137q0 86 -34 131t-103 45q-47 0 -78 -21q-32 -21 -46 -61
q-3 -10 -10 -15q-8 -5 -18 -5h-72q-7 0 -13 6q-7 7 -6 14l26 377q1 8 8 15q6 6 14 6h401q8 0 15 -6q6 -7 6 -15v-63q0 -8 -6 -14q-7 -7 -15 -7h-307l-16 -170q31 29 70 42t85 13q51 0 95 -19q43 -19 75 -53t50 -83t18 -109z" />
    <glyph glyph-name="six.sinf" unicode="&#x2086;" horiz-adv-x="668" 
d="M610 -109q0 -57 -19 -108q-20 -50 -55 -87t-84 -58t-108 -21q-131 0 -206 99t-75 290q0 188 77 293q76 104 204 104q100 0 161 -46q60 -47 76 -134q1 -8 -4 -14q-6 -7 -13 -7h-87q-10 0 -17 6q-7 5 -9 15q-8 37 -34 60q-26 22 -71 22q-70 0 -108 -65q-38 -66 -39 -179
q25 37 68 57q43 19 104 19q107 0 173 -66q66 -67 66 -180zM205 -117q0 -75 36 -121q36 -45 99 -45t98 42q35 43 35 118q-1 73 -35 117t-98 44q-63 0 -99 -41t-36 -114z" />
    <glyph glyph-name="seven.sinf" unicode="&#x2087;" horiz-adv-x="561" 
d="M511 262q-69 -137 -123 -290q-55 -153 -80 -323q-1 -8 -8 -14t-16 -6h-98q-7 0 -12 6q-6 7 -5 14q14 85 34 170q20 86 46 166q26 81 58 157q32 75 70 140h-311q-8 0 -14 7q-7 6 -7 14v63q0 8 7 15q6 6 14 6h434q8 0 14 -6q6 -7 6 -15v-65q0 -9 -2 -20q-3 -11 -7 -19z" />
    <glyph glyph-name="eight.sinf" unicode="&#x2088;" horiz-adv-x="668" 
d="M612 -156q0 -53 -21 -95q-22 -42 -58 -70q-37 -28 -88 -43t-109 -15t-109 15t-88 43t-58 70q-22 42 -22 95q0 66 38 117q38 52 108 71q-60 23 -91 70q-31 46 -30 102q0 93 67 145t185 52t185 -52q66 -52 69 -145q0 -54 -32 -101q-33 -48 -93 -71q72 -19 110 -71
q37 -51 37 -117zM211 186q0 -51 34 -84q33 -33 91 -33q57 0 90 34t33 83q0 57 -33 90t-90 33t-91 -33t-34 -90zM188 -152q0 -60 41 -99q41 -38 107 -38t106 38q40 39 39 99q0 61 -39 97t-106 36t-107 -36t-41 -97z" />
    <glyph glyph-name="nine.sinf" unicode="&#x2089;" horiz-adv-x="668" 
d="M199 141q1 -73 34 -118q33 -46 97 -46t101 42q36 41 36 116t-37 121q-37 45 -98 45q-63 0 -98 -42q-35 -43 -35 -118zM608 12q0 -190 -76 -293q-77 -102 -204 -102q-101 0 -162 45q-61 46 -75 131q-1 7 5 13q5 7 12 7h87q10 0 17 -5q6 -5 8 -15q8 -38 35 -59
q26 -21 71 -21q70 0 108 64q37 64 37 177q-25 -35 -67 -54t-103 -19q-107 0 -173 67q-67 67 -67 183q0 56 20 106t55 87q35 36 85 58q49 21 107 21q131 0 206 -100q74 -100 74 -291z" />
    <glyph glyph-name="Euro" unicode="&#x20ac;" horiz-adv-x="1319" 
d="M1251 453q8 0 14 -6q5 -7 4 -15q-36 -234 -166 -346q-131 -113 -341 -113q-111 0 -202 35q-91 34 -159 99q-69 64 -115 159q-47 94 -69 213h-166q-8 0 -14 7q-6 6 -6 14v102q0 8 6 15q6 6 14 6h148q-1 22 -1 47q-1 24 -1 49q0 29 2 57q1 28 2 55h-150q-8 0 -14 7
q-6 6 -6 14v102q0 8 6 15q6 6 14 6h170q25 113 73 204q47 90 116 152q68 62 157 96q89 33 195 33q92 0 173 -22t145 -72q63 -50 109 -132t69 -200q1 -7 -4 -13q-5 -7 -13 -7h-147q-9 0 -16 6q-7 5 -9 14q-28 138 -106 204q-78 65 -203 65q-134 0 -219 -87q-86 -88 -121 -241
h379q8 0 14 -6q6 -7 6 -15v-102q0 -8 -6 -14q-6 -7 -14 -7h-402q-1 -27 -2 -55q-2 -28 -2 -57q0 -25 1 -49q0 -25 1 -47h404q8 0 14 -6q6 -7 6 -15v-102q0 -8 -6 -14q-6 -7 -14 -7h-385q34 -171 121 -259q86 -89 223 -89q140 0 220 78q80 77 99 223q1 9 8 15q6 6 15 6h151z
" />
    <glyph glyph-name="copyrightsound" unicode="&#x2117;" horiz-adv-x="1509" 
d="M1440 715q0 -168 -49 -305q-50 -138 -139 -234q-90 -97 -217 -150t-281 -53t-280 54q-127 53 -216 150q-90 96 -139 234q-49 137 -49 304q0 171 49 310q49 138 138 235q89 96 217 148q127 52 282 52q153 0 280 -52t216 -148t139 -234q49 -139 49 -311zM170 715
q0 -151 40 -272q40 -122 115 -205q75 -84 185 -129q109 -46 246 -46t246 45q108 45 183 129q74 84 114 206q40 121 40 272q0 150 -40 272t-114 207q-75 84 -184 130q-110 46 -247 46q-138 0 -247 -45q-109 -46 -183 -130q-75 -84 -114 -206q-40 -122 -40 -274zM1120 893
q0 -74 -23 -131q-24 -57 -65 -94q-42 -38 -99 -57q-58 -19 -126 -19h-178l2 -322q0 -8 -6 -14q-7 -6 -15 -6h-90q-8 0 -14 6t-6 14l2 457l-2 434q0 8 6 15q6 6 14 6h285q70 0 129 -18q58 -19 99 -55t64 -90q23 -55 23 -126zM629 727v-25h184q76 0 128 44t52 145
q0 90 -50 135q-51 45 -134 45h-178z" />
    </font>
</defs>
</svg>
