<svg xmlns="http://www.w3.org/2000/svg" width="29" height="29" viewBox="0 0 29 29"><g><g><g><path fill="#1d1e1c" d="M20.275 2.134a6.598 6.598 0 0 1 6.591 6.59v11.048a6.598 6.598 0 0 1-6.59 6.59H9.227a6.598 6.598 0 0 1-6.59-6.59V8.725a6.598 6.598 0 0 1 6.59-6.59zM29 19.772V8.725C29 3.915 25.086 0 20.275 0H9.228C4.418 0 .504 3.914.504 8.725v11.047c0 4.81 3.914 8.724 8.724 8.724h11.047c4.811 0 8.725-3.913 8.725-8.724z"/></g><g><path fill="#1d1e1c" d="M19.775 14.249a5.029 5.029 0 0 1-5.023 5.023 5.029 5.029 0 0 1-5.023-5.023 5.029 5.029 0 0 1 5.023-5.024 5.029 5.029 0 0 1 5.023 5.024zm2.185 0c0-3.975-3.234-7.209-7.208-7.209-3.975 0-7.208 3.234-7.208 7.209 0 3.974 3.233 7.207 7.208 7.207 3.974 0 7.208-3.233 7.208-7.207z"/></g><g><path fill="#1d1e1c" d="M24.621 6.256a1.877 1.877 0 1 1-3.753 0 1.877 1.877 0 0 1 3.753 0z"/></g></g></g></svg>