<svg xmlns="http://www.w3.org/2000/svg" width="28" height="29" viewBox="0 0 28 29"><g><g><g><path fill="#fff" d="M13.805 6.6c.97 0 1.758.788 1.758 1.758a1.76 1.76 0 0 1-1.758 1.758 1.76 1.76 0 0 1-1.758-1.758c0-.97.789-1.758 1.758-1.758zm0 4.688a2.933 2.933 0 0 0 2.93-2.93 2.934 2.934 0 0 0-2.93-2.93 2.934 2.934 0 0 0-2.93 2.93 2.933 2.933 0 0 0 2.93 2.93z"/></g><g><path fill="#fff" d="M13.805 27.611c-7.361 0-12.49-2.079-12.49-3.944 0-1.314 2.862-3.023 8.16-3.682 1.927 2.846 3.783 4.722 3.865 4.803a.655.655 0 0 0 .93 0c.082-.081 1.939-1.958 3.863-4.803 5.3.659 8.162 2.368 8.162 3.682 0 1.865-5.13 3.944-12.49 3.944zm0-26.296c3.987 0 7.231 3.245 7.231 7.232 0 3.874-2.05 7.779-3.77 10.372a37.048 37.048 0 0 1-3.46 4.446 36.911 36.911 0 0 1-3.464-4.447c-1.719-2.592-3.768-6.497-3.768-10.371 0-3.987 3.244-7.232 7.231-7.232zm5.122 17.447c1.675-2.71 3.424-6.441 3.424-10.215C22.35 3.835 18.517 0 13.805 0S5.258 3.835 5.258 8.547c0 3.774 1.75 7.506 3.425 10.215C3.373 19.527 0 21.41 0 23.667c0 3.416 7.112 5.259 13.805 5.259s13.805-1.843 13.805-5.259c0-2.258-3.373-4.14-8.683-4.905z"/></g></g></g></svg>