<?xml version="1.0" encoding="UTF-8"?>
<svg viewBox="0 0 31 31" xmlns="http://www.w3.org/2000/svg">
<defs>
<clipPath id="a">
<path d="m-497-296h683v384h-683z"/>
</clipPath>
</defs>
<style>tspan { white-space:pre }
		.shp0 { fill: #1d1e1c }</style>
<g clip-path="url(#a)">
<path class="shp0" d="m30.5 15.5c0 8.27-6.73 15-15 15s-15-6.73-15-15 6.73-15 15-15 15 6.73 15 15zm-6.31 0.13h5.52v-0.13c0-0.72-0.05-1.42-0.16-2.11h-7.6v14.77c0.79-0.41 1.54-0.88 2.24-1.42v-11.11zm-22.9 0h5.52v11.11c0.7 0.54 1.45 1.01 2.24 1.42v-14.77h-7.6c-0.11 0.69-0.16 1.39-0.16 2.11v0.13zm8.55-3.03v15.82h-0.25c0.79 0.36 1.63 0.66 2.49 0.87v-19.07h-9.77c-0.31 0.77-0.55 1.56-0.72 2.38h8.25zm3.03-3.17v20.03c0.73 0.14 1.47 0.22 2.24 0.24v-22.79h-10.92c-0.6 0.78-1.11 1.63-1.54 2.52h10.22zm3.02 20.27c0.77-0.02 1.51-0.1 2.24-0.24v-20.03h10.22c-0.43-0.89-0.94-1.74-1.54-2.52h-10.92v22.79zm3.03-0.41c0.77-0.19 1.52-0.44 2.24-0.76v-15.93h8.25c-0.17-0.82-0.41-1.61-0.72-2.38h-9.77v19.07zm-3.42-28c-2.41 0-4.67 0.6-6.66 1.66h13.32c-1.99-1.06-4.25-1.66-6.66-1.66zm-10.66 4.83h21.32c-0.79-0.9-1.7-1.7-2.69-2.38h-15.94c-0.99 0.68-1.9 1.48-2.69 2.38zm1.18 19.96v-9.66h-4.7c0.05 0.76 0.16 1.51 0.33 2.24h2.14v4.87c0.64 0.94 1.39 1.8 2.23 2.55zm-3.02-6.63h-1.15c0.28 0.98 0.67 1.92 1.15 2.8v-2.8zm24.21 4.08v-4.87h2.14c0.17-0.73 0.28-1.48 0.33-2.24h-4.7v9.66c0.84-0.75 1.59-1.61 2.23-2.55zm0.79-4.08v2.8c0.48-0.88 0.87-1.82 1.15-2.8h-1.15z" fill-rule="evenodd"/>
</g>
</svg>
