<?xml version="1.0" encoding="UTF-8"?>
<svg viewBox="0 0 13 10" xmlns="http://www.w3.org/2000/svg">
<defs>
<clipPath id="a">
<path d="m-506-2089h683v2361h-683z"/>
</clipPath>
</defs>
<style>tspan { white-space:pre }
		.shp0 { fill: #ffffff }</style>
<g clip-path="url(#a)">
<path class="shp0" d="m12.87 1.29v8.36c-0.01 0.01 0 0.01-0.01 0.02-0.02 0.02-0.02 0.02-0.02 0.03 0 0.02-0.01 0.03-0.01 0.03 0 0.02-0.02 0.02-0.02 0.03v0.01l-0.01 0.02-0.03 0.03-0.01 0.01c0 0.02-0.02 0.03-0.03 0.03l-0.02 0.02c-0.01 0-0.03 0.01-0.04 0.01h-12.46c-0.01-0.01-0.01-0.01-0.02-0.01-0.02 0-0.02-0.02-0.03-0.02-0.02 0-0.02-0.01-0.03-0.01-0.02 0-0.03-0.02-0.03-0.02l-0.01-0.01-0.02-0.02-0.01-0.01v-0.02c0-0.01-0.02-0.01-0.02-0.02 0-0.02-0.01-0.02-0.01-0.03-0.02-0.02-0.02-0.02-0.02-0.03-0.01-0.02-0.01-0.02-0.01-0.03v-8.37c0-0.16 0.13-0.29 0.29-0.29h12.31c0.16 0 0.28 0.13 0.27 0.29zm-12.3 7.71l3.87-3.06-3.87-3.06v6.12zm11.2 0.3l-3.8-3-1.36 1.07c-0.04 0.04-0.11 0.06-0.17 0.06s-0.11-0.02-0.17-0.06l-1.36-1.07-3.79 3h10.65zm0.54-6.42l-3.86 3.06 3.86 3.06v-6.12zm0-1.31h-11.74v0.57l0.17 0.15 5.7 4.51 5.7-4.51 0.17-0.15v-0.57z" fill-rule="evenodd"/>
</g>
</svg>
 7.41 6.27 7.37L4.91 6.3L1.12 9.3L11.77 9.3ZM12.31 2.88L8.45 5.94L12.31 9L12.31 2.88ZM12.31 1.57L0.57 1.57L0.57 2.14L0.74 2.29L6.44 6.8L12.14 2.29L12.31 2.14L12.31 1.57Z" />
		</g>
	</g>
</svg>