<?xml version="1.0" encoding="UTF-8"?>
<svg viewBox="0 0 13 13" xmlns="http://www.w3.org/2000/svg">
<defs>
<clipPath id="a">
<path d="m-164-2088h683v2361h-683z"/>
</clipPath>
</defs>
<style>tspan { white-space:pre }
		.shp0 { fill: #ffffff }</style>
<g clip-path="url(#a)">
<path class="shp0" d="m6.75 0.5c3.45 0 6.25 2.8 6.25 6.25s-2.8 6.25-6.25 6.25c-1.2 0-2.32-0.34-3.27-0.93l-2.29 0.79c-0.05 0.02-0.12 0.02-0.17 0.01-0.15-0.05-0.24-0.21-0.19-0.36l0.7-2.33c-0.66-1.01-1.03-2.18-1.03-3.43 0-3.45 2.8-6.25 6.25-6.25zm0 0.57c-3.14 0-5.68 2.54-5.68 5.68 0 1.18 0.36 2.28 1 3.22 0.05 0.07 0.06 0.16 0.04 0.24l-0.58 1.93 1.89-0.65c0.08-0.03 0.17-0.02 0.25 0.03 0.88 0.58 1.94 0.91 3.08 0.91 3.14 0 5.68-2.54 5.68-5.68s-2.54-5.68-5.68-5.68zm-2.22 1.85h0.02c0.1 0 0.19 0.05 0.24 0.13l1.26 2.08 0.01 0.01c0.01 0.02 0.01 0.03 0.02 0.04 0.01 0.02 0.01 0.04 0.02 0.05v0.01 0.02 0.01 0.02 0.01 0.02 0.03c0 0.01-0.01 0.02-0.01 0.02 0 0.01 0 0.02-0.01 0.02v0.01 0.01s-0.01 0.01-0.01 0.02c0 0-0.01 0-0.01 0.01 0 0 0 0.01-0.01 0.01 0 0.01-0.01 0.02-0.02 0.02v0.01l-0.01 0.01-0.03 0.03-0.4 0.4c0.55 0.92 1.17 1.6 1.98 2l0.44-0.45 0.03-0.03 0.01-0.01c0.01-0.01 0.02-0.01 0.03-0.02s0.03-0.02 0.04-0.02c0.04-0.02 0.09-0.03 0.14-0.03h0.03c0.04 0.01 0.07 0.02 0.1 0.04 0.01 0.01 0.02 0.01 0.03 0.02l0.01 0.01 2.02 1.27c0.11 0.07 0.16 0.2 0.12 0.33-0.23 0.64-0.6 1.09-1.06 1.33-0.46 0.25-0.99 0.27-1.53 0.16-1.07-0.22-2.2-0.98-3.13-1.94-0.93-0.95-1.67-2.1-1.88-3.16-0.1-0.53-0.07-1.06 0.17-1.51 0.24-0.44 0.69-0.79 1.32-0.98 0.02-0.01 0.04-0.01 0.07-0.01zm-0.11 0.62c-0.4 0.16-0.64 0.38-0.78 0.65-0.16 0.3-0.2 0.68-0.11 1.12 0.17 0.89 0.85 1.98 1.72 2.87 0.88 0.9 1.95 1.6 2.84 1.78 0.45 0.1 0.84 0.07 1.16-0.1 0.27-0.15 0.52-0.39 0.7-0.81l-1.67-1.04-0.46 0.45c-0.08 0.09-0.2 0.11-0.31 0.06-1.09-0.48-1.87-1.36-2.53-2.5-0.06-0.11-0.04-0.25 0.05-0.34l0.43-0.43-1.04-1.71z" fill-rule="evenodd"/>
</g>
</svg>
7.36 8.26 7.36 8.26 7.36C8.27 7.36 8.28 7.36 8.29 7.36C8.29 7.36 8.29 7.36 8.29 7.36C8.33 7.37 8.36 7.38 8.39 7.4C8.4 7.41 8.41 7.41 8.42 7.42L8.43 7.43L10.45 8.7C10.56 8.77 10.61 8.9 10.57 9.03C10.34 9.67 9.97 10.12 9.51 10.36C9.05 10.61 8.52 10.63 7.98 10.52C6.91 10.3 5.78 9.54 4.85 8.58C3.92 7.63 3.18 6.48 2.97 5.42C2.87 4.89 2.9 4.36 3.14 3.91C3.38 3.47 3.83 3.12 4.46 2.93C4.48 2.92 4.5 2.92 4.53 2.92L4.53 2.92ZM4.42 3.54C4.02 3.7 3.78 3.92 3.64 4.19C3.48 4.49 3.44 4.87 3.53 5.31C3.7 6.2 4.38 7.29 5.25 8.18C6.13 9.08 7.2 9.78 8.09 9.96C8.54 10.06 8.93 10.03 9.25 9.86C9.52 9.71 9.77 9.47 9.95 9.05L8.28 8.01L7.82 8.46C7.74 8.55 7.62 8.57 7.51 8.52C6.42 8.04 5.64 7.16 4.98 6.02C4.92 5.91 4.94 5.77 5.03 5.68L5.46 5.25L4.42 3.54Z" />
		</g>
	</g>
</svg>