<svg xmlns="http://www.w3.org/2000/svg" width="34" height="34" viewBox="0 0 34 34"><g><g><path d="M10.412 7.9l3.046 5.034-1.268 1.255a.837.837 0 0 0-.13 1.007c1.934 3.351 4.227 5.959 7.439 7.374.314.14.683.072.928-.17l1.346-1.347 4.916 3.072c-.544 1.225-1.254 1.955-2.065 2.38-.94.492-2.09.585-3.4.314-2.62-.544-5.787-2.604-8.367-5.243-2.58-2.64-4.577-5.849-5.086-8.46-.255-1.305-.142-2.429.34-3.32.415-.767 1.12-1.424 2.3-1.896zm6.85-7.295C8.013.605.529 8.085.529 17.34c0 3.49 1.064 6.718 2.955 9.491a.84.84 0 0 1 .104.72l-1.7 5.687 5.57-1.922a.836.836 0 0 1 .719.092 16.636 16.636 0 0 0 9.087 2.667c9.254 0 16.735-7.48 16.735-16.735 0-9.255-7.48-16.735-16.735-16.735z"/></g></g></svg>g></g></svg>