<svg xmlns="http://www.w3.org/2000/svg" width="242" height="40" viewBox="0 0 242 40"><g><g><path fill="#1d1e1c" d="M241.185 6.828v3.054h-6.827v6.826h-3.054V9.882h-6.828V6.828h6.828V0h3.054v6.828zm-187.357.116h4.027v31.953h-4.027V24.625H36.63v14.272h-4.027V6.944h4.027v14.271h17.197zm28.196 12.88c-1.827-4.792-3.203-8.6-3.203-8.6h-.18s-1.07 2.975-2.58 6.986l-4.04 10.274c2.165-.6 4.391-.913 6.642-.913 2.31 0 4.593.325 6.808.956zm-1.293-12.88l13.302 31.953H89.6l-1.646-4.103-.628-1.585c-2.766-1.237-5.691-1.889-8.663-1.889-2.898 0-5.757.62-8.465 1.8l-.325.824-1.982 4.953h-4.374L76.851 6.944zm52.57 0h21.563v3.41H137.33v10.861h15.572v3.41h-15.572v10.756h17.535v3.516h-21.563zm85.112 23.282c0 6.181-5.24 9.358-12.484 9.358-7.781 0-13.025-3.703-13.025-11.176h4.191c.27 5.998 4.084 7.828 8.893 7.828 5.11 0 8.306-2.185 8.306-5.89 0-3.513-2.593-4.758-5.866-5.548l-6.592-1.585c-4.046-.937-7.782-2.65-7.782-8.15 0-5.425 4.891-8.807 11.477-8.807 6.704 0 12.122 3.42 12.164 9.82h-4.162.002c-.282-4.727-4.014-6.472-8.046-6.472-4.019 0-7.315 2.087-7.315 5.398 0 2.8 2.207 3.956 5.223 4.67l6.506 1.476c4.478.984 8.51 2.677 8.51 9.078zM182.385 6.944h4.028v20.604c0 7.9-5.32 12.036-12.513 12.036-7.225 0-12.544-4.136-12.544-12.036V6.944h4.028v20.24c0 6.325 3.198 8.93 8.516 8.93s8.485-2.605 8.485-8.93zM122.366 22.92c0-8.247-4.314-12.566-11.464-12.566h-7.23v25.133h7.23c7.15 0 11.464-4.32 11.464-12.567zm4.117 0c0 10.576-6.086 15.977-15.055 15.977H99.645V6.944h11.783c8.969 0 15.055 5.401 15.055 15.976zM.772 6.944h25.652v3.516H15.628v28.437H11.6V10.46H.772z"/></g></g></svg>